Grade -1 UC.ufo
<glyph name="exclam" format="2">
  <advance width="588"/>
  <unicode hex="0021"/>
  <outline>
    <contour>
      <point x="186.65333333333334" y="86.40666666666667" type="qcurve" smooth="yes"/>
      <point x="186.65333333333334" y="129.2"/>
      <point x="246.93333333333334" y="192.42"/>
      <point x="294.0" y="192.42" type="qcurve" smooth="yes"/>
      <point x="341.12666666666667" y="192.42"/>
      <point x="401.4066666666667" y="129.2"/>
      <point x="401.4066666666667" y="86.40666666666667" type="qcurve" smooth="yes"/>
      <point x="401.4066666666667" y="43.88666666666667"/>
      <point x="341.12666666666667" y="-19.333333333333332"/>
      <point x="294.0" y="-19.333333333333332" type="qcurve" smooth="yes"/>
      <point x="246.93333333333334" y="-19.333333333333332"/>
      <point x="186.65333333333334" y="43.88666666666667"/>
    </contour>
    <contour>
      <point x="230.66666666666666" y="1399.6666666666667" type="line" smooth="yes"/>
      <point x="227.72666666666666" y="1467.6666666666667"/>
      <point x="256.3333333333333" y="1542.0"/>
      <point x="295.3333333333333" y="1542.3333333333333" type="qcurve" smooth="yes"/>
      <point x="334.3333333333333" y="1542.6666666666667"/>
      <point x="362.94" y="1469.6666666666667"/>
      <point x="360.0" y="1400.6666666666667" type="qcurve" smooth="yes"/>
      <point x="350.3333333333333" y="1106.2" type="line"/>
      <point x="334.3333333333333" y="798.2" type="line"/>
      <point x="322.6666666666667" y="432.0" type="line"/>
      <point x="266.0" y="432.0" type="line"/>
      <point x="254.33333333333334" y="798.2" type="line"/>
      <point x="240.33333333333334" y="1106.2" type="line"/>
    </contour>
  </outline>
</glyph>
<glyph name="numbersign" format="2">
  <advance width="1267"/>
  <unicode hex="0023"/>
  <outline>
    <contour>
      <point x="80.43333333333332" y="516.6333333333333" type="line"/>
      <point x="80.43333333333332" y="608.6666666666666" type="line"/>
      <point x="1097.32" y="608.6666666666666" type="line"/>
      <point x="1097.32" y="516.6333333333333" type="line"/>
    </contour>
    <contour>
      <point x="169.62666666666667" y="873.0" type="line"/>
      <point x="169.62666666666667" y="965.0333333333334" type="line"/>
      <point x="1186.5133333333333" y="965.0333333333334" type="line"/>
      <point x="1186.5133333333333" y="873.0" type="line"/>
    </contour>
    <contour>
      <point x="140.02666666666667" y="-22.526666666666664" type="line"/>
      <point x="680.7866666666666" y="1533.0866666666668" type="line"/>
      <point x="746.9133333333334" y="1515.42" type="line"/>
      <point x="206.42666666666665" y="-40.19333333333333" type="line"/>
    </contour>
    <contour>
      <point x="537.3133333333334" y="-22.526666666666664" type="line"/>
      <point x="1078.1333333333332" y="1533.0866666666668" type="line"/>
      <point x="1144.5333333333333" y="1515.42" type="line"/>
      <point x="603.7133333333334" y="-40.19333333333333" type="line"/>
    </contour>
  </outline>
</glyph>
<glyph name="quotesingle" format="2">
  <advance width="510"/>
  <unicode hex="0027"/>
  <outline>
    <contour>
      <point x="236.70666666666665" y="964.0" type="line"/>
      <point x="178.02666666666667" y="1436.2" type="line"/>
      <point x="177.36" y="1487.5333333333333"/>
      <point x="212.30666666666664" y="1558.0"/>
      <point x="255.2533333333333" y="1558.0" type="qcurve" smooth="yes"/>
      <point x="298.14" y="1558.0"/>
      <point x="333.0866666666667" y="1487.5333333333333"/>
      <point x="332.42" y="1436.2" type="qcurve"/>
      <point x="272.4066666666667" y="964.0" type="line"/>
    </contour>
  </outline>
</glyph>
<glyph name="plus" format="2">
  <advance width="987"/>
  <unicode hex="002B"/>
  <outline>
    <contour>
      <point x="90.43333333333332" y="583.8733333333333" type="line"/>
      <point x="90.43333333333332" y="680.1266666666667" type="line"/>
      <point x="896.5933333333334" y="680.1266666666667" type="line"/>
      <point x="896.5933333333334" y="583.8733333333333" type="line"/>
    </contour>
    <contour>
      <point x="446.1133333333333" y="211.98666666666665" type="line"/>
      <point x="446.1133333333333" y="1052.0133333333333" type="line"/>
      <point x="540.9133333333334" y="1052.0133333333333" type="line"/>
      <point x="540.9133333333334" y="211.98666666666665" type="line"/>
    </contour>
  </outline>
</glyph>
<glyph name="hyphen" format="2">
  <advance width="708"/>
  <unicode hex="002D"/>
  <outline>
    <contour>
      <point x="76.66666666666667" y="580.0" type="line"/>
      <point x="76.66666666666667" y="684.0" type="line"/>
      <point x="354.4666666666667" y="680.0" type="line"/>
      <point x="631.9333333333334" y="684.0" type="line"/>
      <point x="631.9333333333334" y="580.0" type="line"/>
      <point x="354.4666666666667" y="584.0" type="line"/>
    </contour>
  </outline>
</glyph>
<glyph name="zero" format="2">
  <advance width="1069"/>
  <unicode hex="0030"/>
  <outline>
    <contour>
      <point x="75.94666666666667" y="748.0" type="qcurve" smooth="yes"/>
      <point x="75.94666666666667" y="1096.3333333333333"/>
      <point x="325.4266666666667" y="1520.0"/>
      <point x="535.6866666666666" y="1520.0" type="qcurve" smooth="yes"/>
      <point x="748.9466666666666" y="1520.0"/>
      <point x="993.4266666666666" y="1099.0"/>
      <point x="993.4266666666666" y="752.6666666666666" type="qcurve" smooth="yes"/>
      <point x="993.4266666666666" y="420.0"/>
      <point x="752.5533333333334" y="-26.666666666666664"/>
      <point x="538.6266666666667" y="-26.666666666666664" type="qcurve" smooth="yes"/>
      <point x="323.76" y="-26.666666666666664"/>
      <point x="75.94666666666667" y="396.3333333333333"/>
    </contour>
    <contour>
      <point x="189.98" y="768.0" type="qcurve" smooth="yes"/>
      <point x="190.31333333333333" y="439.0"/>
      <point x="377.6933333333333" y="48.57333333333334"/>
      <point x="534.4133333333334" y="48.57333333333334" type="qcurve" smooth="yes"/>
      <point x="696.8933333333333" y="48.57333333333334"/>
      <point x="877.4533333333334" y="417.6666666666667"/>
      <point x="879.3933333333333" y="752.0" type="qcurve" smooth="yes"/>
      <point x="881.3933333333333" y="1074.3333333333333"/>
      <point x="693.9533333333334" y="1434.24"/>
      <point x="536.08" y="1434.24" type="qcurve" smooth="yes"/>
      <point x="371.48" y="1434.24"/>
      <point x="188.98" y="1094.6666666666667"/>
    </contour>
  </outline>
</glyph>
<glyph name="one" format="2">
  <advance width="744"/>
  <unicode hex="0031"/>
  <outline>
    <contour>
      <point x="75.58" y="0.0" type="line"/>
      <point x="75.58" y="63.03333333333334" type="line"/>
      <point x="328.58" y="93.36666666666667" type="line"/>
      <point x="328.58" y="754.0" type="line"/>
      <point x="327.24666666666667" y="1391.5066666666667" type="line"/>
      <point x="73.58" y="1406.0" type="line"/>
      <point x="73.58" y="1473.3333333333333" type="line"/>
      <point x="420.2866666666667" y="1510.3333333333333" type="line"/>
      <point x="439.62" y="1486.6666666666667" type="line"/>
      <point x="436.2866666666667" y="754.0" type="line"/>
      <point x="436.2866666666667" y="93.36666666666667" type="line"/>
      <point x="695.2866666666666" y="63.03333333333334" type="line"/>
      <point x="695.2866666666666" y="0.0" type="line"/>
    </contour>
  </outline>
</glyph>
<glyph name="two" format="2">
  <advance width="934"/>
  <unicode hex="0032"/>
  <outline>
    <contour>
      <point x="40.22666666666667" y="0.0" type="line"/>
      <point x="40.22666666666667" y="101.33333333333334" type="line"/>
      <point x="57.53333333333334" y="236.66666666666666"/>
      <point x="219.62666666666667" y="493.2133333333333"/>
      <point x="382.92" y="628.9666666666666" type="qcurve" smooth="yes"/>
      <point x="539.58" y="759.1466666666666"/>
      <point x="738.9666666666666" y="983.3333333333334"/>
      <point x="738.9666666666666" y="1141.6666666666667" type="qcurve" smooth="yes"/>
      <point x="738.9666666666666" y="1285.6666666666667"/>
      <point x="569.46" y="1428.46"/>
      <point x="447.5133333333333" y="1428.46" type="qcurve" smooth="yes"/>
      <point x="327.5466666666667" y="1428.46"/>
      <point x="163.51333333333335" y="1341.22"/>
      <point x="99.85333333333332" y="1260.9666666666667" type="qcurve"/>
      <point x="55.07333333333333" y="1320.0" type="line"/>
      <point x="111.99333333333333" y="1401.0"/>
      <point x="309.9" y="1520.0"/>
      <point x="469.26" y="1520.0" type="qcurve" smooth="yes"/>
      <point x="633.5866666666666" y="1520.0"/>
      <point x="854.7333333333333" y="1318.9333333333332"/>
      <point x="854.7333333333333" y="1141.9333333333332" type="qcurve" smooth="yes"/>
      <point x="854.7333333333333" y="945.7133333333334"/>
      <point x="578.38" y="667.04"/>
      <point x="442.4133333333333" y="563.0333333333334" type="qcurve" smooth="yes"/>
      <point x="309.49333333333334" y="462.26"/>
      <point x="149.10666666666668" y="242.66666666666666"/>
      <point x="128.8" y="111.66666666666667" type="qcurve"/>
      <point x="136.01333333333335" y="103.33333333333334" type="line"/>
      <point x="902.5933333333334" y="103.33333333333334" type="line"/>
      <point x="902.5933333333334" y="0.0" type="line"/>
    </contour>
  </outline>
</glyph>
<glyph name="three" format="2">
  <advance width="949"/>
  <unicode hex="0033"/>
  <outline>
    <contour>
      <point x="2.4266666666666667" y="158.57333333333335" type="qcurve"/>
      <point x="50.693333333333335" y="224.91333333333336" type="line"/>
      <point x="124.37333333333335" y="137.92"/>
      <point x="297.7933333333333" y="59.84666666666667"/>
      <point x="420.6" y="59.84666666666667" type="qcurve" smooth="yes"/>
      <point x="564.7066666666666" y="59.84666666666667"/>
      <point x="751.9066666666666" y="236.30666666666664"/>
      <point x="751.9066666666666" y="397.6666666666667" type="qcurve" smooth="yes"/>
      <point x="751.9066666666666" y="565.0"/>
      <point x="486.8466666666667" y="742.6666666666666"/>
      <point x="283.46" y="742.6666666666666" type="qcurve" smooth="yes"/>
      <point x="247.0" y="742.6666666666666" type="line"/>
      <point x="222.08666666666664" y="811.0" type="line"/>
      <point x="304.16" y="814.0" type="line" smooth="yes"/>
      <point x="490.6666666666667" y="820.0"/>
      <point x="721.66" y="1006.6666666666666"/>
      <point x="721.66" y="1168.3333333333333" type="qcurve" smooth="yes"/>
      <point x="721.66" y="1303.3333333333333"/>
      <point x="562.22" y="1434.8866666666668"/>
      <point x="441.6933333333333" y="1434.8866666666668" type="qcurve" smooth="yes"/>
      <point x="338.62" y="1434.8866666666668"/>
      <point x="182.81333333333333" y="1362.1266666666668"/>
      <point x="102.09333333333335" y="1279.48" type="qcurve"/>
      <point x="64.83333333333333" y="1343.5866666666668" type="line"/>
      <point x="135.0" y="1425.6733333333332"/>
      <point x="329.5266666666667" y="1520.0"/>
      <point x="455.5733333333333" y="1520.0" type="qcurve" smooth="yes"/>
      <point x="619.02" y="1520.0"/>
      <point x="833.3066666666666" y="1339.9333333333332"/>
      <point x="833.3066666666666" y="1184.0" type="qcurve" smooth="yes"/>
      <point x="833.3066666666666" y="1026.3333333333333"/>
      <point x="651.1333333333333" y="836.6666666666666"/>
      <point x="486.78" y="793.3333333333334" type="qcurve"/>
      <point x="486.78" y="787.6666666666666" type="line"/>
      <point x="652.4666666666666" y="762.6666666666666"/>
      <point x="866.8266666666666" y="552.9333333333334"/>
      <point x="866.8266666666666" y="385.2666666666667" type="qcurve" smooth="yes"/>
      <point x="866.8266666666666" y="196.93333333333334"/>
      <point x="610.8666666666667" y="-27.333333333333332"/>
      <point x="420.78" y="-27.333333333333332" type="qcurve" smooth="yes"/>
      <point x="282.7133333333333" y="-27.333333333333332"/>
      <point x="70.04666666666667" y="75.12"/>
    </contour>
  </outline>
</glyph>
<glyph name="four" format="2">
  <advance width="1083"/>
  <unicode hex="0034"/>
  <outline>
    <contour>
      <point x="37.833333333333336" y="526.6666666666666" type="line"/>
      <point x="717.0733333333334" y="1526.4666666666667" type="line"/>
      <point x="783.6" y="1509.4" type="line"/>
      <point x="812.5133333333333" y="1484.5" type="line"/>
      <point x="809.24" y="494.3333333333333" type="line"/>
      <point x="809.24" y="93.36666666666667" type="line"/>
      <point x="1037.7666666666667" y="63.03333333333334" type="line"/>
      <point x="1037.7666666666667" y="0.0" type="line"/>
      <point x="443.6733333333333" y="0.0" type="line"/>
      <point x="443.6733333333333" y="63.03333333333334" type="line"/>
      <point x="701.5333333333334" y="93.36666666666667" type="line"/>
      <point x="704.4133333333334" y="491.6666666666667" type="line"/>
      <point x="704.4133333333334" y="1374.6" type="line"/>
      <point x="143.4466666666667" y="540.6666666666666" type="line"/>
      <point x="148.05333333333334" y="533.3333333333334" type="line"/>
      <point x="1030.9066666666668" y="525.2666666666667" type="line"/>
      <point x="1030.9066666666668" y="458.6666666666667" type="line"/>
      <point x="48.26" y="455.3333333333333" type="line"/>
    </contour>
  </outline>
</glyph>
<glyph name="five" format="2">
  <advance width="953"/>
  <unicode hex="0035"/>
  <outline>
    <contour>
      <point x="-2.493333333333333" y="134.57333333333335" type="qcurve"/>
      <point x="40.506666666666675" y="201.46" type="line"/>
      <point x="110.66666666666667" y="130.5266666666667"/>
      <point x="278.64" y="61.913333333333334"/>
      <point x="407.6333333333333" y="61.913333333333334" type="qcurve" smooth="yes"/>
      <point x="558.4666666666666" y="61.913333333333334"/>
      <point x="757.3933333333333" y="259.3333333333333"/>
      <point x="757.3933333333333" y="450.6666666666667" type="qcurve" smooth="yes"/>
      <point x="757.3933333333333" y="639.54"/>
      <point x="485.44" y="821.3333333333334"/>
      <point x="282.3" y="820.0" type="qcurve" smooth="yes"/>
      <point x="140.34666666666666" y="819.3333333333334" type="line"/>
      <point x="120.00666666666667" y="845.16" type="line"/>
      <point x="182.92666666666665" y="1472.3333333333333" type="line"/>
      <point x="206.35333333333335" y="1500.0" type="line"/>
      <point x="795.14" y="1500.0" type="line"/>
      <point x="789.26" y="1391.3333333333333" type="line"/>
      <point x="255.9" y="1391.3333333333333" type="line"/>
      <point x="246.02" y="1380.3333333333333" type="line"/>
      <point x="193.82666666666665" y="888.7533333333333" type="line"/>
      <point x="330.4" y="911.7333333333333" type="line"/>
      <point x="562.8933333333333" y="911.7333333333333"/>
      <point x="872.2466666666667" y="694.4066666666666"/>
      <point x="872.2466666666667" y="476.2" type="qcurve" smooth="yes"/>
      <point x="872.2466666666667" y="241.86666666666665"/>
      <point x="608.9333333333334" y="-28.0"/>
      <point x="414.3333333333333" y="-28.0" type="qcurve" smooth="yes"/>
      <point x="269.00666666666666" y="-28.0"/>
      <point x="62.093333333333334" y="63.24"/>
    </contour>
  </outline>
</glyph>
<glyph name="nine" format="2">
  <advance width="1051"/>
  <unicode hex="0039"/>
  <outline>
    <contour>
      <point x="59.73333333333333" y="1020.6133333333333" type="qcurve" smooth="yes"/>
      <point x="62.4" y="1250.3533333333332"/>
      <point x="311.5266666666667" y="1519.7866666666666"/>
      <point x="496.4733333333333" y="1519.7866666666666" type="qcurve" smooth="yes"/>
      <point x="709.4266666666666" y="1519.7866666666666"/>
      <point x="978.6" y="1157.54"/>
      <point x="975.2666666666667" y="853.54" type="qcurve" smooth="yes"/>
      <point x="971.2666666666667" y="513.54"/>
      <point x="593.14" y="26.753333333333337"/>
      <point x="272.1333333333333" y="-69.91333333333334" type="qcurve"/>
      <point x="246.73333333333335" y="-0.28" type="line"/>
      <point x="517.46" y="87.38666666666667"/>
      <point x="855.62" y="507.0866666666667"/>
      <point x="858.9533333333334" y="859.0866666666666" type="qcurve" smooth="yes"/>
      <point x="861.62" y="1144.42"/>
      <point x="654.9866666666667" y="1446.12"/>
      <point x="497.72" y="1446.12" type="qcurve" smooth="yes"/>
      <point x="350.06666666666666" y="1446.12"/>
      <point x="175.4666666666667" y="1231.9933333333333"/>
      <point x="173.4666666666667" y="1036.0866666666668" type="qcurve" smooth="yes"/>
      <point x="171.4666666666667" y="850.1533333333334"/>
      <point x="350.8133333333334" y="663.1733333333334"/>
      <point x="493.53333333333336" y="663.1733333333334" type="qcurve" smooth="yes"/>
      <point x="547.74" y="663.1733333333334"/>
      <point x="654.5466666666666" y="695.9333333333334"/>
      <point x="685.6733333333334" y="714.2933333333334" type="qcurve"/>
      <point x="707.0066666666667" y="664.7533333333333" type="line"/>
      <point x="673.0" y="630.0866666666666"/>
      <point x="544.6533333333334" y="575.3866666666667"/>
      <point x="461.6066666666667" y="575.3866666666667" type="qcurve" smooth="yes"/>
      <point x="285.2333333333333" y="575.3866666666667"/>
      <point x="57.06666666666666" y="817.3333333333334"/>
    </contour>
  </outline>
</glyph>
<glyph name="A" format="2">
  <advance width="1472"/>
  <unicode hex="0041"/>
  <outline>
    <contour>
      <point x="-34.23333333333333" y="0.0" type="line"/>
      <point x="-34.23333333333333" y="65.09333333333335" type="line"/>
      <point x="154.83333333333334" y="100.09333333333335" type="line"/>
      <point x="325.8933333333333" y="547.14" type="line"/>
      <point x="684.3866666666667" y="1508.0" type="line"/>
      <point x="776.8733333333333" y="1508.0" type="line"/>
      <point x="1127.1533333333332" y="557.0" type="line"/>
      <point x="1302.7333333333333" y="100.03333333333335" type="line"/>
      <point x="1505.1333333333332" y="65.09333333333335" type="line"/>
      <point x="1505.1333333333332" y="0.0" type="line"/>
      <point x="974.9266666666666" y="0.0" type="line"/>
      <point x="975.5933333333334" y="65.09333333333335" type="line"/>
      <point x="1183.2933333333333" y="99.60666666666667" type="line"/>
      <point x="1025.1533333333332" y="529.5933333333334" type="line"/>
      <point x="722.12" y="1352.9533333333331" type="line"/>
      <point x="404.8933333333333" y="521.04" type="line"/>
      <point x="253.36666666666667" y="98.66666666666667" type="line"/>
      <point x="458.4" y="65.09333333333335" type="line"/>
      <point x="458.4" y="0.0" type="line"/>
    </contour>
    <contour>
      <point x="729.6" y="558.4666666666666" type="line"/>
      <point x="1069.94" y="565.8" type="line"/>
      <point x="1095.8266666666668" y="487.1333333333333" type="line"/>
      <point x="729.6" y="486.4666666666667" type="line"/>
    </contour>
    <contour>
      <point x="350.4" y="485.8" type="line"/>
      <point x="377.1333333333333" y="564.8" type="line"/>
      <point x="729.6" y="558.4666666666666" type="line"/>
      <point x="729.6" y="486.4666666666667" type="line"/>
    </contour>
  </outline>
</glyph>
<glyph name="E" format="2">
  <advance width="1267"/>
  <unicode hex="0045"/>
  <outline>
    <contour>
      <point x="83.24" y="0.0" type="line"/>
      <point x="83.24" y="65.09333333333335" type="line"/>
      <point x="302.24" y="100.64" type="line"/>
      <point x="303.5733333333333" y="781.9266666666666" type="line"/>
      <point x="302.24" y="1397.0266666666666" type="line"/>
      <point x="83.24" y="1431.0266666666666" type="line"/>
      <point x="83.24" y="1500.0" type="line"/>
      <point x="1111.5066666666667" y="1500.0" type="line"/>
      <point x="1111.5066666666667" y="1157.9333333333332" type="line"/>
      <point x="1039.02" y="1157.9333333333332" type="line"/>
      <point x="997.9533333333334" y="1422.6666666666667" type="line"/>
      <point x="439.7666666666667" y="1422.6666666666667" type="line"/>
      <point x="412.64" y="1398.6666666666667" type="line"/>
      <point x="411.3666666666667" y="783.6666666666666" type="line"/>
      <point x="412.64" y="100.0" type="line"/>
      <point x="438.7666666666667" y="74.0" type="line"/>
      <point x="1059.1466666666668" y="74.0" type="line"/>
      <point x="1139.8266666666668" y="372.6666666666667" type="line"/>
      <point x="1211.6466666666668" y="372.6666666666667" type="line"/>
      <point x="1172.3666666666668" y="0.0" type="line"/>
    </contour>
    <contour>
      <point x="360.2" y="752.0" type="line"/>
      <point x="360.2" y="820.0" type="line"/>
      <point x="861.26" y="824.0" type="line"/>
      <point x="891.66" y="1001.3333333333334" type="line"/>
      <point x="963.48" y="1001.3333333333334" type="line"/>
      <point x="963.48" y="568.0" type="line"/>
      <point x="891.66" y="568.0" type="line"/>
      <point x="861.26" y="748.6666666666666" type="line"/>
    </contour>
  </outline>
</glyph>
<glyph name="F" format="2">
  <advance width="1165"/>
  <unicode hex="0046"/>
  <outline>
    <contour>
      <point x="83.24" y="0.0" type="line"/>
      <point x="83.24" y="65.09333333333335" type="line"/>
      <point x="302.24" y="100.64" type="line"/>
      <point x="303.5733333333333" y="761.64" type="line"/>
      <point x="302.24" y="1397.0266666666666" type="line"/>
      <point x="83.24" y="1431.0266666666666" type="line"/>
      <point x="83.24" y="1500.0" type="line"/>
      <point x="1099.1133333333332" y="1500.0" type="line"/>
      <point x="1099.1133333333332" y="1147.9333333333332" type="line"/>
      <point x="1026.6266666666668" y="1147.9333333333332" type="line"/>
      <point x="993.56" y="1422.6666666666667" type="line"/>
      <point x="440.43333333333334" y="1422.6666666666667" type="line"/>
      <point x="412.9733333333333" y="1398.6666666666667" type="line"/>
      <point x="411.64" y="762.0" type="line"/>
      <point x="412.9733333333333" y="99.21333333333334" type="line"/>
      <point x="662.1666666666666" y="65.09333333333335" type="line"/>
      <point x="662.1666666666666" y="0.0" type="line"/>
    </contour>
    <contour>
      <point x="358.5933333333333" y="731.6666666666666" type="line"/>
      <point x="358.5933333333333" y="801.6666666666666" type="line"/>
      <point x="851.3533333333334" y="804.6666666666666" type="line"/>
      <point x="881.7533333333333" y="987.3333333333334" type="line"/>
      <point x="954.42" y="987.3333333333334" type="line"/>
      <point x="954.42" y="529.3333333333334" type="line"/>
      <point x="881.7533333333333" y="529.3333333333334" type="line"/>
      <point x="851.3533333333334" y="729.3333333333334" type="line"/>
    </contour>
  </outline>
</glyph>
<glyph name="H" format="2">
  <advance width="1700"/>
  <unicode hex="0048"/>
  <outline>
    <contour>
      <point x="83.24" y="0.0" type="line"/>
      <point x="83.24" y="65.09333333333335" type="line"/>
      <point x="301.5733333333333" y="100.09333333333335" type="line"/>
      <point x="303.5733333333333" y="754.0" type="line"/>
      <point x="301.5733333333333" y="1397.0266666666666" type="line"/>
      <point x="83.24" y="1431.0266666666666" type="line"/>
      <point x="83.24" y="1500.0" type="line"/>
      <point x="638.7066666666666" y="1500.0" type="line"/>
      <point x="638.7066666666666" y="1431.0266666666666" type="line"/>
      <point x="414.3066666666667" y="1397.0266666666666" type="line"/>
      <point x="412.3066666666667" y="754.0" type="line"/>
      <point x="414.3066666666667" y="100.09333333333335" type="line"/>
      <point x="638.7066666666666" y="65.09333333333335" type="line"/>
      <point x="638.7066666666666" y="0.0" type="line"/>
    </contour>
    <contour>
      <point x="371.5733333333333" y="743.4533333333334" type="line"/>
      <point x="371.5733333333333" y="828.5466666666666" type="line"/>
      <point x="857.44" y="820.5466666666666" type="line"/>
      <point x="1328.3733333333332" y="828.5466666666666" type="line"/>
      <point x="1328.3733333333332" y="743.4533333333334" type="line"/>
      <point x="857.44" y="743.4533333333334" type="line"/>
    </contour>
    <contour>
      <point x="1061.64" y="0.0" type="line"/>
      <point x="1061.64" y="65.09333333333335" type="line"/>
      <point x="1286.04" y="100.09333333333335" type="line"/>
      <point x="1288.04" y="754.0" type="line"/>
      <point x="1286.04" y="1397.0266666666666" type="line"/>
      <point x="1061.64" y="1431.0266666666666" type="line"/>
      <point x="1061.64" y="1500.0" type="line"/>
      <point x="1617.1066666666668" y="1500.0" type="line"/>
      <point x="1617.1066666666668" y="1431.0266666666666" type="line"/>
      <point x="1398.7733333333333" y="1397.0266666666666" type="line"/>
      <point x="1396.7733333333333" y="754.0" type="line"/>
      <point x="1398.7733333333333" y="100.09333333333335" type="line"/>
      <point x="1617.1066666666668" y="65.09333333333335" type="line"/>
      <point x="1617.1066666666668" y="0.0" type="line"/>
    </contour>
  </outline>
</glyph>
<glyph name="J" format="2">
  <advance width="723"/>
  <unicode hex="004A"/>
  <outline>
    <contour>
      <point x="20.313333333333336" y="-190.0" type="qcurve"/>
      <point x="20.313333333333336" y="-103.66666666666666" type="line"/>
      <point x="39.980000000000004" y="-106.0"/>
      <point x="85.44666666666667" y="-106.0"/>
      <point x="115.44666666666667" y="-104.33333333333333" type="qcurve" smooth="yes"/>
      <point x="229.44666666666666" y="-101.0"/>
      <point x="313.5133333333333" y="12.666666666666668"/>
      <point x="313.5133333333333" y="132.66666666666666" type="qcurve" smooth="yes"/>
      <point x="314.18" y="780.6666666666666" type="line"/>
      <point x="311.5733333333333" y="1397.0266666666666" type="line"/>
      <point x="85.94" y="1431.0266666666666" type="line"/>
      <point x="85.94" y="1500.0" type="line"/>
      <point x="639.6" y="1500.0" type="line"/>
      <point x="639.6" y="1431.0266666666666" type="line"/>
      <point x="424.18666666666667" y="1397.0266666666666" type="line"/>
      <point x="422.18666666666667" y="780.6666666666666" type="line"/>
      <point x="428.6133333333333" y="168.33333333333334" type="line" smooth="yes"/>
      <point x="430.55333333333334" y="-22.333333333333336"/>
      <point x="279.1133333333333" y="-193.33333333333334"/>
      <point x="144.11333333333334" y="-195.66666666666666" type="qcurve" smooth="yes"/>
      <point x="91.11333333333334" y="-196.66666666666666"/>
      <point x="41.646666666666675" y="-193.33333333333334"/>
    </contour>
  </outline>
</glyph>
<glyph name="K" format="2">
  <advance width="1432"/>
  <unicode hex="004B"/>
  <outline>
    <contour>
      <point x="83.24" y="0.0" type="line"/>
      <point x="83.24" y="65.09333333333335" type="line"/>
      <point x="301.5733333333333" y="100.09333333333335" type="line"/>
      <point x="303.5733333333333" y="754.0" type="line"/>
      <point x="301.5733333333333" y="1397.0266666666666" type="line"/>
      <point x="83.24" y="1431.0266666666666" type="line"/>
      <point x="83.24" y="1500.0" type="line"/>
      <point x="635.9733333333334" y="1500.0" type="line"/>
      <point x="635.9733333333334" y="1431.0266666666666" type="line"/>
      <point x="414.3066666666667" y="1397.0266666666666" type="line"/>
      <point x="412.3066666666667" y="754.0" type="line"/>
      <point x="414.3066666666667" y="100.09333333333335" type="line"/>
      <point x="638.7066666666666" y="65.09333333333335" type="line"/>
      <point x="638.7066666666666" y="0.0" type="line"/>
    </contour>
    <contour>
      <point x="360.9133333333333" y="496.18666666666667" type="line"/>
      <point x="361.0933333333333" y="604.84" type="line"/>
      <point x="1083.5133333333333" y="1393.2" type="line"/>
      <point x="913.16" y="1431.0266666666666" type="line"/>
      <point x="913.16" y="1500.0" type="line"/>
      <point x="1385.7666666666667" y="1500.0" type="line"/>
      <point x="1385.7666666666667" y="1431.0266666666666" type="line"/>
      <point x="1198.9466666666667" y="1393.2" type="line"/>
      <point x="690.0333333333334" y="846.7733333333334" type="line"/>
      <point x="668.52" y="824.1666666666666" type="line"/>
    </contour>
    <contour>
      <point x="618.94" y="821.98" type="line"/>
      <point x="691.0" y="899.66" type="line"/>
      <point x="1283.1333333333332" y="100.03333333333335" type="line"/>
      <point x="1472.6466666666668" y="65.09333333333335" type="line"/>
      <point x="1472.6466666666668" y="0.0" type="line"/>
      <point x="960.5466666666666" y="0.0" type="line"/>
      <point x="960.5466666666666" y="65.09333333333335" type="line"/>
      <point x="1153.4866666666667" y="100.03333333333335" type="line"/>
    </contour>
  </outline>
</glyph>
<glyph name="M" format="2">
  <advance width="2018"/>
  <unicode hex="004D"/>
  <outline>
    <contour>
      <point x="90.57333333333332" y="0.0" type="line"/>
      <point x="90.57333333333332" y="65.09333333333335" type="line"/>
      <point x="301.52" y="100.09333333333335" type="line"/>
      <point x="302.7933333333333" y="753.3333333333334" type="line"/>
      <point x="301.52" y="1397.0266666666666" type="line"/>
      <point x="90.57333333333332" y="1431.0266666666666" type="line"/>
      <point x="90.57333333333332" y="1500.0" type="line"/>
      <point x="472.0866666666667" y="1500.0" type="line"/>
      <point x="746.48" y="785.1" type="line"/>
      <point x="998.4133333333334" y="148.98" type="line"/>
      <point x="1257.7733333333333" y="790.5733333333334" type="line"/>
      <point x="1538.0133333333333" y="1500.0" type="line"/>
      <point x="1934.8" y="1500.0" type="line"/>
      <point x="1934.8" y="1431.0266666666666" type="line"/>
      <point x="1716.5266666666666" y="1397.0266666666666" type="line"/>
      <point x="1714.5866666666668" y="754.0" type="line"/>
      <point x="1716.5266666666666" y="100.09333333333335" type="line"/>
      <point x="1934.8" y="65.09333333333335" type="line"/>
      <point x="1934.8" y="0.0" type="line"/>
      <point x="1371.02" y="0.0" type="line"/>
      <point x="1371.02" y="65.09333333333335" type="line"/>
      <point x="1604.0333333333333" y="100.09333333333335" type="line"/>
      <point x="1606.0333333333333" y="753.3333333333334" type="line"/>
      <point x="1600.7" y="1410.9733333333334" type="line"/>
      <point x="1336.72" y="758.78" type="line"/>
      <point x="1034.78" y="-7.333333333333333" type="line"/>
      <point x="938.6" y="-7.333333333333333" type="line"/>
      <point x="648.2933333333334" y="743.6666666666666" type="line"/>
      <point x="386.1" y="1411.8" type="line"/>
      <point x="385.49333333333334" y="753.3333333333334" type="line"/>
      <point x="386.7666666666667" y="100.09333333333335" type="line"/>
      <point x="606.8" y="65.09333333333335" type="line"/>
      <point x="606.8" y="0.0" type="line"/>
    </contour>
  </outline>
</glyph>
<glyph name="N" format="2">
  <advance width="1589"/>
  <unicode hex="004E"/>
  <outline>
    <contour>
      <point x="93.90666666666667" y="0.0" type="line"/>
      <point x="93.90666666666667" y="65.09333333333335" type="line"/>
      <point x="300.8533333333333" y="100.03333333333335" type="line"/>
      <point x="302.7933333333333" y="753.3333333333334" type="line"/>
      <point x="300.8533333333333" y="1397.0266666666666" type="line"/>
      <point x="93.90666666666667" y="1431.0266666666666" type="line"/>
      <point x="93.90666666666667" y="1500.0" type="line"/>
      <point x="451.48" y="1500.0" type="line"/>
      <point x="852.3" y="817.14" type="line"/>
      <point x="1223.0" y="204.22" type="line"/>
      <point x="1225.6066666666668" y="752.0" type="line"/>
      <point x="1221.5466666666669" y="1397.0266666666666" type="line"/>
      <point x="986.2266666666667" y="1431.0266666666666" type="line"/>
      <point x="986.2266666666667" y="1500.0" type="line"/>
      <point x="1519.5266666666666" y="1500.0" type="line"/>
      <point x="1519.5266666666666" y="1431.0266666666666" type="line"/>
      <point x="1310.64" y="1397.0266666666666" type="line"/>
      <point x="1308.64" y="753.3333333333334" type="line"/>
      <point x="1308.0333333333333" y="-2.9066666666666663" type="line"/>
      <point x="1220.1533333333332" y="-2.9066666666666663" type="line"/>
      <point x="755.2666666666667" y="773.5933333333334" type="line"/>
      <point x="387.94666666666666" y="1383.4666666666667" type="line"/>
      <point x="385.94666666666666" y="754.6666666666666" type="line"/>
      <point x="389.94666666666666" y="100.03333333333335" type="line"/>
      <point x="618.72" y="65.09333333333335" type="line"/>
      <point x="618.72" y="0.0" type="line"/>
    </contour>
  </outline>
</glyph>
<glyph name="R" format="2">
  <advance width="1323"/>
  <unicode hex="0052"/>
  <outline>
    <contour>
      <point x="71.24" y="0.0" type="line"/>
      <point x="71.24" y="65.03333333333335" type="line"/>
      <point x="301.5733333333333" y="100.30666666666667" type="line"/>
      <point x="303.5733333333333" y="783.6" type="line"/>
      <point x="302.24" y="1397.0266666666666" type="line"/>
      <point x="83.24" y="1431.0266666666666" type="line"/>
      <point x="83.24" y="1500.0" type="line"/>
      <point x="701.2933333333334" y="1500.0" type="line" smooth="yes"/>
      <point x="900.18" y="1499.94"/>
      <point x="1098.3133333333333" y="1321.9733333333334"/>
      <point x="1098.3133333333333" y="1158.64" type="qcurve" smooth="yes"/>
      <point x="1098.3133333333333" y="972.6666666666666"/>
      <point x="861.9266666666666" y="750.6066666666667"/>
      <point x="677.2666666666667" y="750.6066666666667" type="qcurve" smooth="yes"/>
      <point x="614.46" y="750.6066666666667"/>
      <point x="425.12" y="757.3666666666667"/>
      <point x="361.2" y="760.3666666666667" type="qcurve"/>
      <point x="361.2" y="825.0" type="line"/>
      <point x="633.8666666666667" y="823.0" type="line" smooth="yes"/>
      <point x="802.98" y="821.6666666666666"/>
      <point x="978.2133333333334" y="996.3333333333334"/>
      <point x="978.2133333333334" y="1153.0" type="qcurve" smooth="yes"/>
      <point x="978.2133333333334" y="1285.0"/>
      <point x="818.4733333333334" y="1421.3333333333333"/>
      <point x="674.48" y="1421.3333333333333" type="qcurve" smooth="yes"/>
      <point x="445.98" y="1421.3333333333333" type="line"/>
      <point x="414.18666666666667" y="1402.0" type="line"/>
      <point x="411.58" y="775.3333333333334" type="line"/>
      <point x="413.58" y="100.30666666666667" type="line"/>
      <point x="650.8266666666666" y="65.09333333333335" type="line"/>
      <point x="650.8266666666666" y="0.0" type="line"/>
    </contour>
    <contour>
      <point x="621.4" y="769.1466666666666" type="line"/>
      <point x="727.1933333333334" y="796.1466666666666" type="line"/>
      <point x="1055.1" y="266.3333333333333" type="line" smooth="yes"/>
      <point x="1141.42" y="127.0"/>
      <point x="1264.6133333333332" y="66.33333333333334"/>
      <point x="1365.7933333333333" y="65.33333333333334" type="qcurve"/>
      <point x="1365.7933333333333" y="0.0" type="line"/>
      <point x="1102.52" y="0.0" type="line"/>
      <point x="1078.06" y="15.333333333333334" type="line"/>
    </contour>
  </outline>
</glyph>
<glyph name="S" format="2">
  <advance width="1128"/>
  <unicode hex="0053"/>
  <outline>
    <contour>
      <point x="78.0" y="0.0" type="line"/>
      <point x="78.0" y="468.6666666666667" type="line"/>
      <point x="156.24666666666667" y="468.6666666666667" type="line"/>
      <point x="176.43333333333334" y="328.8266666666667" type="line" smooth="yes"/>
      <point x="194.92666666666665" y="206.66666666666666"/>
      <point x="439.3933333333333" y="56.0"/>
      <point x="607.1466666666666" y="56.0" type="qcurve" smooth="yes"/>
      <point x="773.9666666666666" y="56.0"/>
      <point x="957.78" y="231.58666666666664"/>
      <point x="957.78" y="362.7333333333333" type="qcurve" smooth="yes"/>
      <point x="957.78" y="492.6466666666667"/>
      <point x="775.2533333333333" y="656.1333333333333"/>
      <point x="525.46" y="751.1333333333333" type="qcurve" smooth="yes"/>
      <point x="288.4266666666667" y="841.8"/>
      <point x="118.56" y="1014.6266666666667"/>
      <point x="118.56" y="1153.6266666666668" type="qcurve" smooth="yes"/>
      <point x="118.56" y="1307.96"/>
      <point x="334.34" y="1519.0333333333333"/>
      <point x="522.7666666666667" y="1519.0333333333333" type="qcurve" smooth="yes"/>
      <point x="636.38" y="1519.0333333333333"/>
      <point x="804.8733333333333" y="1453.3866666666668"/>
      <point x="860.3066666666666" y="1400.3866666666668" type="qcurve"/>
      <point x="881.3733333333333" y="1487.72" type="line"/>
      <point x="955.56" y="1487.72" type="line"/>
      <point x="955.56" y="1073.72" type="line"/>
      <point x="877.98" y="1073.72" type="line"/>
      <point x="854.7666666666667" y="1238.3866666666668" type="line" smooth="yes"/>
      <point x="842.22" y="1327.72"/>
      <point x="647.9666666666666" y="1433.3333333333333"/>
      <point x="525.9133333333334" y="1433.3333333333333" type="qcurve" smooth="yes"/>
      <point x="375.7133333333333" y="1433.3333333333333"/>
      <point x="215.41333333333336" y="1293.2066666666667"/>
      <point x="215.41333333333336" y="1185.2066666666667" type="qcurve" smooth="yes"/>
      <point x="215.41333333333336" y="1079.3933333333332"/>
      <point x="359.2933333333333" y="941.9333333333334"/>
      <point x="599.5733333333334" y="849.6" type="qcurve" smooth="yes"/>
      <point x="839.94" y="757.2666666666667"/>
      <point x="1059.5733333333333" y="557.46"/>
      <point x="1059.5733333333333" y="394.7933333333333" type="qcurve" smooth="yes"/>
      <point x="1059.5733333333333" y="209.12666666666667"/>
      <point x="806.88" y="-24.426666666666666"/>
      <point x="607.2066666666666" y="-24.426666666666666" type="qcurve" smooth="yes"/>
      <point x="460.5466666666667" y="-24.426666666666666"/>
      <point x="257.42" y="57.333333333333336"/>
      <point x="191.5" y="123.0" type="qcurve"/>
      <point x="152.30666666666664" y="0.0" type="line"/>
    </contour>
  </outline>
</glyph>
<glyph name="T" format="2">
  <advance width="1275"/>
  <unicode hex="0054"/>
  <outline>
    <contour>
      <point x="38.0" y="1096.5333333333333" type="line"/>
      <point x="38.0" y="1500.0" type="line"/>
      <point x="1236.8666666666668" y="1500.0" type="line"/>
      <point x="1236.8666666666668" y="1096.5333333333333" type="line"/>
      <point x="1164.2" y="1096.5333333333333" type="line"/>
      <point x="1117.2" y="1422.6666666666667" type="line"/>
      <point x="717.8" y="1422.6666666666667" type="line"/>
      <point x="694.1333333333333" y="1408.0" type="line"/>
      <point x="692.1333333333333" y="754.0" type="line"/>
      <point x="694.1333333333333" y="100.30666666666667" type="line"/>
      <point x="931.4666666666666" y="65.03333333333335" type="line"/>
      <point x="931.4666666666666" y="0.0" type="line"/>
      <point x="339.4" y="0.0" type="line"/>
      <point x="339.4" y="65.03333333333335" type="line"/>
      <point x="581.4" y="100.30666666666667" type="line"/>
      <point x="583.4" y="754.0" type="line"/>
      <point x="581.4" y="1406.6666666666667" type="line"/>
      <point x="561.7333333333333" y="1422.6666666666667" type="line"/>
      <point x="152.33333333333334" y="1422.6666666666667" type="line"/>
      <point x="111.33333333333334" y="1096.5333333333333" type="line"/>
    </contour>
  </outline>
</glyph>
<glyph name="V" format="2">
  <advance width="1434"/>
  <unicode hex="0056"/>
  <outline>
    <contour>
      <point x="-32.446666666666665" y="1431.0866666666668" type="line"/>
      <point x="-32.446666666666665" y="1500.0" type="line"/>
      <point x="498.3466666666667" y="1500.0" type="line"/>
      <point x="498.3466666666667" y="1431.0866666666668" type="line"/>
      <point x="289.78" y="1395.1133333333332" type="line"/>
      <point x="506.16666666666663" y="786.92" type="line"/>
      <point x="731.9733333333334" y="139.6866666666667" type="line"/>
      <point x="968.1066666666667" y="801.0266666666666" type="line"/>
      <point x="1179.8866666666668" y="1397.0866666666668" type="line"/>
      <point x="967.9" y="1431.0866666666668" type="line"/>
      <point x="967.9" y="1500.0" type="line"/>
      <point x="1471.6533333333332" y="1500.0" type="line"/>
      <point x="1471.6533333333332" y="1431.0866666666668" type="line"/>
      <point x="1275.8066666666668" y="1395.66" type="line"/>
      <point x="1047.3866666666668" y="768.0266666666666" type="line"/>
      <point x="767.3933333333333" y="-7.333333333333333" type="line"/>
      <point x="667.8266666666666" y="-7.333333333333333" type="line"/>
      <point x="400.1" y="751.36" type="line"/>
      <point x="166.06666666666666" y="1395.66" type="line"/>
    </contour>
  </outline>
</glyph>
<glyph name="Y" format="2">
  <advance width="1282"/>
  <unicode hex="0059"/>
  <outline>
    <contour>
      <point x="-41.53333333333333" y="1431.0266666666666" type="line"/>
      <point x="-41.53333333333333" y="1500.0" type="line"/>
      <point x="480.22" y="1500.0" type="line"/>
      <point x="480.22" y="1431.0266666666666" type="line"/>
      <point x="292.0266666666667" y="1396.7533333333333" type="line"/>
      <point x="477.50666666666666" y="1046.08" type="line"/>
      <point x="657.48" y="724.08" type="line"/>
      <point x="850.5133333333333" y="1075.0133333333333" type="line"/>
      <point x="1024.7" y="1398.6666666666667" type="line"/>
      <point x="820.7" y="1431.0266666666666" type="line"/>
      <point x="820.7" y="1500.0" type="line"/>
      <point x="1323.0466666666669" y="1500.0" type="line"/>
      <point x="1323.0466666666669" y="1431.0266666666666" type="line"/>
      <point x="1126.7133333333334" y="1398.94" type="line"/>
      <point x="917.72" y="1030.1866666666667" type="line"/>
      <point x="699.2666666666667" y="633.3333333333334" type="line"/>
      <point x="699.9333333333334" y="100.09333333333335" type="line"/>
      <point x="948.2666666666667" y="65.09333333333335" type="line"/>
      <point x="948.2666666666667" y="0.0" type="line"/>
      <point x="335.44" y="0.0" type="line"/>
      <point x="335.44" y="65.09333333333335" type="line"/>
      <point x="587.2" y="100.09333333333335" type="line"/>
      <point x="588.5333333333334" y="623.6666666666666" type="line"/>
      <point x="387.6" y="995.6866666666666" type="line"/>
      <point x="162.8" y="1399.2133333333334" type="line"/>
    </contour>
  </outline>
</glyph>
<glyph name="Z" format="2">
  <advance width="1157"/>
  <unicode hex="005A"/>
  <outline>
    <contour>
      <point x="61.10666666666666" y="0.0" type="line"/>
      <point x="38.8" y="67.33333333333334" type="line"/>
      <point x="940.3866666666667" y="1413.3333333333333" type="line"/>
      <point x="933.5066666666667" y="1422.6666666666667" type="line"/>
      <point x="201.9666666666667" y="1422.6666666666667" type="line"/>
      <point x="155.48" y="1101.7333333333333" type="line"/>
      <point x="83.41333333333333" y="1101.7333333333333" type="line"/>
      <point x="83.41333333333333" y="1500.0" type="line"/>
      <point x="1076.28" y="1500.0" type="line"/>
      <point x="1076.28" y="1431.0" type="line"/>
      <point x="175.20666666666668" y="83.33333333333334" type="line"/>
      <point x="181.14666666666668" y="74.0" type="line"/>
      <point x="982.4933333333333" y="74.0" type="line"/>
      <point x="1068.42" y="373.93333333333334" type="line"/>
      <point x="1141.5133333333333" y="373.93333333333334" type="line"/>
      <point x="1097.8866666666668" y="0.0" type="line"/>
    </contour>
  </outline>
</glyph>
<glyph name="backslash" format="2">
  <advance width="635"/>
  <unicode hex="005C"/>
  <outline>
    <contour>
      <point x="-29.973333333333336" y="1525.9333333333332" type="line"/>
      <point x="56.67333333333333" y="1549.0" type="line"/>
      <point x="673.96" y="-132.66666666666666" type="line"/>
      <point x="587.3133333333334" y="-156.4" type="line"/>
    </contour>
  </outline>
</glyph>
<glyph name="asciicircum" format="2">
  <advance width="1249"/>
  <unicode hex="005E"/>
  <outline>
    <contour>
      <point x="117.24666666666667" y="940.6666666666666" type="line"/>
      <point x="168.95333333333335" y="1006.0"/>
      <point x="560.6266666666667" y="1469.0"/>
      <point x="605.8733333333333" y="1521.3333333333333" type="qcurve"/>
      <point x="643.8466666666666" y="1478.3333333333333"/>
      <point x="1077.3466666666668" y="1005.0"/>
      <point x="1131.0533333333333" y="941.6666666666666" type="qcurve"/>
      <point x="1073.7466666666667" y="887.4" type="line"/>
      <point x="958.9666666666666" y="1006.0666666666666"/>
      <point x="634.5733333333334" y="1337.6666666666667"/>
      <point x="606.48" y="1367.0" type="qcurve"/>
      <point x="577.84" y="1335.3333333333333"/>
      <point x="289.1533333333333" y="1012.4"/>
      <point x="175.88666666666666" y="888.0666666666666" type="qcurve"/>
    </contour>
  </outline>
</glyph>
<glyph name="b" format="2">
  <advance width="1125"/>
  <unicode hex="0062"/>
  <outline>
    <contour>
      <point x="189.08666666666664" y="0.0" type="line"/>
      <point x="190.94" y="433.0" type="line"/>
      <point x="187.14666666666665" y="1410.4266666666667" type="line"/>
      <point x="-0.8533333333333339" y="1434.6666666666667" type="line"/>
      <point x="-0.8533333333333339" y="1500.0" type="line"/>
      <point x="262.1533333333333" y="1520.6666666666667" type="line"/>
      <point x="277.88" y="1517.3333333333333" type="line"/>
      <point x="293.2133333333333" y="1492.6666666666667" type="line"/>
      <point x="293.1533333333333" y="854.1533333333334" type="line"/>
      <point x="343.7733333333333" y="922.1666666666666"/>
      <point x="530.1466666666666" y="1019.76"/>
      <point x="655.2066666666666" y="1019.76" type="qcurve" smooth="yes"/>
      <point x="834.3333333333334" y="1019.76"/>
      <point x="1059.42" y="755.62"/>
      <point x="1059.42" y="530.0" type="qcurve" smooth="yes"/>
      <point x="1059.42" y="285.28"/>
      <point x="811.88" y="-11.76"/>
      <point x="599.7333333333333" y="-12.0" type="qcurve" smooth="yes"/>
      <point x="503.48" y="-12.12"/>
      <point x="349.3933333333333" y="43.46"/>
      <point x="289.8066666666667" y="94.78666666666668" type="qcurve"/>
      <point x="234.87333333333333" y="0.0" type="line"/>
    </contour>
    <contour>
      <point x="290.06" y="450.3666666666667" type="line"/>
      <point x="295.0933333333333" y="204.5" type="line"/>
      <point x="334.1333333333333" y="141.44"/>
      <point x="496.6933333333333" y="56.333333333333336"/>
      <point x="598.2666666666667" y="56.333333333333336" type="qcurve" smooth="yes"/>
      <point x="751.5133333333333" y="56.333333333333336"/>
      <point x="940.9266666666666" y="289.55333333333334"/>
      <point x="940.9266666666666" y="502.3333333333333" type="qcurve" smooth="yes"/>
      <point x="940.9266666666666" y="700.5333333333334"/>
      <point x="763.9733333333334" y="934.6666666666666"/>
      <point x="615.2733333333334" y="934.6666666666666" type="qcurve" smooth="yes"/>
      <point x="490.3666666666667" y="934.6666666666666"/>
      <point x="332.2" y="829.08"/>
      <point x="293.1533333333333" y="769.6133333333333" type="qcurve"/>
    </contour>
  </outline>
</glyph>
<glyph name="c" format="2">
  <advance width="984"/>
  <unicode hex="0063"/>
  <outline>
    <contour>
      <point x="65.82666666666667" y="487.0133333333333" type="qcurve" smooth="yes"/>
      <point x="65.82666666666667" y="716.3666666666667"/>
      <point x="332.6933333333333" y="1020.4866666666667"/>
      <point x="541.5266666666666" y="1020.4866666666667" type="qcurve" smooth="yes"/>
      <point x="634.6" y="1020.4866666666667"/>
      <point x="758.4533333333334" y="974.7266666666666"/>
      <point x="794.0066666666667" y="936.6666666666666" type="qcurve"/>
      <point x="817.74" y="1008.36" type="line"/>
      <point x="881.96" y="1008.36" type="line"/>
      <point x="888.9266666666666" y="670.4866666666667" type="line"/>
      <point x="823.3133333333334" y="670.4866666666667" type="line"/>
      <point x="802.1266666666667" y="749.2466666666667" type="line" smooth="yes"/>
      <point x="775.4533333333334" y="848.8533333333334"/>
      <point x="650.2133333333334" y="945.9733333333334"/>
      <point x="547.44" y="945.9733333333334" type="qcurve" smooth="yes"/>
      <point x="379.7933333333333" y="945.9733333333334"/>
      <point x="179.89333333333335" y="716.6466666666666"/>
      <point x="180.56" y="500.5266666666667" type="qcurve" smooth="yes"/>
      <point x="180.56" y="289.0"/>
      <point x="399.6466666666667" y="68.78666666666668"/>
      <point x="578.74" y="68.78666666666668" type="qcurve" smooth="yes"/>
      <point x="684.5866666666666" y="68.78666666666668"/>
      <point x="852.72" y="149.85333333333335"/>
      <point x="908.0933333333334" y="218.18666666666667" type="qcurve"/>
      <point x="942.3066666666666" y="179.15333333333334" type="line"/>
      <point x="888.78" y="93.33333333333333"/>
      <point x="685.1333333333333" y="-21.7"/>
      <point x="541.8" y="-21.7" type="qcurve" smooth="yes"/>
      <point x="335.8533333333333" y="-21.7"/>
      <point x="65.82666666666667" y="248.0"/>
    </contour>
  </outline>
</glyph>
<glyph name="d" format="2">
  <advance width="1148"/>
  <unicode hex="0064"/>
  <outline>
    <contour>
      <point x="67.04" y="484.6" type="qcurve" smooth="yes"/>
      <point x="67.04" y="727.2666666666667"/>
      <point x="335.8466666666667" y="1019.76"/>
      <point x="537.1333333333333" y="1019.76" type="qcurve" smooth="yes"/>
      <point x="634.3066666666666" y="1019.76"/>
      <point x="793.36" y="965.78"/>
      <point x="837.4666666666666" y="924.8666666666667" type="qcurve"/>
      <point x="833.7066666666666" y="1410.4266666666667" type="line"/>
      <point x="647.7066666666666" y="1434.6666666666667" type="line"/>
      <point x="647.7066666666666" y="1500.0" type="line"/>
      <point x="910.5933333333334" y="1520.6666666666667" type="line"/>
      <point x="926.32" y="1517.3333333333333" type="line"/>
      <point x="941.6533333333334" y="1492.6666666666667" type="line"/>
      <point x="940.0466666666666" y="536.0" type="line"/>
      <point x="945.4733333333334" y="83.0" type="line"/>
      <point x="1107.8333333333333" y="53.333333333333336" type="line"/>
      <point x="1107.8333333333333" y="0.0" type="line"/>
      <point x="874.02" y="0.0" type="line"/>
      <point x="848.1666666666666" y="35.34" type="line"/>
      <point x="838.1333333333333" y="147.64" type="line"/>
      <point x="791.6933333333334" y="79.77333333333333"/>
      <point x="618.86" y="-10.333333333333334"/>
      <point x="500.86" y="-10.333333333333334" type="qcurve" smooth="yes"/>
      <point x="317.3466666666667" y="-10.333333333333334"/>
      <point x="67.04" y="255.26666666666665"/>
    </contour>
    <contour>
      <point x="185.59333333333333" y="502.3333333333333" type="qcurve" smooth="yes"/>
      <point x="185.59333333333333" y="296.0"/>
      <point x="375.8333333333333" y="75.0"/>
      <point x="527.9266666666666" y="75.0" type="qcurve" smooth="yes"/>
      <point x="631.2066666666666" y="75.0"/>
      <point x="791.0333333333334" y="158.5666666666667"/>
      <point x="836.74" y="224.76666666666668" type="qcurve"/>
      <point x="840.38" y="531.3333333333334" type="line"/>
      <point x="839.6533333333334" y="819.5333333333334" type="line"/>
      <point x="800.24" y="876.48"/>
      <point x="644.0533333333334" y="950.7"/>
      <point x="546.0533333333334" y="950.7" type="qcurve" smooth="yes"/>
      <point x="387.5" y="950.7"/>
      <point x="185.59333333333333" y="702.0"/>
    </contour>
  </outline>
</glyph>
<glyph name="e" format="2">
  <advance width="995"/>
  <unicode hex="0065"/>
  <outline>
    <contour>
      <point x="65.55333333333333" y="507.3333333333333" type="qcurve" smooth="yes"/>
      <point x="65.55333333333333" y="728.6266666666667"/>
      <point x="321.1466666666667" y="1021.82"/>
      <point x="525.64" y="1021.82" type="qcurve" smooth="yes"/>
      <point x="711.1" y="1021.82"/>
      <point x="931.8733333333333" y="789.0"/>
      <point x="950.2466666666667" y="589.3333333333334" type="qcurve"/>
      <point x="950.2466666666667" y="546.6666666666666" type="line"/>
      <point x="158.39333333333335" y="546.6666666666666" type="line"/>
      <point x="160.39333333333335" y="614.0" type="line"/>
      <point x="844.1133333333333" y="614.0" type="line"/>
      <point x="827.44" y="763.6666666666666"/>
      <point x="656.4466666666666" y="945.82"/>
      <point x="514.8466666666666" y="945.82" type="qcurve" smooth="yes"/>
      <point x="361.06" y="945.82"/>
      <point x="179.98666666666668" y="719.3333333333334"/>
      <point x="180.32" y="520.6666666666666" type="qcurve" smooth="yes"/>
      <point x="181.26" y="298.3333333333333"/>
      <point x="399.8333333333333" y="67.94"/>
      <point x="579.8933333333333" y="67.94" type="qcurve" smooth="yes"/>
      <point x="687.4266666666666" y="67.94"/>
      <point x="838.1866666666666" y="131.3"/>
      <point x="885.74" y="179.63333333333335" type="qcurve"/>
      <point x="920.0733333333334" y="144.34666666666666" type="line"/>
      <point x="873.1266666666667" y="76.86666666666667"/>
      <point x="690.9466666666666" y="-21.7"/>
      <point x="563.68" y="-21.7" type="qcurve" smooth="yes"/>
      <point x="333.6666666666667" y="-21.7"/>
      <point x="65.55333333333333" y="257.6666666666667"/>
    </contour>
  </outline>
</glyph>
<glyph name="f" format="2">
  <advance width="605"/>
  <unicode hex="0066"/>
  <outline>
    <contour>
      <point x="51.333333333333336" y="0.0" type="line"/>
      <point x="51.333333333333336" y="53.333333333333336" type="line"/>
      <point x="243.0" y="83.0" type="line"/>
      <point x="247.0" y="527.0" type="line"/>
      <point x="246.0" y="903.3333333333334" type="line"/>
      <point x="60.4" y="914.3333333333334" type="line"/>
      <point x="60.4" y="974.0" type="line"/>
      <point x="247.33333333333334" y="987.3333333333334" type="line"/>
      <point x="247.88" y="1311.7933333333333" type="line" smooth="yes"/>
      <point x="248.21333333333334" y="1404.7933333333333"/>
      <point x="356.96" y="1520.5266666666666"/>
      <point x="443.9266666666667" y="1520.5266666666666" type="qcurve" smooth="yes"/>
      <point x="481.0866666666667" y="1520.5266666666666"/>
      <point x="547.9733333333334" y="1502.3133333333333"/>
      <point x="572.9733333333334" y="1486.8" type="qcurve" smooth="yes"/>
      <point x="585.7933333333334" y="1479.4666666666667" type="line"/>
      <point x="572.7066666666666" y="1416.44" type="line"/>
      <point x="560.0666666666666" y="1420.32" type="line" smooth="yes"/>
      <point x="543.52" y="1426.5933333333332"/>
      <point x="503.24" y="1434.6533333333332"/>
      <point x="474.9066666666667" y="1434.6533333333332" type="qcurve" smooth="yes"/>
      <point x="407.5333333333333" y="1434.6533333333332"/>
      <point x="349.3066666666667" y="1354.4066666666668"/>
      <point x="349.58" y="1289.0533333333333" type="qcurve" smooth="yes"/>
      <point x="350.12666666666667" y="985.0" type="line"/>
      <point x="573.8933333333333" y="985.0" type="line"/>
      <point x="573.8933333333333" y="908.0" type="line"/>
      <point x="350.12666666666667" y="908.0" type="line"/>
      <point x="350.12666666666667" y="527.0" type="line"/>
      <point x="355.12666666666667" y="83.0" type="line"/>
      <point x="562.56" y="53.333333333333336" type="line"/>
      <point x="562.56" y="0.0" type="line"/>
    </contour>
  </outline>
</glyph>
<glyph name="g" format="2">
  <advance width="1026"/>
  <unicode hex="0067"/>
  <outline>
    <contour>
      <point x="16.0" y="-262.8533333333333" type="qcurve" smooth="yes"/>
      <point x="16.0" y="-179.18666666666667"/>
      <point x="132.29333333333335" y="-53.07333333333334"/>
      <point x="239.0333333333333" y="-12.586666666666668" type="qcurve"/>
      <point x="302.4066666666667" y="-38.25333333333334" type="line"/>
      <point x="209.85333333333335" y="-77.95333333333335"/>
      <point x="120.54" y="-178.85333333333335"/>
      <point x="120.54" y="-245.85333333333335" type="qcurve" smooth="yes"/>
      <point x="120.54" y="-338.52"/>
      <point x="319.9066666666667" y="-443.0"/>
      <point x="533.5266666666666" y="-443.0" type="qcurve" smooth="yes"/>
      <point x="730.3133333333334" y="-443.0"/>
      <point x="939.6" y="-336.7333333333333"/>
      <point x="939.6" y="-239.27333333333334" type="qcurve" smooth="yes"/>
      <point x="939.6" y="-152.27333333333334"/>
      <point x="782.6666666666666" y="-84.58666666666667"/>
      <point x="537.7666666666667" y="-75.92" type="qcurve" smooth="yes"/>
      <point x="306.8466666666667" y="-67.25333333333334"/>
      <point x="87.89333333333333" y="38.07333333333333"/>
      <point x="87.89333333333333" y="135.74666666666667" type="qcurve" smooth="yes"/>
      <point x="87.89333333333333" y="216.18666666666667"/>
      <point x="209.02" y="314.5266666666667"/>
      <point x="287.9" y="343.0" type="qcurve"/>
      <point x="324.4666666666667" y="298.0" type="line"/>
      <point x="263.1333333333333" y="273.8533333333333"/>
      <point x="185.35333333333335" y="210.15333333333334"/>
      <point x="185.35333333333335" y="158.17333333333335" type="qcurve" smooth="yes"/>
      <point x="185.35333333333335" y="96.41333333333333"/>
      <point x="336.9733333333333" y="29.413333333333334"/>
      <point x="552.7066666666666" y="22.74666666666667" type="qcurve" smooth="yes"/>
      <point x="816.3933333333333" y="15.413333333333336"/>
      <point x="1045.3733333333332" y="-86.52"/>
      <point x="1045.3733333333332" y="-203.85333333333335" type="qcurve" smooth="yes"/>
      <point x="1045.3733333333332" y="-336.18666666666667"/>
      <point x="797.7" y="-512.6666666666666"/>
      <point x="511.6066666666666" y="-512.6666666666666" type="qcurve" smooth="yes"/>
      <point x="265.9533333333333" y="-512.6666666666666"/>
      <point x="16.0" y="-379.52"/>
    </contour>
    <contour>
      <point x="111.16666666666666" y="633.8466666666666" type="qcurve" smooth="yes"/>
      <point x="111.16666666666666" y="801.64"/>
      <point x="332.48" y="1021.82"/>
      <point x="508.84666666666664" y="1021.82" type="qcurve" smooth="yes"/>
      <point x="685.5466666666666" y="1021.82"/>
      <point x="910.0733333333334" y="819.64"/>
      <point x="910.0733333333334" y="641.5133333333333" type="qcurve" smooth="yes"/>
      <point x="910.74" y="474.44"/>
      <point x="689.82" y="234.13333333333335"/>
      <point x="513.7266666666666" y="234.13333333333335" type="qcurve" smooth="yes"/>
      <point x="336.36" y="234.13333333333335"/>
      <point x="111.16666666666666" y="452.7733333333333"/>
    </contour>
    <contour>
      <point x="226.18" y="643.18" type="qcurve" smooth="yes"/>
      <point x="226.18" y="478.7733333333333"/>
      <point x="381.04" y="302.8"/>
      <point x="509.5133333333334" y="302.8" type="qcurve" smooth="yes"/>
      <point x="646.54" y="302.8"/>
      <point x="793.7866666666666" y="477.1066666666667"/>
      <point x="793.7866666666666" y="639.5133333333333" type="qcurve" smooth="yes"/>
      <point x="793.7866666666666" y="784.64"/>
      <point x="641.26" y="946.4866666666667"/>
      <point x="512.12" y="946.4866666666667" type="qcurve" smooth="yes"/>
      <point x="376.0333333333333" y="946.4866666666667"/>
      <point x="226.18" y="788.64"/>
    </contour>
    <contour>
      <point x="643.6133333333333" y="937.0" type="line"/>
      <point x="628.8533333333334" y="993.3333333333334" type="line"/>
      <point x="1046.9666666666667" y="994.0" type="line"/>
      <point x="1046.9666666666667" y="907.6666666666666" type="line"/>
    </contour>
  </outline>
</glyph>
<glyph name="k" format="2">
  <advance width="1091"/>
  <unicode hex="006B"/>
  <outline>
    <contour>
      <point x="80.86666666666667" y="0.0" type="line"/>
      <point x="80.86666666666667" y="53.333333333333336" type="line"/>
      <point x="237.68" y="83.0" type="line"/>
      <point x="239.68" y="527.0" type="line"/>
      <point x="237.68" y="1410.4266666666667" type="line"/>
      <point x="49.95333333333333" y="1434.6666666666667" type="line"/>
      <point x="49.95333333333333" y="1500.0" type="line"/>
      <point x="312.2933333333333" y="1520.6666666666667" type="line"/>
      <point x="328.2933333333333" y="1517.3333333333333" type="line"/>
      <point x="343.62666666666667" y="1492.6666666666667" type="line"/>
      <point x="343.68666666666667" y="522.4333333333334" type="line"/>
      <point x="349.56666666666666" y="83.0" type="line"/>
      <point x="500.98" y="53.333333333333336" type="line"/>
      <point x="500.98" y="0.0" type="line"/>
    </contour>
    <contour>
      <point x="320.38" y="427.3333333333333" type="line"/>
      <point x="316.5" y="506.6333333333333" type="line"/>
      <point x="766.7133333333334" y="915.3333333333334" type="line"/>
      <point x="624.1733333333334" y="940.0" type="line"/>
      <point x="624.1733333333334" y="1000.0" type="line"/>
      <point x="1031.4466666666667" y="1000.0" type="line"/>
      <point x="1031.4466666666667" y="940.0" type="line"/>
      <point x="875.7866666666666" y="913.0" type="line"/>
    </contour>
    <contour>
      <point x="492.38" y="603.98" type="line"/>
      <point x="570.02" y="673.82" type="line"/>
      <point x="958.28" y="83.0" type="line"/>
      <point x="1097.8733333333332" y="53.333333333333336" type="line"/>
      <point x="1097.8733333333332" y="0.0" type="line"/>
      <point x="822.3666666666667" y="0.0" type="line"/>
      <point x="811.7" y="49.0" type="line"/>
      <point x="841.9066666666666" y="69.66666666666667" type="line"/>
    </contour>
  </outline>
</glyph>
<glyph name="l" format="2">
  <advance width="604"/>
  <unicode hex="006C"/>
  <outline>
    <contour>
      <point x="70.74666666666667" y="0.0" type="line"/>
      <point x="70.74666666666667" y="55.333333333333336" type="line"/>
      <point x="254.11333333333332" y="83.0" type="line"/>
      <point x="256.84" y="527.0" type="line"/>
      <point x="255.4466666666667" y="1410.4266666666667" type="line"/>
      <point x="62.25333333333333" y="1434.6666666666667" type="line"/>
      <point x="62.25333333333333" y="1500.0" type="line"/>
      <point x="331.3933333333333" y="1520.6666666666667" type="line"/>
      <point x="347.3933333333333" y="1517.3333333333333" type="line"/>
      <point x="362.7266666666667" y="1492.6666666666667" type="line"/>
      <point x="361.3933333333333" y="527.0" type="line"/>
      <point x="365.3933333333333" y="83.0" type="line"/>
      <point x="541.6666666666666" y="55.333333333333336" type="line"/>
      <point x="541.6666666666666" y="0.0" type="line"/>
    </contour>
  </outline>
</glyph>
<glyph name="n" format="2">
  <advance width="1231"/>
  <unicode hex="006E"/>
  <outline>
    <contour>
      <point x="80.86666666666667" y="0.0" type="line"/>
      <point x="80.86666666666667" y="53.333333333333336" type="line"/>
      <point x="239.32" y="83.0" type="line"/>
      <point x="241.32" y="527.0" type="line"/>
      <point x="239.32" y="888.6666666666666" type="line"/>
      <point x="71.53333333333333" y="912.0" type="line"/>
      <point x="71.53333333333333" y="979.3333333333334" type="line"/>
      <point x="301.56666666666666" y="1000.0" type="line"/>
      <point x="328.56666666666666" y="979.6666666666666" type="line"/>
      <point x="345.6333333333333" y="838.72" type="line"/>
      <point x="403.62" y="916.0"/>
      <point x="606.4266666666666" y="1020.7"/>
      <point x="731.92" y="1020.7" type="qcurve" smooth="yes"/>
      <point x="870.32" y="1020.7"/>
      <point x="1014.9933333333332" y="881.2666666666667"/>
      <point x="1014.9933333333332" y="743.14" type="qcurve" smooth="yes"/>
      <point x="1014.9933333333332" y="678.44"/>
      <point x="1013.4466666666667" y="539.4133333333334"/>
      <point x="1013.4466666666667" y="529.1" type="qcurve" smooth="yes"/>
      <point x="1018.3266666666667" y="83.0" type="line"/>
      <point x="1169.6266666666668" y="53.333333333333336" type="line"/>
      <point x="1169.6266666666668" y="0.0" type="line"/>
      <point x="758.7" y="0.0" type="line"/>
      <point x="758.7" y="53.333333333333336" type="line"/>
      <point x="906.9866666666667" y="83.0" type="line"/>
      <point x="908.8666666666667" y="529.1" type="line"/>
      <point x="908.8666666666667" y="725.32" type="line" smooth="yes"/>
      <point x="908.8666666666667" y="823.96"/>
      <point x="791.38" y="919.3666666666667"/>
      <point x="682.3533333333334" y="919.3666666666667" type="qcurve" smooth="yes"/>
      <point x="581.9933333333333" y="919.3666666666667"/>
      <point x="396.55333333333334" y="821.2933333333334"/>
      <point x="345.6" y="744.9266666666666" type="qcurve"/>
      <point x="345.3266666666667" y="529.1" type="line"/>
      <point x="351.2066666666667" y="83.0" type="line"/>
      <point x="500.4" y="53.333333333333336" type="line"/>
      <point x="500.4" y="0.0" type="line"/>
    </contour>
  </outline>
</glyph>
<glyph name="o" format="2">
  <advance width="1145"/>
  <unicode hex="006F"/>
  <outline>
    <contour>
      <point x="65.82666666666667" y="500.0" type="qcurve" smooth="yes"/>
      <point x="65.82666666666667" y="717.6"/>
      <point x="342.92" y="1021.82"/>
      <point x="570.48" y="1021.82" type="qcurve" smooth="yes"/>
      <point x="801.04" y="1021.82"/>
      <point x="1078.7133333333334" y="737.6"/>
      <point x="1078.7133333333334" y="506.0" type="qcurve" smooth="yes"/>
      <point x="1078.7133333333334" y="289.4"/>
      <point x="803.68" y="-21.7"/>
      <point x="576.12" y="-21.7" type="qcurve" smooth="yes"/>
      <point x="347.62" y="-21.7"/>
      <point x="65.82666666666667" y="266.4"/>
    </contour>
    <contour>
      <point x="181.2266666666667" y="522.0" type="qcurve" smooth="yes"/>
      <point x="182.2266666666667" y="323.06666666666666"/>
      <point x="395.62" y="49.513333333333335"/>
      <point x="570.6" y="49.513333333333335" type="qcurve" smooth="yes"/>
      <point x="757.6133333333333" y="49.513333333333335"/>
      <point x="960.34" y="299.06666666666666"/>
      <point x="960.34" y="506.6666666666667" type="qcurve" smooth="yes"/>
      <point x="960.34" y="697.9333333333334"/>
      <point x="748.4" y="943.2733333333334"/>
      <point x="572.48" y="943.2733333333334" type="qcurve" smooth="yes"/>
      <point x="382.1333333333333" y="943.2733333333334"/>
      <point x="180.2266666666667" y="719.2666666666667"/>
    </contour>
  </outline>
</glyph>
<glyph name="p" format="2">
  <advance width="1160"/>
  <unicode hex="0070"/>
  <outline>
    <contour>
      <point x="61.38" y="-480.0" type="line"/>
      <point x="61.38" y="-426.6666666666667" type="line"/>
      <point x="217.43333333333334" y="-397.0" type="line"/>
      <point x="220.76666666666665" y="427.0" type="line"/>
      <point x="218.76666666666665" y="888.6666666666666" type="line"/>
      <point x="52.31333333333333" y="912.0" type="line"/>
      <point x="52.31333333333333" y="979.3333333333334" type="line"/>
      <point x="282.9" y="1000.0" type="line"/>
      <point x="309.9" y="979.0" type="line"/>
      <point x="324.5333333333333" y="851.4333333333334" type="line"/>
      <point x="375.0333333333333" y="920.4133333333334"/>
      <point x="551.6466666666666" y="1019.76"/>
      <point x="670.28" y="1019.76" type="qcurve" smooth="yes"/>
      <point x="854.74" y="1019.76"/>
      <point x="1092.7666666666667" y="755.62"/>
      <point x="1092.7666666666667" y="530.0" type="qcurve" smooth="yes"/>
      <point x="1092.7666666666667" y="285.28"/>
      <point x="844.9533333333334" y="-12.0"/>
      <point x="636.6333333333333" y="-12.0" type="qcurve" smooth="yes"/>
      <point x="533.64" y="-12.0"/>
      <point x="371.48" y="46.98"/>
      <point x="326.1666666666667" y="87.62" type="qcurve"/>
      <point x="328.1666666666667" y="-397.0" type="line"/>
      <point x="501.3866666666667" y="-426.6666666666667" type="line"/>
      <point x="501.3866666666667" y="-480.0" type="line"/>
    </contour>
    <contour>
      <point x="326.1066666666667" y="211.62" type="line"/>
      <point x="363.81333333333333" y="146.28666666666666"/>
      <point x="526.8266666666666" y="56.333333333333336"/>
      <point x="631.34" y="56.333333333333336" type="qcurve" smooth="yes"/>
      <point x="784.5866666666666" y="56.333333333333336"/>
      <point x="974.2733333333334" y="289.55333333333334"/>
      <point x="974.2733333333334" y="502.3333333333333" type="qcurve" smooth="yes"/>
      <point x="974.2733333333334" y="700.5333333333334"/>
      <point x="797.0466666666666" y="928.0"/>
      <point x="648.3466666666666" y="928.0" type="qcurve" smooth="yes"/>
      <point x="537.32" y="928.0"/>
      <point x="372.4266666666667" y="838.14"/>
      <point x="324.44" y="768.0066666666667" type="qcurve"/>
      <point x="323.44" y="426.76" type="line"/>
    </contour>
  </outline>
</glyph>
<glyph name="q" format="2">
  <advance width="1151"/>
  <unicode hex="0071"/>
  <outline>
    <contour>
      <point x="67.04" y="486.6666666666667" type="qcurve" smooth="yes"/>
      <point x="67.04" y="733.3866666666667"/>
      <point x="329.18" y="1029.7"/>
      <point x="542.9466666666666" y="1029.7" type="qcurve" smooth="yes"/>
      <point x="643.42" y="1029.7"/>
      <point x="802.6533333333334" y="971.3666666666667"/>
      <point x="844.9066666666666" y="928.1" type="qcurve"/>
      <point x="880.3333333333334" y="1015.76" type="line"/>
      <point x="1129.8" y="992.5066666666667" type="line"/>
      <point x="1129.8" y="929.9333333333334" type="line"/>
      <point x="945.5" y="906.6666666666666" type="line"/>
      <point x="941.9533333333334" y="432.6666666666667" type="line"/>
      <point x="943.8933333333334" y="-397.0" type="line"/>
      <point x="1121.1933333333332" y="-426.6666666666667" type="line"/>
      <point x="1121.1933333333332" y="-480.0" type="line"/>
      <point x="630.18" y="-480.0" type="line"/>
      <point x="630.18" y="-426.6666666666667" type="line"/>
      <point x="833.46" y="-397.0" type="line"/>
      <point x="838.6733333333334" y="148.96" type="line"/>
      <point x="791.7133333333334" y="81.16"/>
      <point x="621.06" y="-14.333333333333332"/>
      <point x="503.3066666666666" y="-14.333333333333332" type="qcurve" smooth="yes"/>
      <point x="314.68" y="-14.333333333333332"/>
      <point x="67.04" y="254.66666666666666"/>
    </contour>
    <contour>
      <point x="185.59333333333333" y="504.3333333333333" type="qcurve" smooth="yes"/>
      <point x="185.59333333333333" y="294.0"/>
      <point x="372.1333333333333" y="70.33333333333334"/>
      <point x="527.7333333333333" y="70.33333333333334" type="qcurve" smooth="yes"/>
      <point x="636.1866666666666" y="70.33333333333334"/>
      <point x="795.1733333333334" y="161.95333333333335"/>
      <point x="839.0066666666667" y="229.02" type="qcurve"/>
      <point x="839.6733333333334" y="831.3" type="line"/>
      <point x="800.24" y="889.4133333333334"/>
      <point x="651.9266666666666" y="960.7"/>
      <point x="548.1333333333333" y="960.7" type="qcurve" smooth="yes"/>
      <point x="382.8333333333333" y="960.7"/>
      <point x="185.59333333333333" y="707.3333333333334"/>
    </contour>
  </outline>
</glyph>
<glyph name="s" format="2">
  <advance width="861"/>
  <unicode hex="0073"/>
  <outline>
    <contour>
      <point x="66.66666666666667" y="0.0" type="line"/>
      <point x="66.66666666666667" y="326.3333333333333" type="line"/>
      <point x="139.24666666666667" y="326.3333333333333" type="line"/>
      <point x="148.73333333333335" y="276.0" type="line" smooth="yes"/>
      <point x="167.82666666666665" y="174.66666666666666"/>
      <point x="330.9" y="55.3"/>
      <point x="446.7133333333333" y="55.24" type="qcurve" smooth="yes"/>
      <point x="566.4933333333333" y="55.24"/>
      <point x="698.3666666666667" y="162.08666666666664"/>
      <point x="698.3666666666667" y="251.33333333333334" type="qcurve" smooth="yes"/>
      <point x="698.3666666666667" y="342.7333333333333"/>
      <point x="557.18" y="443.0333333333333"/>
      <point x="401.4533333333333" y="493.7" type="qcurve" smooth="yes"/>
      <point x="240.39333333333335" y="545.7"/>
      <point x="106.40666666666665" y="671.3333333333334"/>
      <point x="106.40666666666665" y="773.0" type="qcurve" smooth="yes"/>
      <point x="106.40666666666665" y="883.0666666666666"/>
      <point x="259.24666666666667" y="1021.82"/>
      <point x="404.82" y="1021.82" type="qcurve" smooth="yes"/>
      <point x="487.1666666666667" y="1021.82"/>
      <point x="601.1266666666667" y="979.3066666666666"/>
      <point x="637.5066666666667" y="946.9333333333334" type="qcurve"/>
      <point x="657.8133333333334" y="1000.0" type="line"/>
      <point x="723.24" y="1000.0" type="line"/>
      <point x="723.24" y="707.3333333333334" type="line"/>
      <point x="650.8133333333334" y="707.3333333333334" type="line"/>
      <point x="638.5666666666666" y="793.4333333333334" type="line" smooth="yes"/>
      <point x="627.3533333333334" y="877.3066666666666"/>
      <point x="484.2866666666667" y="948.1533333333334"/>
      <point x="402.6933333333333" y="948.1533333333334" type="qcurve" smooth="yes"/>
      <point x="301.25333333333333" y="948.1533333333334"/>
      <point x="204.11333333333334" y="868.0333333333334"/>
      <point x="204.11333333333334" y="799.3333333333334" type="qcurve" smooth="yes"/>
      <point x="204.11333333333334" y="726.0"/>
      <point x="309.98" y="636.1866666666666"/>
      <point x="465.2" y="587.3333333333334" type="qcurve" smooth="yes"/>
      <point x="619.1066666666667" y="538.4533333333334"/>
      <point x="795.3466666666666" y="398.6666666666667"/>
      <point x="795.3466666666666" y="271.6666666666667" type="qcurve" smooth="yes"/>
      <point x="795.3466666666666" y="137.52"/>
      <point x="608.9533333333334" y="-20.093333333333334"/>
      <point x="461.5" y="-20.093333333333334" type="qcurve" smooth="yes"/>
      <point x="357.8533333333333" y="-20.093333333333334"/>
      <point x="217.79333333333335" y="38.633333333333326"/>
      <point x="170.02" y="85.49333333333333" type="qcurve"/>
      <point x="130.64666666666665" y="0.0" type="line"/>
    </contour>
  </outline>
</glyph>
<glyph name="w" format="2">
  <advance width="1522"/>
  <unicode hex="0077"/>
  <outline>
    <contour>
      <point x="-27.4" y="933.3333333333334" type="line"/>
      <point x="-27.4" y="1000.0" type="line"/>
      <point x="387.88" y="1000.0" type="line"/>
      <point x="387.88" y="933.3333333333334" type="line"/>
      <point x="237.7466666666667" y="907.6666666666666" type="line"/>
      <point x="364.6466666666667" y="512.6666666666666" type="line"/>
      <point x="501.2266666666667" y="105.9" type="line"/>
      <point x="635.5" y="475.2733333333333" type="line"/>
      <point x="750.62" y="817.9733333333334" type="line"/>
      <point x="803.1666666666666" y="729.54" type="line"/>
      <point x="696.32" y="438.3333333333333" type="line"/>
      <point x="537.4133333333334" y="-7.333333333333333" type="line"/>
      <point x="441.1066666666667" y="-7.333333333333333" type="line"/>
      <point x="273.3466666666667" y="485.6666666666667" type="line"/>
      <point x="122.5" y="907.6666666666666" type="line"/>
    </contour>
    <contour>
      <point x="526.0666666666666" y="933.3333333333334" type="line"/>
      <point x="526.0666666666666" y="1000.0" type="line"/>
      <point x="934.4666666666666" y="1000.0" type="line"/>
      <point x="934.4666666666666" y="933.3333333333334" type="line"/>
      <point x="785.1333333333333" y="907.0" type="line"/>
      <point x="920.3733333333333" y="487.6666666666667" type="line"/>
      <point x="1040.0466666666669" y="106.81333333333335" type="line"/>
      <point x="1182.4133333333332" y="518.2666666666667" type="line"/>
      <point x="1311.62" y="909.3333333333334" type="line"/>
      <point x="1161.0133333333333" y="933.3333333333334" type="line"/>
      <point x="1161.0133333333333" y="1000.0" type="line"/>
      <point x="1554.6933333333332" y="1000.0" type="line"/>
      <point x="1554.6933333333332" y="933.3333333333334" type="line"/>
      <point x="1401.26" y="907.6666666666666" type="line"/>
      <point x="1249.2933333333333" y="491.0" type="line"/>
      <point x="1079.7466666666667" y="-7.333333333333333" type="line"/>
      <point x="984.7733333333334" y="-7.333333333333333" type="line"/>
      <point x="829.9533333333334" y="461.3333333333333" type="line"/>
      <point x="674.1" y="907.6666666666666" type="line"/>
    </contour>
  </outline>
</glyph>
<glyph name="x" format="2">
  <advance width="1065"/>
  <unicode hex="0078"/>
  <outline>
    <contour>
      <point x="7.22" y="0.0" type="line"/>
      <point x="7.22" y="53.333333333333336" type="line"/>
      <point x="179.62" y="83.0" type="line"/>
      <point x="502.02" y="531.4133333333334" type="line"/>
      <point x="510.8" y="537.8266666666666" type="line"/>
      <point x="768.3933333333333" y="909.3333333333334" type="line"/>
      <point x="603.96" y="933.3333333333334" type="line"/>
      <point x="603.96" y="1000.0" type="line"/>
      <point x="1023.9066666666668" y="1000.0" type="line"/>
      <point x="1023.9066666666668" y="933.3333333333334" type="line"/>
      <point x="866.7266666666666" y="907.6666666666666" type="line"/>
      <point x="552.38" y="483.48" type="line"/>
      <point x="546.6266666666667" y="480.2733333333333" type="line"/>
      <point x="277.2866666666667" y="81.33333333333334" type="line"/>
      <point x="427.82" y="53.333333333333336" type="line"/>
      <point x="427.82" y="0.0" type="line"/>
    </contour>
    <contour>
      <point x="11.513333333333334" y="933.3333333333334" type="line"/>
      <point x="11.513333333333334" y="1000.0" type="line"/>
      <point x="441.3266666666667" y="1000.0" type="line"/>
      <point x="441.3266666666667" y="933.3333333333334" type="line"/>
      <point x="287.3266666666667" y="907.18" type="line"/>
      <point x="559.1666666666666" y="536.6666666666666" type="line"/>
      <point x="894.7066666666666" y="83.0" type="line"/>
      <point x="1061.7666666666667" y="53.333333333333336" type="line"/>
      <point x="1061.7666666666667" y="0.0" type="line"/>
      <point x="620.1933333333334" y="0.0" type="line"/>
      <point x="620.1933333333334" y="53.333333333333336" type="line"/>
      <point x="771.8866666666667" y="83.36666666666667" type="line"/>
      <point x="490.0466666666667" y="473.0" type="line"/>
      <point x="165.17333333333335" y="907.6666666666666" type="line"/>
    </contour>
  </outline>
</glyph>
<glyph name="y" format="2">
  <advance width="1026"/>
  <unicode hex="0079"/>
  <outline>
    <contour>
      <point x="-27.46" y="934.0" type="line"/>
      <point x="-27.4" y="1000.0" type="line"/>
      <point x="385.74666666666667" y="1000.0" type="line"/>
      <point x="385.74666666666667" y="934.0" type="line"/>
      <point x="238.41333333333336" y="906.3333333333334" type="line"/>
      <point x="374.74" y="521.6666666666666" type="line"/>
      <point x="517.44" y="127.4" type="line"/>
      <point x="665.3266666666666" y="527.3333333333334" type="line"/>
      <point x="803.3866666666667" y="908.6666666666666" type="line"/>
      <point x="642.78" y="934.0" type="line"/>
      <point x="642.78" y="1000.0" type="line"/>
      <point x="1045.6333333333332" y="1000.0" type="line"/>
      <point x="1045.6333333333332" y="934.0" type="line"/>
      <point x="891.42" y="907.0" type="line"/>
      <point x="735.2066666666666" y="495.6666666666667" type="line"/>
      <point x="461.7333333333333" y="-238.11333333333334" type="line" smooth="yes"/>
      <point x="412.9533333333333" y="-370.56"/>
      <point x="260.62" y="-489.3333333333333"/>
      <point x="171.61333333333334" y="-489.3333333333333" type="qcurve"/>
      <point x="21.1" y="-465.76" type="line"/>
      <point x="21.1" y="-402.0" type="line"/>
      <point x="116.96666666666667" y="-402.0" type="line" smooth="yes"/>
      <point x="212.67333333333335" y="-402.0"/>
      <point x="357.38" y="-305.22"/>
      <point x="400.62666666666667" y="-184.65333333333334" type="qcurve" smooth="yes"/>
      <point x="465.7933333333333" y="-2.6666666666666665" type="line"/>
      <point x="465.7933333333333" y="-2.6666666666666665" type="line"/>
      <point x="284.9533333333333" y="487.6666666666667" type="line"/>
      <point x="130.2" y="906.3333333333334" type="line"/>
    </contour>
  </outline>
</glyph>
<glyph name="braceleft" format="2">
  <advance width="674"/>
  <unicode hex="007B"/>
  <outline>
    <contour>
      <point x="59.2" y="499.0" type="line"/>
      <point x="59.2" y="571.0" type="line"/>
      <point x="183.06666666666666" y="581.0" type="line" smooth="yes"/>
      <point x="249.06666666666666" y="586.4533333333334"/>
      <point x="330.7333333333333" y="651.3333333333334"/>
      <point x="330.7333333333333" y="726.6666666666666" type="qcurve" smooth="yes"/>
      <point x="330.7333333333333" y="830.6666666666666"/>
      <point x="208.73333333333335" y="1071.2"/>
      <point x="208.73333333333335" y="1193.9333333333332" type="qcurve" smooth="yes"/>
      <point x="208.73333333333335" y="1339.6"/>
      <point x="357.3333333333333" y="1510.0"/>
      <point x="504.6666666666667" y="1510.0" type="qcurve" smooth="yes"/>
      <point x="561.2" y="1510.0"/>
      <point x="627.44" y="1503.06"/>
      <point x="662.2" y="1500.0" type="qcurve"/>
      <point x="662.2" y="1424.0" type="line"/>
      <point x="618.8666666666667" y="1426.0"/>
      <point x="566.3333333333334" y="1427.3333333333333"/>
      <point x="522.0" y="1427.3333333333333" type="qcurve" smooth="yes"/>
      <point x="420.9666666666667" y="1427.3333333333333"/>
      <point x="314.43333333333334" y="1310.6"/>
      <point x="314.43333333333334" y="1202.5333333333333" type="qcurve" smooth="yes"/>
      <point x="314.43333333333334" y="1084.0"/>
      <point x="419.7666666666667" y="859.0"/>
      <point x="419.7666666666667" y="770.0" type="qcurve" smooth="yes"/>
      <point x="419.7666666666667" y="675.6666666666666"/>
      <point x="341.43333333333334" y="566.3333333333334"/>
      <point x="283.7666666666667" y="548.6666666666666" type="qcurve"/>
      <point x="360.7666666666667" y="532.0"/>
      <point x="418.43333333333334" y="430.6666666666667"/>
      <point x="418.43333333333334" y="338.0" type="qcurve" smooth="yes"/>
      <point x="418.43333333333334" y="222.33333333333334"/>
      <point x="295.1" y="-67.33333333333333"/>
      <point x="295.1" y="-178.53333333333333" type="qcurve" smooth="yes"/>
      <point x="295.1" y="-299.8666666666667"/>
      <point x="409.6666666666667" y="-412.6666666666667"/>
      <point x="504.7" y="-412.6666666666667" type="qcurve" smooth="yes"/>
      <point x="551.0333333333334" y="-412.6666666666667"/>
      <point x="608.5333333333334" y="-412.0"/>
      <point x="657.2" y="-408.6666666666667" type="qcurve"/>
      <point x="657.2" y="-484.0" type="line"/>
      <point x="620.8666666666667" y="-487.8466666666667"/>
      <point x="546.8" y="-495.0"/>
      <point x="489.6666666666667" y="-495.0" type="qcurve" smooth="yes"/>
      <point x="344.3333333333333" y="-495.0"/>
      <point x="189.4" y="-328.93333333333334"/>
      <point x="189.4" y="-169.93333333333334" type="qcurve" smooth="yes"/>
      <point x="189.4" y="-50.6"/>
      <point x="326.4" y="252.0"/>
      <point x="326.4" y="380.0" type="qcurve"/>
      <point x="315.06666666666666" y="494.3333333333333" type="line"/>
    </contour>
  </outline>
</glyph>
<glyph name="sterling" format="2">
  <advance width="986"/>
  <unicode hex="00A3"/>
  <outline>
    <contour>
      <point x="519.24" y="502.8" type="qcurve" smooth="yes"/>
      <point x="519.24" y="366.8"/>
      <point x="393.0133333333334" y="151.29333333333335"/>
      <point x="293.1066666666667" y="102.08666666666667" type="qcurve"/>
      <point x="301.1066666666667" y="82.42" type="line"/>
      <point x="771.38" y="81.33333333333334" type="line"/>
      <point x="880.84" y="332.6666666666667" type="line"/>
      <point x="945.5733333333334" y="332.6666666666667" type="line"/>
      <point x="857.24" y="0.0" type="line"/>
      <point x="55.57333333333334" y="0.0" type="line"/>
      <point x="19.57333333333333" y="60.0" type="line"/>
      <point x="49.346666666666664" y="95.28" type="line"/>
      <point x="224.83333333333334" y="87.61333333333334"/>
      <point x="413.7733333333333" y="314.5333333333333"/>
      <point x="413.7733333333333" y="462.0266666666667" type="qcurve" smooth="yes"/>
      <point x="413.7733333333333" y="542.5333333333334"/>
      <point x="340.0733333333333" y="676.0"/>
      <point x="290.0733333333333" y="747.0" type="qcurve" smooth="yes"/>
      <point x="223.07333333333335" y="842.0"/>
      <point x="105.57333333333332" y="1039.0"/>
      <point x="105.57333333333332" y="1146.0" type="qcurve" smooth="yes"/>
      <point x="105.57333333333332" y="1284.8066666666668"/>
      <point x="306.1066666666667" y="1501.0"/>
      <point x="479.44" y="1501.0" type="qcurve" smooth="yes"/>
      <point x="619.3933333333333" y="1501.0"/>
      <point x="805.9266666666666" y="1396.22"/>
      <point x="863.46" y="1319.22" type="qcurve"/>
      <point x="811.64" y="1259.3333333333333" type="line"/>
      <point x="756.7" y="1323.5933333333332"/>
      <point x="600.34" y="1415.0"/>
      <point x="481.9066666666667" y="1415.0" type="qcurve" smooth="yes"/>
      <point x="346.38" y="1415.0"/>
      <point x="207.9066666666667" y="1257.3333333333333"/>
      <point x="207.9066666666667" y="1156.3333333333333" type="qcurve" smooth="yes"/>
      <point x="207.9066666666667" y="1080.3333333333333"/>
      <point x="314.47333333333336" y="893.0"/>
      <point x="379.47333333333336" y="806.0" type="qcurve" smooth="yes"/>
      <point x="436.47333333333336" y="729.0"/>
      <point x="519.24" y="574.4666666666666"/>
    </contour>
    <contour>
      <point x="164.77333333333334" y="608.5" type="line"/>
      <point x="147.44" y="688.2" type="line"/>
      <point x="811.1733333333334" y="688.2" type="line"/>
      <point x="789.84" y="608.5" type="line"/>
    </contour>
  </outline>
</glyph>
<glyph name="currency" format="2">
  <advance width="1296"/>
  <unicode hex="00A4"/>
  <outline>
    <contour>
      <point x="157.73333333333335" y="759.0066666666667" type="qcurve" smooth="yes"/>
      <point x="157.73333333333335" y="966.02"/>
      <point x="421.5866666666667" y="1253.22"/>
      <point x="635.4933333333333" y="1253.22" type="qcurve" smooth="yes"/>
      <point x="850.34" y="1253.22"/>
      <point x="1117.92" y="981.2333333333333"/>
      <point x="1117.92" y="760.9466666666666" type="qcurve" smooth="yes"/>
      <point x="1117.92" y="554.9333333333334"/>
      <point x="851.9466666666666" y="257.46"/>
      <point x="637.4333333333334" y="257.46" type="qcurve" smooth="yes"/>
      <point x="422.5266666666667" y="257.46"/>
      <point x="157.73333333333335" y="536.72"/>
    </contour>
    <contour>
      <point x="251.80666666666667" y="765.22" type="qcurve" smooth="yes"/>
      <point x="252.14" y="585.5733333333334"/>
      <point x="467.4733333333333" y="346.68"/>
      <point x="634.8266666666666" y="346.68" type="qcurve" smooth="yes"/>
      <point x="814.7266666666666" y="346.68"/>
      <point x="1018.5133333333332" y="574.0266666666666"/>
      <point x="1018.5133333333332" y="760.6733333333334" type="qcurve" smooth="yes"/>
      <point x="1018.5133333333332" y="932.6533333333334"/>
      <point x="803.8466666666666" y="1158.06"/>
      <point x="635.4933333333333" y="1158.06" type="qcurve" smooth="yes"/>
      <point x="454.32" y="1158.06"/>
      <point x="250.80666666666667" y="941.5333333333334"/>
    </contour>
    <contour>
      <point x="328.54" y="1062.1133333333332" type="line"/>
      <point x="115.99333333333333" y="1280.8866666666668" type="line"/>
      <point x="184.42666666666665" y="1357.1066666666668" type="line"/>
      <point x="398.3066666666667" y="1137.0" type="line"/>
    </contour>
    <contour>
      <point x="959.1466666666666" y="1052.78" type="line"/>
      <point x="889.38" y="1127.6666666666667" type="line"/>
      <point x="1111.26" y="1357.1066666666668" type="line"/>
      <point x="1179.6933333333332" y="1280.8866666666668" type="line"/>
    </contour>
    <contour>
      <point x="335.2066666666667" y="436.02" type="line"/>
      <point x="404.9733333333333" y="361.1333333333333" type="line"/>
      <point x="184.42666666666665" y="134.36" type="line"/>
      <point x="115.99333333333333" y="210.58" type="line"/>
    </contour>
    <contour>
      <point x="952.48" y="445.3533333333333" type="line"/>
      <point x="1179.6933333333332" y="210.58" type="line"/>
      <point x="1111.26" y="134.36" type="line"/>
      <point x="882.7133333333334" y="370.4666666666667" type="line"/>
    </contour>
  </outline>
</glyph>
<glyph name="yen" format="2">
  <advance width="1266"/>
  <unicode hex="00A5"/>
  <outline>
    <contour>
      <point x="215.26666666666665" y="631.0" type="line"/>
      <point x="195.9333333333333" y="707.6666666666666" type="line"/>
      <point x="1078.0" y="707.6666666666666" type="line"/>
      <point x="1056.6666666666667" y="631.0" type="line"/>
    </contour>
    <contour>
      <point x="583.3333333333334" y="629.1333333333333" type="line"/>
      <point x="387.8066666666667" y="994.6666666666666" type="line"/>
      <point x="170.06666666666666" y="1402.5466666666669" type="line"/>
      <point x="-18.8" y="1431.0266666666666" type="line"/>
      <point x="-18.8" y="1500.0" type="line"/>
      <point x="484.9" y="1500.0" type="line"/>
      <point x="484.9" y="1434.36" type="line"/>
      <point x="297.04" y="1400.0866666666668" type="line"/>
      <point x="473.84" y="1045.0" type="line"/>
      <point x="651.1866666666666" y="726.9466666666666" type="line"/>
      <point x="837.7733333333334" y="1073.3333333333333" type="line"/>
      <point x="1004.0" y="1402.0" type="line"/>
      <point x="802.7333333333333" y="1434.36" type="line"/>
      <point x="802.7333333333333" y="1500.0" type="line"/>
      <point x="1287.78" y="1500.0" type="line"/>
      <point x="1287.78" y="1431.0266666666666" type="line"/>
      <point x="1106.9133333333332" y="1402.2733333333333" type="line"/>
      <point x="902.68" y="1027.6666666666667" type="line"/>
      <point x="690.7333333333333" y="638.8" type="line"/>
      <point x="691.4" y="95.42666666666668" type="line"/>
      <point x="939.7333333333333" y="65.09333333333335" type="line"/>
      <point x="939.7333333333333" y="0.0" type="line"/>
      <point x="330.24" y="0.0" type="line"/>
      <point x="330.24" y="65.09333333333335" type="line"/>
      <point x="582.0" y="95.42666666666668" type="line"/>
    </contour>
    <contour>
      <point x="261.93333333333334" y="351.0" type="line"/>
      <point x="242.6" y="427.6666666666667" type="line"/>
      <point x="1031.3333333333333" y="427.6666666666667" type="line"/>
      <point x="1010.0" y="351.0" type="line"/>
    </contour>
  </outline>
</glyph>
<glyph name="section" format="2">
  <advance width="1082"/>
  <unicode hex="00A7"/>
  <outline>
    <contour>
      <point x="971.06" y="110.33333333333334" type="qcurve" smooth="yes"/>
      <point x="971.06" y="-61.666666666666664"/>
      <point x="750.38" y="-253.0"/>
      <point x="572.46" y="-253.0" type="qcurve" smooth="yes"/>
      <point x="460.12" y="-253.0"/>
      <point x="273.14" y="-182.33333333333334"/>
      <point x="222.44" y="-130.33333333333334" type="qcurve"/>
      <point x="186.3466666666667" y="-235.0" type="line"/>
      <point x="124.22" y="-235.0" type="line"/>
      <point x="124.22" y="196.0" type="line"/>
      <point x="189.62" y="196.0" type="line"/>
      <point x="207.5" y="83.0" type="line" smooth="yes"/>
      <point x="229.71333333333334" y="-55.0"/>
      <point x="438.6666666666667" y="-174.0"/>
      <point x="570.5533333333334" y="-174.0" type="qcurve" smooth="yes"/>
      <point x="709.44" y="-174.0"/>
      <point x="874.3866666666667" y="-37.666666666666664"/>
      <point x="874.3866666666667" y="88.33333333333333" type="qcurve" smooth="yes"/>
      <point x="874.3866666666667" y="212.85333333333335"/>
      <point x="683.6466666666666" y="360.6666666666667"/>
      <point x="513.6666666666666" y="427.6666666666667" type="qcurve" smooth="yes"/>
      <point x="355.62666666666667" y="490.6666666666667"/>
      <point x="172.34666666666666" y="654.0"/>
      <point x="172.34666666666666" y="796.0" type="qcurve" smooth="yes"/>
      <point x="172.34666666666666" y="880.0"/>
      <point x="248.95333333333335" y="1008.3333333333334"/>
      <point x="320.5933333333333" y="1053.0" type="qcurve"/>
      <point x="277.1666666666667" y="1083.3333333333333"/>
      <point x="219.01333333333335" y="1181.6666666666667"/>
      <point x="219.01333333333335" y="1252.3333333333333" type="qcurve" smooth="yes"/>
      <point x="219.01333333333335" y="1362.3333333333333"/>
      <point x="385.66" y="1512.0"/>
      <point x="537.76" y="1512.0" type="qcurve" smooth="yes"/>
      <point x="614.28" y="1512.0"/>
      <point x="748.2866666666666" y="1473.3333333333333"/>
      <point x="790.7733333333334" y="1442.3333333333333" type="qcurve"/>
      <point x="806.6533333333334" y="1480.0" type="line"/>
      <point x="863.78" y="1480.0" type="line"/>
      <point x="863.78" y="1184.0" type="line"/>
      <point x="798.44" y="1184.0" type="line"/>
      <point x="776.8933333333333" y="1309.6666666666667" type="line" smooth="yes"/>
      <point x="764.2866666666666" y="1372.3333333333333"/>
      <point x="628.8533333333334" y="1434.3333333333333"/>
      <point x="538.6666666666666" y="1434.3333333333333" type="qcurve" smooth="yes"/>
      <point x="421.6" y="1434.3333333333333"/>
      <point x="315.74666666666667" y="1347.6666666666667"/>
      <point x="315.74666666666667" y="1278.6666666666667" type="qcurve" smooth="yes"/>
      <point x="315.74666666666667" y="1195.3333333333333"/>
      <point x="431.3533333333333" y="1097.3666666666668"/>
      <point x="598.0066666666667" y="1050.3333333333333" type="qcurve" smooth="yes"/>
      <point x="748.38" y="1008.06"/>
      <point x="928.3" y="874.0"/>
      <point x="928.3" y="737.0" type="qcurve" smooth="yes"/>
      <point x="928.3" y="634.6666666666666"/>
      <point x="801.3533333333334" y="492.6666666666667"/>
      <point x="701.2866666666666" y="461.6666666666667" type="qcurve"/>
      <point x="815.6266666666667" y="410.0"/>
      <point x="971.06" y="241.33333333333334"/>
    </contour>
    <contour>
      <point x="262.1066666666667" y="816.0" type="qcurve" smooth="yes"/>
      <point x="262.1066666666667" y="722.0"/>
      <point x="391.81333333333333" y="585.6666666666666"/>
      <point x="592.8533333333334" y="505.0" type="qcurve"/>
      <point x="683.5866666666666" y="511.0"/>
      <point x="831.5066666666667" y="629.0"/>
      <point x="831.5066666666667" y="723.3333333333334" type="qcurve" smooth="yes"/>
      <point x="831.5066666666667" y="818.6666666666666"/>
      <point x="683.3133333333334" y="917.0"/>
      <point x="498.2733333333333" y="971.0" type="qcurve" smooth="yes"/>
      <point x="468.12" y="980.3333333333334"/>
      <point x="414.75333333333333" y="998.3333333333334"/>
      <point x="391.2066666666667" y="1008.6666666666666" type="qcurve"/>
      <point x="334.84" y="983.3333333333334"/>
      <point x="262.1066666666667" y="884.0"/>
    </contour>
  </outline>
</glyph>
<glyph name="dieresis" format="2">
  <advance width="1024"/>
  <unicode hex="00A8"/>
  <outline>
    <contour>
      <point x="604.1533333333334" y="1241.94" type="qcurve" smooth="yes"/>
      <point x="604.1533333333334" y="1283.2466666666667"/>
      <point x="648.7666666666667" y="1328.5533333333333"/>
      <point x="690.7733333333334" y="1328.5533333333333" type="qcurve" smooth="yes"/>
      <point x="731.78" y="1328.5533333333333"/>
      <point x="779.3933333333333" y="1280.64"/>
      <point x="779.3933333333333" y="1241.94" type="qcurve" smooth="yes"/>
      <point x="779.3933333333333" y="1200.24"/>
      <point x="734.4466666666666" y="1154.9333333333332"/>
      <point x="690.7733333333334" y="1154.9333333333332" type="qcurve" smooth="yes"/>
      <point x="651.1" y="1154.9333333333332"/>
      <point x="604.1533333333334" y="1201.9066666666668"/>
    </contour>
    <contour>
      <point x="244.60666666666665" y="1241.94" type="qcurve" smooth="yes"/>
      <point x="244.60666666666665" y="1283.2466666666667"/>
      <point x="290.55333333333334" y="1328.5533333333333"/>
      <point x="333.2266666666667" y="1328.5533333333333" type="qcurve" smooth="yes"/>
      <point x="372.9" y="1328.5533333333333"/>
      <point x="419.8466666666667" y="1280.64"/>
      <point x="419.8466666666667" y="1241.94" type="qcurve" smooth="yes"/>
      <point x="419.8466666666667" y="1200.24"/>
      <point x="376.2333333333333" y="1154.9333333333332"/>
      <point x="333.2266666666667" y="1154.9333333333332" type="qcurve" smooth="yes"/>
      <point x="292.22" y="1154.9333333333332"/>
      <point x="244.60666666666665" y="1201.9066666666668"/>
    </contour>
  </outline>
</glyph>
<glyph name="ordfeminine" format="2">
  <advance width="932"/>
  <unicode hex="00AA"/>
  <outline>
    <contour>
      <point x="126.32666666666665" y="891.1933333333334" type="qcurve" smooth="yes"/>
      <point x="126.32666666666665" y="1005.3333333333334"/>
      <point x="371.44" y="1173.52"/>
      <point x="650.86" y="1217.2466666666667" type="qcurve"/>
      <point x="655.3466666666666" y="1158.8466666666668" type="line"/>
      <point x="439.46" y="1124.18"/>
      <point x="226.33333333333334" y="1003.16"/>
      <point x="226.33333333333334" y="899.7866666666666" type="qcurve" smooth="yes"/>
      <point x="226.33333333333334" y="823.12"/>
      <point x="316.5133333333333" y="744.24"/>
      <point x="397.31333333333333" y="744.24" type="qcurve" smooth="yes"/>
      <point x="473.36" y="744.24"/>
      <point x="610.56" y="828.3733333333333"/>
      <point x="635.6866666666666" y="877.3133333333334" type="qcurve"/>
      <point x="636.96" y="1203.4533333333331" type="line" smooth="yes"/>
      <point x="637.2333333333333" y="1358.4533333333331"/>
      <point x="533.18" y="1472.5133333333333"/>
      <point x="445.1333333333333" y="1472.5133333333333" type="qcurve" smooth="yes"/>
      <point x="364.78" y="1472.5133333333333"/>
      <point x="280.4533333333333" y="1436.48"/>
      <point x="256.78" y="1407.9666666666667" type="qcurve"/>
      <point x="270.9" y="1393.24"/>
      <point x="290.4733333333333" y="1361.6333333333332"/>
      <point x="292.9266666666667" y="1344.88" type="qcurve" smooth="yes"/>
      <point x="296.4133333333333" y="1318.3066666666668"/>
      <point x="266.62666666666667" y="1281.88"/>
      <point x="238.47333333333333" y="1281.88" type="qcurve" smooth="yes"/>
      <point x="209.22666666666666" y="1281.88"/>
      <point x="173.34666666666666" y="1327.5533333333333"/>
      <point x="173.34666666666666" y="1371.34" type="qcurve" smooth="yes"/>
      <point x="173.34666666666666" y="1438.3066666666668"/>
      <point x="328.3466666666667" y="1542.94"/>
      <point x="453.12666666666667" y="1542.94" type="qcurve" smooth="yes"/>
      <point x="583.7933333333334" y="1542.94"/>
      <point x="728.9" y="1388.7866666666666"/>
      <point x="729.8133333333334" y="1202.12" type="qcurve" smooth="yes"/>
      <point x="733.18" y="756.48" type="line"/>
      <point x="869.4466666666666" y="731.42" type="line"/>
      <point x="869.4466666666666" y="684.7866666666666" type="line"/>
      <point x="666.46" y="684.7866666666666" type="line"/>
      <point x="645.9666666666666" y="711.58" type="line"/>
      <point x="639.24" y="801.5466666666666" type="line"/>
      <point x="607.26" y="750.6133333333333"/>
      <point x="456.36" y="671.6333333333333"/>
      <point x="359.94666666666666" y="671.6333333333333" type="qcurve" smooth="yes"/>
      <point x="247.83333333333331" y="671.6333333333333"/>
      <point x="126.32666666666665" y="794.5333333333334"/>
    </contour>
  </outline>
</glyph>
<glyph name="logicalnot" format="2">
  <advance width="987"/>
  <unicode hex="00AC"/>
  <outline>
    <contour>
      <point x="86.33333333333333" y="731.0533333333334" type="line"/>
      <point x="891.9533333333334" y="731.0533333333334" type="line"/>
      <point x="891.9533333333334" y="237.56666666666666" type="line"/>
      <point x="797.3933333333333" y="237.56666666666666" type="line"/>
      <point x="797.3933333333333" y="634.8" type="line"/>
      <point x="86.33333333333333" y="634.8" type="line"/>
    </contour>
  </outline>
</glyph>
<glyph name="degree" format="2">
  <advance width="830"/>
  <unicode hex="00B0"/>
  <outline>
    <contour>
      <point x="113.22666666666667" y="1245.22" type="qcurve" smooth="yes"/>
      <point x="113.22666666666667" y="1370.32"/>
      <point x="282.94" y="1556.0"/>
      <point x="415.3466666666667" y="1556.0" type="qcurve" smooth="yes"/>
      <point x="547.1466666666666" y="1556.0"/>
      <point x="716.86" y="1370.32"/>
      <point x="716.86" y="1245.22" type="qcurve" smooth="yes"/>
      <point x="716.86" y="1123.06"/>
      <point x="547.1466666666666" y="936.38"/>
      <point x="415.3466666666667" y="936.38" type="qcurve" smooth="yes"/>
      <point x="282.94" y="936.38"/>
      <point x="113.22666666666667" y="1123.06"/>
    </contour>
    <contour>
      <point x="196.71333333333334" y="1245.58" type="qcurve" smooth="yes"/>
      <point x="196.71333333333334" y="1156.18"/>
      <point x="319.7933333333333" y="1020.5333333333334"/>
      <point x="415.3466666666667" y="1020.5333333333334" type="qcurve" smooth="yes"/>
      <point x="512.6266666666667" y="1020.5333333333334"/>
      <point x="634.04" y="1156.18"/>
      <point x="634.04" y="1245.58" type="qcurve" smooth="yes"/>
      <point x="634.04" y="1338.8"/>
      <point x="512.6266666666667" y="1471.6666666666667"/>
      <point x="415.3466666666667" y="1471.6666666666667" type="qcurve" smooth="yes"/>
      <point x="319.7933333333333" y="1471.6666666666667"/>
      <point x="196.71333333333334" y="1338.8"/>
    </contour>
  </outline>
</glyph>
<glyph name="twosuperior" format="2">
  <advance width="787"/>
  <unicode hex="00B2"/>
  <outline>
    <contour>
      <point x="99.54" y="671.0" type="line"/>
      <point x="98.99333333333333" y="743.6666666666666" type="line"/>
      <point x="113.96666666666665" y="845.06"/>
      <point x="225.22666666666666" y="999.98"/>
      <point x="367.9066666666667" y="1076.4" type="qcurve" smooth="yes"/>
      <point x="483.9266666666667" y="1138.16"/>
      <point x="571.5666666666666" y="1239.6666666666667"/>
      <point x="570.7466666666667" y="1304.6666666666667" type="qcurve" smooth="yes"/>
      <point x="569.9266666666666" y="1371.5466666666669"/>
      <point x="469.34" y="1442.3333333333333"/>
      <point x="392.3066666666667" y="1442.3333333333333" type="qcurve" smooth="yes"/>
      <point x="310.9866666666667" y="1442.3333333333333"/>
      <point x="199.22" y="1398.3333333333333"/>
      <point x="144.58" y="1348.3333333333333" type="qcurve"/>
      <point x="100.84" y="1400.1333333333332" type="line"/>
      <point x="149.82" y="1453.98"/>
      <point x="287.74" y="1520.0"/>
      <point x="399.94" y="1520.0" type="qcurve" smooth="yes"/>
      <point x="520.22" y="1520.0"/>
      <point x="672.06" y="1413.0"/>
      <point x="672.06" y="1312.0" type="qcurve" smooth="yes"/>
      <point x="672.06" y="1202.6666666666667"/>
      <point x="511.82666666666665" y="1064.8133333333333"/>
      <point x="414.5866666666667" y="1015.6066666666667" type="qcurve" smooth="yes"/>
      <point x="290.48" y="952.5133333333333"/>
      <point x="198.68" y="835.4"/>
      <point x="189.67333333333335" y="787.04" type="qcurve"/>
      <point x="190.03333333333333" y="762.0" type="line"/>
      <point x="691.94" y="762.0" type="line"/>
      <point x="691.94" y="671.0" type="line"/>
    </contour>
  </outline>
</glyph>
<glyph name="micro" format="2">
  <advance width="1179"/>
  <unicode hex="00B5"/>
  <outline>
    <contour>
      <point x="24.526666666666664" y="-330.3333333333333" type="line"/>
      <point x="60.526666666666664" y="-308.3333333333333" type="line"/>
      <point x="99.52666666666666" y="-150.33333333333334"/>
      <point x="168.7733333333333" y="165.33333333333331"/>
      <point x="186.10666666666665" y="247.66666666666666" type="qcurve" smooth="yes"/>
      <point x="314.7733333333333" y="878.0" type="line"/>
      <point x="149.3733333333333" y="877.0" type="line"/>
      <point x="150.04" y="939.6666666666666" type="line"/>
      <point x="370.0733333333333" y="1000.6666666666666" type="line"/>
      <point x="402.4066666666667" y="1000.6666666666666" type="line"/>
      <point x="430.3466666666667" y="940.2" type="line"/>
      <point x="291.7733333333333" y="273.4533333333333" type="line" smooth="yes"/>
      <point x="274.44" y="190.45333333333335"/>
      <point x="335.2666666666667" y="107.13333333333334"/>
      <point x="429.06666666666666" y="107.13333333333334" type="qcurve" smooth="yes"/>
      <point x="519.0666666666666" y="107.13333333333334"/>
      <point x="744.96" y="242.14666666666668"/>
      <point x="829.2533333333333" y="337.1533333333333" type="qcurve"/>
      <point x="950.7666666666667" y="931.5" type="line"/>
      <point x="919.1133333333333" y="990.3733333333333" type="line"/>
      <point x="1022.46" y="1009.0666666666666" type="line"/>
      <point x="1057.7933333333333" y="930.0666666666666" type="line"/>
      <point x="940.3066666666666" y="382.0" type="line"/>
      <point x="900.0066666666667" y="109.33333333333334" type="line"/>
      <point x="1062.6733333333332" y="112.0" type="line"/>
      <point x="1061.34" y="51.0" type="line"/>
      <point x="837.64" y="-9.666666666666668" type="line"/>
      <point x="795.28" y="63.9" type="line"/>
      <point x="817.16" y="238.68666666666667" type="line"/>
      <point x="733.4133333333334" y="147.01333333333335"/>
      <point x="479.36" y="8.46"/>
      <point x="380.6933333333333" y="8.46" type="qcurve" smooth="yes"/>
      <point x="335.0266666666667" y="8.46"/>
      <point x="265.56666666666666" y="34.913333333333334"/>
      <point x="241.16666666666666" y="60.12" type="qcurve"/>
      <point x="175.26" y="-287.3333333333333" type="line"/>
      <point x="324.5933333333333" y="-295.3333333333333" type="line"/>
      <point x="316.5933333333333" y="-357.6666666666667" type="line"/>
      <point x="47.526666666666664" y="-385.6666666666667" type="line"/>
    </contour>
  </outline>
</glyph>
<glyph name="Thorn" format="2">
  <advance width="1248"/>
  <unicode hex="00DE"/>
  <outline>
    <contour>
      <point x="71.24" y="0.0" type="line"/>
      <point x="71.24" y="65.03333333333335" type="line"/>
      <point x="301.5733333333333" y="100.58" type="line"/>
      <point x="303.5733333333333" y="759.3333333333334" type="line"/>
      <point x="302.24" y="1397.0266666666666" type="line"/>
      <point x="83.24" y="1431.0266666666666" type="line"/>
      <point x="83.24" y="1500.0" type="line"/>
      <point x="645.3133333333334" y="1500.0" type="line"/>
      <point x="645.3133333333334" y="1434.8533333333332" type="line"/>
      <point x="414.52" y="1399.2133333333334" type="line"/>
      <point x="413.9733333333333" y="1260.06" type="line"/>
      <point x="699.3" y="1260.06" type="line" smooth="yes"/>
      <point x="927.9133333333334" y="1260.06"/>
      <point x="1173.88" y="1047.3933333333332"/>
      <point x="1173.88" y="838.7266666666666" type="qcurve" smooth="yes"/>
      <point x="1173.88" y="632.7266666666666"/>
      <point x="918.5466666666666" y="370.3933333333333"/>
      <point x="674.9333333333334" y="370.3933333333333" type="qcurve" smooth="yes"/>
      <point x="584.52" y="370.3933333333333"/>
      <point x="410.5133333333333" y="389.3933333333333"/>
      <point x="363.02" y="399.3933333333333" type="qcurve"/>
      <point x="368.50666666666666" y="471.3933333333333" type="line"/>
      <point x="426.4866666666667" y="456.3933333333333"/>
      <point x="554.7266666666666" y="446.06"/>
      <point x="654.9266666666666" y="446.06" type="qcurve" smooth="yes"/>
      <point x="840.14" y="446.06"/>
      <point x="1055.2933333333333" y="649.7266666666666"/>
      <point x="1055.2933333333333" y="840.06" type="qcurve" smooth="yes"/>
      <point x="1055.2933333333333" y="1011.06"/>
      <point x="849.6866666666666" y="1181.4533333333331"/>
      <point x="669.9" y="1181.3933333333332" type="qcurve" smooth="yes"/>
      <point x="414.24666666666667" y="1181.3333333333333" type="line"/>
      <point x="411.58" y="753.66" type="line"/>
      <point x="413.58" y="99.21333333333334" type="line"/>
      <point x="662.1066666666667" y="65.09333333333335" type="line"/>
      <point x="662.1066666666667" y="0.0" type="line"/>
    </contour>
  </outline>
</glyph>
<glyph name="germandbls" format="2">
  <advance width="1267"/>
  <unicode hex="00DF"/>
  <outline>
    <contour>
      <point x="1011.6533333333333" y="1224.6666666666667" type="qcurve" smooth="yes"/>
      <point x="1011.6533333333333" y="1105.08"/>
      <point x="889.4466666666666" y="972.9933333333333"/>
      <point x="783.16" y="927.6666666666666" type="qcurve" smooth="yes"/>
      <point x="720.24" y="900.5466666666666"/>
      <point x="655.3466666666666" y="834.76"/>
      <point x="655.3466666666666" y="772.0" type="qcurve" smooth="yes"/>
      <point x="655.3466666666666" y="699.3333333333334"/>
      <point x="768.0333333333334" y="621.4866666666667"/>
      <point x="895.72" y="578.8533333333334" type="qcurve" smooth="yes"/>
      <point x="1051.2466666666667" y="527.58"/>
      <point x="1202.28" y="393.4"/>
      <point x="1202.28" y="267.6666666666667" type="qcurve" smooth="yes"/>
      <point x="1202.28" y="140.66666666666666"/>
      <point x="1031.94" y="-22.64"/>
      <point x="893.22" y="-22.64" type="qcurve" smooth="yes"/>
      <point x="799.44" y="-22.64"/>
      <point x="676.44" y="29.98"/>
      <point x="622.76" y="72.16" type="qcurve"/>
      <point x="584.9" y="0.0" type="line"/>
      <point x="528.1333333333333" y="0.0" type="line"/>
      <point x="528.1333333333333" y="339.0" type="line"/>
      <point x="598.54" y="339.0" type="line"/>
      <point x="611.3" y="260.0" type="line" smooth="yes"/>
      <point x="628.2733333333334" y="154.0"/>
      <point x="786.4133333333334" y="51.14666666666667"/>
      <point x="882.3133333333334" y="51.14666666666667" type="qcurve" smooth="yes"/>
      <point x="985.0533333333334" y="51.14666666666667"/>
      <point x="1102.6933333333332" y="157.66666666666666"/>
      <point x="1102.6933333333332" y="256.0" type="qcurve" smooth="yes"/>
      <point x="1102.6933333333332" y="339.4"/>
      <point x="982.7133333333334" y="436.55333333333334"/>
      <point x="852.2333333333333" y="479.7333333333333" type="qcurve" smooth="yes"/>
      <point x="682.9533333333334" y="536.6733333333334"/>
      <point x="558.12" y="662.0"/>
      <point x="558.12" y="759.0" type="qcurve" smooth="yes"/>
      <point x="558.12" y="852.4"/>
      <point x="659.42" y="957.3333333333334"/>
      <point x="765.1666666666666" y="1005.6666666666666" type="qcurve" smooth="yes"/>
      <point x="844.0333333333334" y="1041.3333333333333"/>
      <point x="919.2" y="1140.6666666666667"/>
      <point x="919.2" y="1222.3333333333333" type="qcurve" smooth="yes"/>
      <point x="919.2" y="1314.6666666666667"/>
      <point x="799.6933333333334" y="1436.3333333333333"/>
      <point x="667.7266666666666" y="1436.3333333333333" type="qcurve" smooth="yes"/>
      <point x="502.9666666666667" y="1436.3333333333333"/>
      <point x="348.7333333333333" y="1274.0"/>
      <point x="349.4" y="1101.6666666666667" type="qcurve"/>
      <point x="350.06666666666666" y="527.0" type="line"/>
      <point x="357.06666666666666" y="59.666666666666664" type="line"/>
      <point x="328.7333333333333" y="0.0" type="line"/>
      <point x="51.333333333333336" y="0.0" type="line"/>
      <point x="51.333333333333336" y="53.333333333333336" type="line"/>
      <point x="243.0" y="83.0" type="line"/>
      <point x="247.0" y="527.0" type="line"/>
      <point x="248.0" y="1122.6666666666667" type="line" smooth="yes"/>
      <point x="248.33333333333334" y="1313.72"/>
      <point x="478.0" y="1519.3333333333333"/>
      <point x="675.94" y="1519.3333333333333" type="qcurve" smooth="yes"/>
      <point x="829.8133333333334" y="1519.3333333333333"/>
      <point x="1011.6533333333333" y="1357.6666666666667"/>
    </contour>
  </outline>
</glyph>
<glyph name="eth" format="2">
  <advance width="1146"/>
  <unicode hex="00F0"/>
  <outline>
    <contour>
      <point x="65.82666666666667" y="496.6666666666667" type="qcurve" smooth="yes"/>
      <point x="65.82666666666667" y="714.7466666666667"/>
      <point x="342.8" y="1016.9"/>
      <point x="570.6" y="1016.9" type="qcurve" smooth="yes"/>
      <point x="789.4" y="1016.9"/>
      <point x="1045.7666666666667" y="743.0"/>
      <point x="1062.1333333333332" y="510.0" type="qcurve"/>
      <point x="959.5866666666666" y="510.0" type="line"/>
      <point x="971.72" y="698.2066666666666"/>
      <point x="754.2" y="938.3533333333334"/>
      <point x="572.6" y="938.3533333333334" type="qcurve" smooth="yes"/>
      <point x="381.7733333333333" y="938.3533333333334"/>
      <point x="180.2266666666667" y="715.3333333333334"/>
      <point x="181.2266666666667" y="518.6666666666666" type="qcurve" smooth="yes"/>
      <point x="182.2266666666667" y="320.3333333333333"/>
      <point x="395.74" y="49.18"/>
      <point x="570.54" y="49.513333333333335" type="qcurve" smooth="yes"/>
      <point x="761.58" y="49.84666666666667"/>
      <point x="965.8933333333334" y="315.6666666666667"/>
      <point x="961.8933333333334" y="601.0" type="qcurve" smooth="yes"/>
      <point x="957.2266666666667" y="957.0"/>
      <point x="595.02" y="1416.4"/>
      <point x="283.0866666666667" y="1518.0666666666668" type="qcurve"/>
      <point x="308.36" y="1584.0" type="line"/>
      <point x="687.4" y="1474.0"/>
      <point x="1075.02" y="928.0"/>
      <point x="1075.02" y="600.0" type="qcurve" smooth="yes"/>
      <point x="1075.02" y="303.3533333333333"/>
      <point x="809.4666666666666" y="-21.7"/>
      <point x="575.9666666666666" y="-21.7" type="qcurve" smooth="yes"/>
      <point x="347.1666666666667" y="-21.7"/>
      <point x="65.82666666666667" y="263.6666666666667"/>
    </contour>
    <contour>
      <point x="418.1666666666667" y="1213.4" type="line"/>
      <point x="877.9266666666666" y="1533.4" type="line"/>
      <point x="924.26" y="1473.6666666666667" type="line"/>
      <point x="464.5" y="1153.6666666666667" type="line"/>
    </contour>
  </outline>
</glyph>
<glyph name="kgreenlandic" format="2">
  <advance width="1091"/>
  <unicode hex="0138"/>
  <outline>
    <contour>
      <point x="80.59333333333333" y="0.0" type="line"/>
      <point x="80.59333333333333" y="53.333333333333336" type="line"/>
      <point x="236.58666666666664" y="83.0" type="line"/>
      <point x="238.58666666666664" y="527.0" type="line"/>
      <point x="236.58666666666664" y="910.3333333333334" type="line"/>
      <point x="78.59333333333333" y="937.3333333333334" type="line"/>
      <point x="78.59333333333333" y="1000.0" type="line"/>
      <point x="498.2066666666667" y="1000.0" type="line"/>
      <point x="498.2066666666667" y="937.3333333333334" type="line"/>
      <point x="342.3533333333333" y="911.0" type="line"/>
      <point x="342.4133333333333" y="520.3333333333334" type="line"/>
      <point x="348.3533333333333" y="83.0" type="line"/>
      <point x="498.2066666666667" y="53.333333333333336" type="line"/>
      <point x="498.2066666666667" y="0.0" type="line"/>
    </contour>
    <contour>
      <point x="319.3466666666667" y="377.3333333333333" type="line"/>
      <point x="316.93333333333334" y="460.3" type="line"/>
      <point x="782.32" y="912.0" type="line"/>
      <point x="653.5333333333334" y="934.0" type="line"/>
      <point x="653.5333333333334" y="1000.0" type="line"/>
      <point x="1040.9866666666667" y="1000.0" type="line"/>
      <point x="1040.9866666666667" y="934.0" type="line"/>
      <point x="892.1133333333333" y="909.6666666666666" type="line"/>
    </contour>
    <contour>
      <point x="485.25333333333333" y="567.7333333333333" type="line"/>
      <point x="564.32" y="637.3333333333334" type="line"/>
      <point x="957.1266666666667" y="83.0" type="line"/>
      <point x="1096.3" y="53.333333333333336" type="line"/>
      <point x="1096.3" y="0.0" type="line"/>
      <point x="798.4133333333334" y="0.0" type="line"/>
      <point x="789.9266666666666" y="51.0" type="line"/>
      <point x="830.96" y="77.0" type="line"/>
    </contour>
  </outline>
</glyph>
<glyph name="doubleprimemod" format="2">
  <advance width="789"/>
  <unicode hex="02BA"/>
  <outline>
    <contour>
      <point x="248.13333333333335" y="1502.0" type="line"/>
      <point x="387.1333333333333" y="1502.0" type="line"/>
      <point x="269.74" y="994.5533333333334" type="line"/>
      <point x="194.40666666666667" y="999.5533333333334" type="line"/>
    </contour>
    <contour>
      <point x="547.5333333333334" y="1502.0" type="line"/>
      <point x="686.5333333333334" y="1502.0" type="line"/>
      <point x="569.14" y="994.5533333333334" type="line"/>
      <point x="493.8066666666667" y="999.5533333333334" type="line"/>
    </contour>
  </outline>
</glyph>
<glyph name="caron" format="2">
  <advance width="1024"/>
  <unicode hex="02C7"/>
  <outline>
    <contour>
      <point x="512.0" y="1119.36" type="qcurve" smooth="yes"/>
      <point x="484.8466666666667" y="1119.36"/>
      <point x="448.1466666666667" y="1150.9066666666668"/>
      <point x="415.99333333333334" y="1191.94" type="qcurve" smooth="yes"/>
      <point x="235.0933333333333" y="1413.0733333333333" type="line"/>
      <point x="278.98" y="1456.02" type="line"/>
      <point x="512.0" y="1242.28" type="line"/>
      <point x="745.02" y="1456.02" type="line"/>
      <point x="788.9066666666666" y="1413.0733333333333" type="line"/>
      <point x="608.0066666666667" y="1191.94" type="line" smooth="yes"/>
      <point x="568.0933333333334" y="1143.18"/>
      <point x="539.1533333333334" y="1119.36"/>
    </contour>
  </outline>
</glyph>
<glyph name="breve" format="2">
  <advance width="1024"/>
  <unicode hex="02D8"/>
  <outline>
    <contour>
      <point x="748.8866666666667" y="1401.1266666666668" type="qcurve"/>
      <point x="800.7133333333334" y="1377.76" type="line"/>
      <point x="785.2333333333333" y="1294.0266666666666"/>
      <point x="624.4333333333334" y="1146.98"/>
      <point x="513.0" y="1146.98" type="qcurve" smooth="yes"/>
      <point x="400.9" y="1146.98"/>
      <point x="242.98" y="1280.1466666666668"/>
      <point x="223.28666666666666" y="1375.4866666666667" type="qcurve"/>
      <point x="278.3866666666667" y="1402.1266666666668" type="line"/>
      <point x="306.0266666666667" y="1345.5533333333333"/>
      <point x="423.4733333333333" y="1252.6333333333332"/>
      <point x="514.0" y="1252.0866666666668" type="qcurve" smooth="yes"/>
      <point x="606.3733333333333" y="1252.6333333333332"/>
      <point x="726.2466666666667" y="1346.8266666666668"/>
    </contour>
  </outline>
</glyph>
<glyph name="tilde" format="2">
  <advance width="1024"/>
  <unicode hex="02DC"/>
  <outline>
    <contour>
      <point x="207.0333333333333" y="1238.0666666666668" type="line"/>
      <point x="235.4333333333333" y="1288.6466666666668"/>
      <point x="336.8533333333333" y="1374.98"/>
      <point x="396.5866666666667" y="1374.98" type="qcurve" smooth="yes"/>
      <point x="432.26" y="1374.98"/>
      <point x="494.0" y="1351.8266666666668"/>
      <point x="527.0066666666667" y="1331.28" type="qcurve" smooth="yes"/>
      <point x="549.8" y="1317.0666666666668"/>
      <point x="624.6333333333333" y="1274.7"/>
      <point x="660.9133333333334" y="1274.7" type="qcurve" smooth="yes"/>
      <point x="694.86" y="1274.7"/>
      <point x="760.54" y="1318.6666666666667"/>
      <point x="780.7866666666666" y="1348.76" type="qcurve"/>
      <point x="819.7" y="1304.84" type="line"/>
      <point x="787.9666666666666" y="1243.32"/>
      <point x="694.46" y="1175.4466666666667"/>
      <point x="646.88" y="1175.4466666666667" type="qcurve" smooth="yes"/>
      <point x="605.0533333333334" y="1175.4466666666667"/>
      <point x="523.0666666666666" y="1211.3"/>
      <point x="499.1533333333333" y="1227.8466666666668" type="qcurve" smooth="yes"/>
      <point x="471.0866666666667" y="1246.7266666666667"/>
      <point x="407.4066666666667" y="1275.5466666666669"/>
      <point x="382.6133333333333" y="1275.5466666666669" type="qcurve" smooth="yes"/>
      <point x="341.4533333333333" y="1275.5466666666669"/>
      <point x="266.9533333333333" y="1216.6333333333332"/>
      <point x="250.86" y="1194.1466666666668" type="qcurve"/>
    </contour>
  </outline>
</glyph>
<glyph name="dblgravecomb" format="2">
  <advance width="1024"/>
  <unicode hex="0311"/>
  <outline>
    <contour>
      <point x="153.69333333333333" y="1403.84" type="qcurve"/>
      <point x="154.11333333333332" y="1425.7266666666667"/>
      <point x="189.54" y="1456.4933333333333"/>
      <point x="213.78666666666666" y="1456.1933333333332" type="qcurve" smooth="yes"/>
      <point x="239.79333333333335" y="1455.8933333333332"/>
      <point x="279.22" y="1421.8133333333333"/>
      <point x="301.8333333333333" y="1393.08" type="qcurve" smooth="yes"/>
      <point x="490.5133333333333" y="1157.52" type="line"/>
      <point x="447.44" y="1115.3533333333332" type="line"/>
      <point x="207.56666666666666" y="1318.8866666666668" type="line" smooth="yes"/>
      <point x="185.35333333333335" y="1338.1"/>
      <point x="153.2733333333333" y="1381.5933333333332"/>
    </contour>
    <contour>
      <point x="452.88" y="1403.78" type="qcurve"/>
      <point x="453.3" y="1425.7266666666667"/>
      <point x="488.7266666666667" y="1456.4933333333333"/>
      <point x="512.9733333333334" y="1456.1933333333332" type="qcurve" smooth="yes"/>
      <point x="538.98" y="1455.8333333333333"/>
      <point x="578.68" y="1421.54"/>
      <point x="601.2933333333334" y="1392.8066666666668" type="qcurve" smooth="yes"/>
      <point x="789.7" y="1157.52" type="line"/>
      <point x="746.6266666666667" y="1115.3533333333332" type="line"/>
      <point x="506.7533333333334" y="1318.8866666666668" type="line" smooth="yes"/>
      <point x="484.6" y="1338.1"/>
      <point x="452.46" y="1381.5933333333332"/>
    </contour>
  </outline>
</glyph>
<glyph name="horncomb" format="2">
  <advance width="1024"/>
  <unicode hex="031B"/>
  <outline>
    <contour>
      <point x="1.52" y="998.26" type="line"/>
      <point x="35.78" y="991.78"/>
      <point x="88.48666666666665" y="983.3"/>
      <point x="143.73333333333332" y="983.3" type="qcurve" smooth="yes"/>
      <point x="208.95333333333332" y="983.3"/>
      <point x="281.96" y="1030.84"/>
      <point x="281.96" y="1082.24" type="qcurve" smooth="yes"/>
      <point x="281.96" y="1116.82"/>
      <point x="271.4133333333333" y="1195.74"/>
      <point x="253.5333333333333" y="1251.14" type="qcurve"/>
      <point x="326.94" y="1251.14" type="line"/>
      <point x="345.3066666666667" y="1209.0733333333333"/>
      <point x="370.6133333333333" y="1116.2733333333333"/>
      <point x="370.6133333333333" y="1073.8133333333333" type="qcurve" smooth="yes"/>
      <point x="370.6133333333333" y="984.8933333333333"/>
      <point x="262.93333333333334" y="898.74"/>
      <point x="157.68666666666667" y="898.74" type="qcurve" smooth="yes"/>
      <point x="119.83333333333333" y="898.74"/>
      <point x="45.026666666666664" y="913.3733333333333"/>
      <point x="1.52" y="928.58" type="qcurve"/>
    </contour>
  </outline>
</glyph>
<glyph name="dotbelowcomb" format="2">
  <advance width="1024"/>
  <unicode hex="0323"/>
  <outline>
    <contour>
      <point x="418.5933333333333" y="-255.26" type="qcurve" smooth="yes"/>
      <point x="418.5933333333333" y="-211.10666666666665"/>
      <point x="465.99333333333334" y="-162.8"/>
      <point x="511.3333333333333" y="-162.8" type="qcurve" smooth="yes"/>
      <point x="554.7333333333333" y="-162.8"/>
      <point x="605.4066666666666" y="-213.77333333333334"/>
      <point x="605.4066666666666" y="-255.26" type="qcurve" smooth="yes"/>
      <point x="605.4066666666666" y="-299.62666666666667"/>
      <point x="558.0066666666667" y="-347.99333333333334"/>
      <point x="511.3333333333333" y="-347.99333333333334" type="qcurve" smooth="yes"/>
      <point x="468.6" y="-347.99333333333334"/>
      <point x="418.5933333333333" y="-297.68666666666667"/>
    </contour>
  </outline>
</glyph>
<glyph name="dieresistonos" format="2">
  <advance width="1142"/>
  <unicode hex="0385"/>
  <anchor x="560.4733333333334" y="1000.0" name="_GRKtop"/>
  <outline>
    <contour>
      <point x="326.56" y="1162.5866666666668" type="qcurve" smooth="yes"/>
      <point x="285.55333333333334" y="1162.5866666666668"/>
      <point x="237.94" y="1209.56"/>
      <point x="237.94" y="1249.5933333333332" type="qcurve" smooth="yes"/>
      <point x="237.94" y="1290.9"/>
      <point x="283.8866666666667" y="1336.2066666666667"/>
      <point x="326.56" y="1336.2066666666667" type="qcurve" smooth="yes"/>
      <point x="366.2333333333333" y="1336.2066666666667"/>
      <point x="413.18" y="1288.2933333333333"/>
      <point x="413.18" y="1249.5933333333332" type="qcurve" smooth="yes"/>
      <point x="413.18" y="1207.8933333333332"/>
      <point x="369.56666666666666" y="1162.5866666666668"/>
    </contour>
    <contour>
      <point x="571.4133333333334" y="1158.5266666666666" type="line"/>
      <point x="516.8" y="1167.74" type="line"/>
      <point x="561.26" y="1607.42" type="line"/>
      <point x="666.12" y="1612.6266666666668" type="line"/>
      <point x="688.48" y="1587.0466666666669" type="line"/>
    </contour>
    <contour>
      <point x="815.24" y="1162.5866666666668" type="qcurve" smooth="yes"/>
      <point x="775.5666666666666" y="1162.5866666666668"/>
      <point x="728.62" y="1209.56"/>
      <point x="728.62" y="1249.5933333333332" type="qcurve" smooth="yes"/>
      <point x="728.62" y="1290.9"/>
      <point x="773.2333333333333" y="1336.2066666666667"/>
      <point x="815.24" y="1336.2066666666667" type="qcurve" smooth="yes"/>
      <point x="856.2466666666667" y="1336.2066666666667"/>
      <point x="903.86" y="1288.2933333333333"/>
      <point x="903.86" y="1249.5933333333332" type="qcurve" smooth="yes"/>
      <point x="903.86" y="1207.8933333333332"/>
      <point x="858.9133333333334" y="1162.5866666666668"/>
    </contour>
  </outline>
</glyph>
<glyph name="Gamma" format="2">
  <advance width="1160"/>
  <unicode hex="0393"/>
  <outline>
    <contour>
      <point x="89.0" y="0.0" type="line"/>
      <point x="89.0" y="65.09333333333335" type="line"/>
      <point x="308.0" y="100.64" type="line"/>
      <point x="309.3333333333333" y="761.64" type="line"/>
      <point x="308.0" y="1397.0266666666666" type="line"/>
      <point x="89.0" y="1431.0266666666666" type="line"/>
      <point x="89.0" y="1500.0" type="line"/>
      <point x="1084.8733333333332" y="1500.0" type="line"/>
      <point x="1084.8733333333332" y="1101.7333333333333" type="line"/>
      <point x="1012.8066666666666" y="1101.7333333333333" type="line"/>
      <point x="966.32" y="1422.6666666666667" type="line"/>
      <point x="446.1933333333333" y="1422.6666666666667" type="line"/>
      <point x="418.7333333333333" y="1398.6666666666667" type="line"/>
      <point x="417.4" y="762.0" type="line"/>
      <point x="418.7333333333333" y="99.21333333333334" type="line"/>
      <point x="667.9266666666666" y="65.09333333333335" type="line"/>
      <point x="667.9266666666666" y="0.0" type="line"/>
    </contour>
  </outline>
</glyph>
<glyph name="Theta" format="2">
  <advance width="1630"/>
  <unicode hex="0398"/>
  <outline>
    <contour>
      <point x="818.78" y="-30.46" type="qcurve" smooth="yes"/>
      <point x="496.86" y="-30.46"/>
      <point x="82.37333333333333" y="396.42"/>
      <point x="82.37333333333333" y="737.24" type="qcurve" smooth="yes"/>
      <point x="82.37333333333333" y="1068.12"/>
      <point x="485.16" y="1520.0"/>
      <point x="814.9" y="1520.0" type="qcurve" smooth="yes"/>
      <point x="1144.64" y="1520.0"/>
      <point x="1547.3666666666668" y="1097.12"/>
      <point x="1547.3666666666668" y="752.24" type="qcurve" smooth="yes"/>
      <point x="1547.3666666666668" y="423.36"/>
      <point x="1148.58" y="-30.46"/>
    </contour>
    <contour>
      <point x="818.84" y="56.14666666666667" type="qcurve" smooth="yes"/>
      <point x="1111.6133333333332" y="56.14666666666667"/>
      <point x="1431.8733333333332" y="422.36"/>
      <point x="1431.8733333333332" y="747.9066666666666" type="qcurve" smooth="yes"/>
      <point x="1431.8733333333332" y="1043.5133333333333"/>
      <point x="1098.82" y="1430.7266666666667"/>
      <point x="818.84" y="1430.7266666666667" type="qcurve" smooth="yes"/>
      <point x="524.0666666666666" y="1430.7266666666667"/>
      <point x="198.59333333333333" y="1072.5133333333333"/>
      <point x="198.59333333333333" y="776.5733333333334" type="qcurve" smooth="yes"/>
      <point x="198.59333333333333" y="461.0266666666667"/>
      <point x="541.8" y="56.14666666666667"/>
    </contour>
    <contour>
      <point x="397.56666666666666" y="682.2666666666667" type="line"/>
      <point x="397.56666666666666" y="801.8666666666667" type="line"/>
      <point x="408.4666666666667" y="801.8666666666667" type="line"/>
      <point x="809.9666666666666" y="783.2666666666667" type="line"/>
      <point x="820.8666666666667" y="783.2666666666667" type="line"/>
      <point x="1222.4266666666667" y="801.8666666666667" type="line"/>
      <point x="1233.3866666666668" y="801.8666666666667" type="line"/>
      <point x="1233.3866666666668" y="682.2666666666667" type="line"/>
      <point x="1222.4266666666667" y="682.2666666666667" type="line"/>
      <point x="820.8666666666667" y="700.8666666666667" type="line"/>
      <point x="809.9666666666666" y="700.8666666666667" type="line"/>
      <point x="408.4666666666667" y="682.2666666666667" type="line"/>
    </contour>
  </outline>
</glyph>
<glyph name="Xi" format="2">
  <advance width="1386"/>
  <unicode hex="039E"/>
  <guideline x="697.0" y="888.6666666666666" angle="90.0" identifier="GCiNqpylsp"/>
  <outline>
    <contour>
      <point x="116.24666666666667" y="0.0" type="line"/>
      <point x="66.87333333333335" y="410.8" type="line"/>
      <point x="141.72" y="410.8" type="line"/>
      <point x="225.34" y="104.66666666666667" type="line"/>
      <point x="692.0333333333334" y="102.33333333333334" type="line"/>
      <point x="1160.7266666666667" y="104.66666666666667" type="line"/>
      <point x="1244.3466666666668" y="410.8" type="line"/>
      <point x="1319.1933333333332" y="410.8" type="line"/>
      <point x="1269.82" y="0.0" type="line"/>
    </contour>
    <contour>
      <point x="316.4733333333333" y="519.2666666666667" type="line"/>
      <point x="316.4733333333333" y="954.6" type="line"/>
      <point x="385.56" y="954.6" type="line"/>
      <point x="414.50666666666666" y="788.9333333333334" type="line"/>
      <point x="693.3666666666667" y="778.9933333333333" type="line"/>
      <point x="971.56" y="788.9333333333334" type="line"/>
      <point x="1000.5066666666667" y="954.6" type="line"/>
      <point x="1069.5933333333332" y="954.6" type="line"/>
      <point x="1069.5933333333332" y="519.2666666666667" type="line"/>
      <point x="1000.5066666666667" y="519.2666666666667" type="line"/>
      <point x="971.56" y="684.9333333333334" type="line"/>
      <point x="693.3666666666667" y="694.8733333333333" type="line"/>
      <point x="414.50666666666666" y="684.9333333333334" type="line"/>
      <point x="385.56" y="519.2666666666667" type="line"/>
    </contour>
    <contour>
      <point x="119.3" y="1101.7333333333333" type="line"/>
      <point x="119.3" y="1500.0" type="line"/>
      <point x="1266.7666666666667" y="1500.0" type="line"/>
      <point x="1266.7666666666667" y="1101.7333333333333" type="line"/>
      <point x="1194.7" y="1101.7333333333333" type="line"/>
      <point x="1152.2733333333333" y="1392.0" type="line"/>
      <point x="692.0333333333334" y="1394.3333333333333" type="line"/>
      <point x="233.79333333333335" y="1392.0" type="line"/>
      <point x="191.36666666666667" y="1101.7333333333333" type="line"/>
    </contour>
  </outline>
</glyph>
<glyph name="Pi" format="2">
  <advance width="1653"/>
  <unicode hex="03A0"/>
  <outline>
    <contour>
      <point x="83.24" y="0.0" type="line"/>
      <point x="83.24" y="65.09333333333335" type="line"/>
      <point x="301.5733333333333" y="100.09333333333335" type="line"/>
      <point x="303.5733333333333" y="754.0" type="line"/>
      <point x="301.5733333333333" y="1397.0266666666666" type="line"/>
      <point x="83.24" y="1431.0266666666666" type="line"/>
      <point x="83.24" y="1500.0" type="line"/>
      <point x="1569.8333333333333" y="1500.0" type="line"/>
      <point x="1569.8333333333333" y="1431.0266666666666" type="line"/>
      <point x="1351.5" y="1397.0266666666666" type="line"/>
      <point x="1349.5" y="754.0" type="line"/>
      <point x="1351.5" y="100.09333333333335" type="line"/>
      <point x="1569.8333333333333" y="65.09333333333335" type="line"/>
      <point x="1569.8333333333333" y="0.0" type="line"/>
      <point x="1014.3666666666668" y="0.0" type="line"/>
      <point x="1014.3666666666668" y="65.09333333333335" type="line"/>
      <point x="1238.7666666666667" y="100.09333333333335" type="line"/>
      <point x="1240.7666666666667" y="754.0" type="line"/>
      <point x="1238.7666666666667" y="1397.0266666666666" type="line"/>
      <point x="827.8666666666667" y="1400.0266666666666" type="line"/>
      <point x="413.76" y="1397.0266666666666" type="line"/>
      <point x="412.3066666666667" y="754.0" type="line"/>
      <point x="414.3066666666667" y="100.09333333333335" type="line"/>
      <point x="638.7066666666666" y="65.09333333333335" type="line"/>
      <point x="638.7066666666666" y="0.0" type="line"/>
    </contour>
  </outline>
</glyph>
<glyph name="Phi" format="2">
  <advance width="1522"/>
  <unicode hex="03A6"/>
  <outline>
    <contour>
      <point x="551.4533333333334" y="-23.76" type="line"/>
      <point x="551.4533333333334" y="43.84666666666667" type="line"/>
      <point x="741.12" y="77.84666666666668" type="line"/>
      <point x="742.7266666666666" y="260.5133333333333" type="line"/>
      <point x="749.0933333333334" y="260.5133333333333" type="line"/>
      <point x="749.64" y="741.9333333333334" type="line"/>
      <point x="839.2666666666667" y="741.9333333333334" type="line"/>
      <point x="839.8133333333334" y="260.7866666666667" type="line"/>
      <point x="846.18" y="260.5133333333333" type="line"/>
      <point x="847.6666666666666" y="77.84666666666668" type="line"/>
      <point x="1038.12" y="43.84666666666667" type="line"/>
      <point x="1038.12" y="-23.76" type="line"/>
    </contour>
    <contour>
      <point x="749.64" y="741.9333333333334" type="line"/>
      <point x="749.0933333333334" y="1235.4533333333331" type="line"/>
      <point x="742.7266666666666" y="1235.7266666666667" type="line"/>
      <point x="741.12" y="1418.3933333333332" type="line"/>
      <point x="550.7866666666666" y="1452.3933333333332" type="line"/>
      <point x="550.7866666666666" y="1520.0" type="line"/>
      <point x="1037.4533333333331" y="1520.0" type="line"/>
      <point x="1037.4533333333331" y="1452.3933333333332" type="line"/>
      <point x="847.6666666666666" y="1418.3933333333332" type="line"/>
      <point x="846.18" y="1235.7266666666667" type="line"/>
      <point x="839.8133333333334" y="1235.7266666666667" type="line"/>
      <point x="839.2666666666667" y="741.9333333333334" type="line"/>
    </contour>
    <contour>
      <point x="773.3733333333333" y="231.78666666666666" type="line"/>
      <point x="389.9" y="237.54"/>
      <point x="81.77333333333333" y="501.44"/>
      <point x="81.77333333333333" y="714.6133333333333" type="qcurve" smooth="yes"/>
      <point x="81.77333333333333" y="966.4466666666666"/>
      <point x="418.0133333333333" y="1262.12"/>
      <point x="773.3733333333333" y="1265.0" type="qcurve"/>
      <point x="773.3733333333333" y="1182.9333333333332" type="line"/>
      <point x="467.7733333333333" y="1182.2666666666667"/>
      <point x="195.86666666666667" y="947.9866666666667"/>
      <point x="195.86666666666667" y="724.9533333333334" type="qcurve" smooth="yes"/>
      <point x="195.86666666666667" y="522.1066666666667"/>
      <point x="453.1066666666667" y="319.12"/>
      <point x="773.3733333333333" y="311.6666666666667" type="qcurve"/>
    </contour>
    <contour>
      <point x="814.8666666666667" y="231.78666666666666" type="qcurve"/>
      <point x="814.8666666666667" y="311.6666666666667" type="line"/>
      <point x="1120.74" y="312.3333333333333"/>
      <point x="1392.6466666666668" y="546.7333333333333"/>
      <point x="1392.6466666666668" y="769.7666666666667" type="qcurve" smooth="yes"/>
      <point x="1392.6466666666668" y="972.6133333333333"/>
      <point x="1135.4066666666668" y="1175.48"/>
      <point x="814.8666666666667" y="1182.9333333333332" type="qcurve"/>
      <point x="814.8666666666667" y="1265.0" type="line"/>
      <point x="1198.6133333333332" y="1259.2466666666667"/>
      <point x="1506.74" y="995.4666666666666"/>
      <point x="1506.74" y="782.2933333333334" type="qcurve" smooth="yes"/>
      <point x="1506.74" y="530.46"/>
      <point x="1170.5" y="234.66666666666666"/>
    </contour>
  </outline>
</glyph>
<glyph name="Psi" format="2">
  <advance width="1836"/>
  <unicode hex="03A8"/>
  <outline>
    <contour>
      <point x="633.6933333333334" y="0.0" type="line"/>
      <point x="633.6933333333334" y="65.09333333333335" type="line"/>
      <point x="861.4266666666666" y="100.09333333333335" type="line"/>
      <point x="862.1866666666666" y="511.0133333333333" type="line"/>
      <point x="865.2533333333333" y="511.0133333333333" type="line"/>
      <point x="865.2533333333333" y="769.58" type="line"/>
      <point x="860.8266666666666" y="1397.0266666666666" type="line"/>
      <point x="666.4266666666666" y="1431.0266666666666" type="line"/>
      <point x="666.4266666666666" y="1500.0" type="line"/>
      <point x="1167.96" y="1500.0" type="line"/>
      <point x="1167.96" y="1431.0266666666666" type="line"/>
      <point x="973.56" y="1397.0266666666666" type="line"/>
      <point x="969.1333333333333" y="769.58" type="line"/>
      <point x="969.1333333333333" y="511.0133333333333" type="line"/>
      <point x="972.2" y="511.0133333333333" type="line"/>
      <point x="972.96" y="100.36666666666667" type="line"/>
      <point x="1200.6933333333332" y="65.09333333333335" type="line"/>
      <point x="1200.6933333333332" y="0.0" type="line"/>
    </contour>
    <contour>
      <point x="891.5066666666667" y="470.6666666666667" type="line"/>
      <point x="567.6533333333334" y="482.8533333333333"/>
      <point x="313.36" y="715.72"/>
      <point x="290.5333333333333" y="1012.2" type="qcurve" smooth="yes"/>
      <point x="258.7" y="1397.0266666666666" type="line"/>
      <point x="59.10666666666666" y="1431.0266666666666" type="line"/>
      <point x="59.10666666666666" y="1500.0" type="line"/>
      <point x="346.7333333333333" y="1500.0" type="line"/>
      <point x="359.8533333333333" y="1490.76" type="line"/>
      <point x="399.75333333333333" y="1014.6866666666666" type="line" smooth="yes"/>
      <point x="423.37333333333333" y="737.68"/>
      <point x="642.1266666666667" y="562.1333333333333"/>
      <point x="891.5066666666667" y="554.1333333333333" type="qcurve"/>
    </contour>
    <contour>
      <point x="942.88" y="470.6666666666667" type="qcurve"/>
      <point x="942.88" y="554.1333333333333" type="line"/>
      <point x="1192.26" y="562.1333333333333"/>
      <point x="1412.7133333333334" y="737.68"/>
      <point x="1434.6333333333332" y="1014.6866666666666" type="qcurve" smooth="yes"/>
      <point x="1474.5333333333333" y="1490.76" type="line"/>
      <point x="1487.6533333333332" y="1500.0" type="line"/>
      <point x="1775.28" y="1500.0" type="line"/>
      <point x="1775.28" y="1431.0266666666666" type="line"/>
      <point x="1575.6866666666667" y="1397.0266666666666" type="line"/>
      <point x="1543.8533333333332" y="1012.2" type="line" smooth="yes"/>
      <point x="1518.84" y="715.9933333333333"/>
      <point x="1266.7333333333333" y="482.8533333333333"/>
    </contour>
  </outline>
</glyph>
<glyph name="Omega" format="2">
  <advance width="1533"/>
  <unicode hex="03A9"/>
  <anchor x="117.61333333333333" y="1500.0" name="GRKtopleft"/>
  <outline>
    <contour>
      <point x="64.29333333333332" y="0.0" type="line"/>
      <point x="21.26" y="373.2" type="line"/>
      <point x="92.82666666666667" y="373.2" type="line"/>
      <point x="170.32" y="88.33333333333334" type="line"/>
      <point x="539.78" y="87.66666666666667" type="line"/>
      <point x="552.48" y="226.24" type="line"/>
      <point x="345.46" y="284.34"/>
      <point x="80.57333333333332" y="610.7133333333334"/>
      <point x="80.69333333333333" y="858.0533333333334" type="qcurve" smooth="yes"/>
      <point x="80.57333333333332" y="1143.78"/>
      <point x="456.8" y="1520.0"/>
      <point x="768.3666666666667" y="1520.0" type="qcurve" smooth="yes"/>
      <point x="1084.9533333333331" y="1520.0"/>
      <point x="1453.6466666666668" y="1166.6666666666667"/>
      <point x="1453.6466666666668" y="869.3333333333334" type="qcurve" smooth="yes"/>
      <point x="1453.6466666666668" y="622.3333333333334"/>
      <point x="1179.2933333333333" y="277.24666666666667"/>
      <point x="978.7666666666667" y="224.66666666666666" type="qcurve"/>
      <point x="993.2266666666667" y="87.66666666666667" type="line"/>
      <point x="1362.2933333333333" y="88.33333333333334" type="line"/>
      <point x="1440.06" y="373.2" type="line"/>
      <point x="1511.6266666666668" y="373.2" type="line"/>
      <point x="1468.5933333333332" y="0.0" type="line"/>
      <point x="912.68" y="0.0" type="line"/>
      <point x="884.6133333333333" y="283.3333333333333" type="line"/>
      <point x="1110.8533333333332" y="330.8266666666667"/>
      <point x="1337.4866666666667" y="631.0"/>
      <point x="1337.4866666666667" y="865.0" type="qcurve" smooth="yes"/>
      <point x="1337.4866666666667" y="1122.0466666666669"/>
      <point x="1033.3066666666668" y="1432.6666666666667"/>
      <point x="766.7" y="1432.6666666666667" type="qcurve" smooth="yes"/>
      <point x="505.0333333333333" y="1431.7266666666667"/>
      <point x="199.4" y="1142.0466666666669"/>
      <point x="197.52" y="867.6866666666666" type="qcurve" smooth="yes"/>
      <point x="198.73333333333335" y="641.9266666666666"/>
      <point x="443.4133333333333" y="335.06666666666666"/>
      <point x="649.06" y="285.3333333333333" type="qcurve"/>
      <point x="619.66" y="0.0" type="line"/>
    </contour>
  </outline>
</glyph>
<glyph name="gamma" format="2">
  <advance width="962"/>
  <unicode hex="03B3"/>
  <outline>
    <contour>
      <point x="474.1666666666667" y="-480.0" type="line"/>
      <point x="447.1666666666667" y="-459.6666666666667" type="line"/>
      <point x="468.5933333333333" y="22.666666666666668" type="line"/>
      <point x="485.24666666666667" y="22.666666666666668" type="line"/>
      <point x="669.36" y="528.0" type="line"/>
      <point x="815.1533333333334" y="989.2133333333334" type="line"/>
      <point x="917.4333333333334" y="1000.0" type="line"/>
      <point x="944.4333333333334" y="979.6666666666666" type="line"/>
      <point x="749.42" y="489.6666666666667" type="line"/>
      <point x="537.6266666666667" y="-73.66666666666667" type="line"/>
      <point x="485.42" y="-73.66666666666667" type="line"/>
      <point x="281.42" y="491.0" type="line"/>
      <point x="157.31333333333333" y="844.6" type="line" smooth="yes"/>
      <point x="147.55333333333334" y="872.6333333333333"/>
      <point x="115.91333333333334" y="899.0266666666666"/>
      <point x="88.24" y="902.8466666666666" type="qcurve" smooth="yes"/>
      <point x="-21.933333333333334" y="917.4533333333334" type="line"/>
      <point x="-21.933333333333334" y="982.7866666666666" type="line"/>
      <point x="143.45333333333335" y="1006.12" type="line"/>
      <point x="185.7266666666667" y="1006.12"/>
      <point x="232.28" y="969.2466666666667"/>
      <point x="248.8" y="915.0" type="qcurve" smooth="yes"/>
      <point x="376.06666666666666" y="523.6666666666666" type="line"/>
      <point x="541.88" y="41.66666666666667" type="line"/>
      <point x="555.0266666666666" y="41.66666666666667" type="line"/>
      <point x="571.7466666666667" y="-468.94" type="line"/>
    </contour>
  </outline>
</glyph>
<glyph name="epsilon" format="2">
  <advance width="997"/>
  <unicode hex="03B5"/>
  <anchor x="534.1066666666667" y="1000.0" name="GRKtop"/>
  <outline>
    <contour>
      <point x="504.78666666666663" y="-21.7" type="qcurve" smooth="yes"/>
      <point x="302.1466666666667" y="-21.7"/>
      <point x="85.22666666666667" y="131.36"/>
      <point x="85.22666666666667" y="254.06666666666666" type="qcurve" smooth="yes"/>
      <point x="85.22666666666667" y="382.68666666666667"/>
      <point x="327.18666666666667" y="535.2"/>
      <point x="585.54" y="569.0333333333334" type="qcurve" smooth="yes"/>
      <point x="630.6" y="575.0" type="line"/>
      <point x="644.5133333333333" y="542.76" type="line"/>
      <point x="607.9666666666666" y="436.6666666666667" type="line"/>
      <point x="574.2333333333333" y="440.1533333333333" type="line" smooth="yes"/>
      <point x="345.1933333333333" y="462.4066666666667"/>
      <point x="121.44666666666667" y="616.6666666666666"/>
      <point x="121.44666666666667" y="733.6" type="qcurve" smooth="yes"/>
      <point x="121.44666666666667" y="862.18"/>
      <point x="326.3266666666667" y="1020.4866666666667"/>
      <point x="522.52" y="1020.4866666666667" type="qcurve" smooth="yes"/>
      <point x="630.6066666666667" y="1020.4866666666667"/>
      <point x="823.4266666666666" y="969.6933333333334"/>
      <point x="871.1533333333334" y="930.0" type="qcurve"/>
      <point x="876.1266666666667" y="670.4866666666667" type="line"/>
      <point x="809.9133333333334" y="670.4866666666667" type="line"/>
      <point x="750.0733333333334" y="896.4866666666667" type="line"/>
      <point x="718.52" y="917.4266666666666"/>
      <point x="595.7666666666667" y="945.1533333333334"/>
      <point x="518.3" y="945.1533333333334" type="qcurve" smooth="yes"/>
      <point x="377.4866666666667" y="945.1533333333334"/>
      <point x="231.34" y="835.76"/>
      <point x="231.34" y="737.0" type="qcurve" smooth="yes"/>
      <point x="231.34" y="671.3333333333334"/>
      <point x="325.94" y="563.8866666666667"/>
      <point x="497.28" y="518.3333333333334" type="qcurve"/>
      <point x="492.73333333333335" y="471.3333333333333" type="line"/>
      <point x="342.42" y="458.18"/>
      <point x="202.42" y="350.6666666666667"/>
      <point x="202.42" y="262.6666666666667" type="qcurve" smooth="yes"/>
      <point x="202.42" y="173.33333333333334"/>
      <point x="362.0866666666667" y="68.51333333333335"/>
      <point x="504.59333333333336" y="68.51333333333335" type="qcurve" smooth="yes"/>
      <point x="669.8733333333333" y="68.51333333333335"/>
      <point x="877.8066666666666" y="167.37333333333333"/>
      <point x="931.44" y="235.78666666666666" type="qcurve"/>
      <point x="965.6533333333334" y="196.75333333333333" type="line"/>
      <point x="898.3866666666667" y="90.67333333333333"/>
      <point x="652.38" y="-21.7"/>
    </contour>
  </outline>
</glyph>
<glyph name="eta" format="2">
  <advance width="1111"/>
  <unicode hex="03B7"/>
  <anchor x="548.6" y="1000.0" name="GRKtop"/>
  <outline>
    <contour>
      <point x="936.2133333333334" y="-480.0" type="line"/>
      <point x="909.2133333333334" y="-459.6666666666667" type="line"/>
      <point x="926.1866666666666" y="331.3333333333333" type="line"/>
      <point x="926.1866666666666" y="663.2666666666667" type="line" smooth="yes"/>
      <point x="926.1866666666666" y="800.0866666666666"/>
      <point x="810.8533333333334" y="919.3666666666667"/>
      <point x="705.7266666666666" y="919.3666666666667" type="qcurve"/>
      <point x="588.5466666666666" y="919.3666666666667"/>
      <point x="415.1733333333333" y="801.5266666666666"/>
      <point x="375.1933333333333" y="726.1266666666667" type="qcurve"/>
      <point x="374.6466666666667" y="553.6666666666666" type="line"/>
      <point x="377.8" y="10.786666666666667" type="line"/>
      <point x="280.8866666666667" y="0.0" type="line"/>
      <point x="253.88666666666668" y="20.333333333333336" type="line"/>
      <point x="274.3066666666667" y="718.26" type="line"/>
      <point x="272.3666666666667" y="833.3933333333333"/>
      <point x="230.78666666666666" y="899.4533333333334"/>
      <point x="189.86666666666665" y="905.0" type="qcurve" smooth="yes"/>
      <point x="93.85333333333332" y="917.3333333333334" type="line"/>
      <point x="93.85333333333332" y="982.6666666666666" type="line"/>
      <point x="255.4066666666667" y="1006.0" type="line"/>
      <point x="311.9866666666667" y="1007.2133333333334"/>
      <point x="365.0133333333333" y="927.4733333333334"/>
      <point x="374.0133333333333" y="819.8933333333333" type="qcurve"/>
      <point x="375.0133333333333" y="819.8933333333333" type="line"/>
      <point x="417.6" y="897.9066666666666"/>
      <point x="599.7666666666667" y="1020.7"/>
      <point x="734.8466666666666" y="1020.7" type="qcurve" smooth="yes"/>
      <point x="865.7266666666667" y="1020.7"/>
      <point x="1025.0066666666667" y="865.8533333333334"/>
      <point x="1030.04" y="676.6666666666666" type="qcurve" smooth="yes"/>
      <point x="1029.04" y="334.0" type="line"/>
      <point x="1034.56" y="-469.2133333333333" type="line"/>
    </contour>
  </outline>
</glyph>
<glyph name="theta" format="2">
  <advance width="1100"/>
  <unicode hex="03B8"/>
  <outline>
    <contour>
      <point x="566.5666666666666" y="-24.433333333333337" type="qcurve" smooth="yes"/>
      <point x="312.8266666666667" y="-24.433333333333337"/>
      <point x="76.10666666666667" y="328.5"/>
      <point x="75.22666666666667" y="727.36" type="qcurve" smooth="yes"/>
      <point x="74.34666666666668" y="1131.18"/>
      <point x="325.7866666666667" y="1537.0"/>
      <point x="572.3266666666666" y="1537.0" type="qcurve" smooth="yes"/>
      <point x="821.28" y="1537.0"/>
      <point x="1058.7266666666667" y="1176.7133333333334"/>
      <point x="1059.6066666666668" y="780.94" type="qcurve" smooth="yes"/>
      <point x="1060.4866666666667" y="388.94"/>
      <point x="810.7866666666666" y="-24.433333333333337"/>
    </contour>
    <contour>
      <point x="567.4466666666666" y="49.84666666666667" type="qcurve" smooth="yes"/>
      <point x="752.3066666666666" y="49.84666666666667"/>
      <point x="943.6933333333334" y="377.3933333333333"/>
      <point x="943.6933333333334" y="737.7" type="qcurve" smooth="yes"/>
      <point x="943.6933333333334" y="1188.3933333333332"/>
      <point x="742.3666666666667" y="1454.3533333333332"/>
      <point x="570.4466666666666" y="1454.3533333333332" type="qcurve" smooth="yes"/>
      <point x="386.06666666666666" y="1454.3533333333332"/>
      <point x="189.86666666666667" y="1145.04"/>
      <point x="189.86666666666667" y="761.2" type="qcurve" smooth="yes"/>
      <point x="189.86666666666667" y="338.8266666666667"/>
      <point x="393.92" y="49.84666666666667"/>
    </contour>
    <contour>
      <point x="155.0066666666667" y="687.9133333333334" type="line"/>
      <point x="155.0066666666667" y="800.9133333333334" type="line"/>
      <point x="563.7466666666667" y="780.2466666666667" type="line"/>
      <point x="969.9733333333334" y="800.9133333333334" type="line"/>
      <point x="969.9733333333334" y="687.9133333333334" type="line"/>
      <point x="563.7466666666667" y="708.58" type="line"/>
    </contour>
  </outline>
</glyph>
<glyph name="iota" format="2">
  <advance width="549"/>
  <unicode hex="03B9"/>
  <anchor x="245.17333333333335" y="1000.0" name="GRKtop"/>
  <outline>
    <contour>
      <point x="333.1333333333333" y="-8.0" type="line"/>
      <point x="252.7533333333333" y="-6.06"/>
      <point x="178.67333333333335" y="71.5"/>
      <point x="179.00666666666666" y="168.93333333333334" type="qcurve" smooth="yes"/>
      <point x="180.34" y="457.3333333333333" type="line"/>
      <point x="172.94666666666666" y="988.94" type="line"/>
      <point x="274.62666666666667" y="1000.0" type="line"/>
      <point x="301.62666666666667" y="979.6666666666666" type="line"/>
      <point x="285.44" y="457.3333333333333" type="line"/>
      <point x="286.1066666666667" y="204.6" type="line" smooth="yes"/>
      <point x="286.1066666666667" y="125.96"/>
      <point x="330.7866666666667" y="81.0"/>
      <point x="388.6066666666667" y="81.0" type="qcurve" smooth="yes"/>
      <point x="509.1333333333334" y="81.0" type="line"/>
      <point x="509.1333333333334" y="26.0" type="line"/>
    </contour>
  </outline>
</glyph>
<glyph name="kappa" format="2">
  <advance width="1053"/>
  <unicode hex="03BA"/>
  <outline>
    <contour>
      <point x="181.38666666666666" y="0.0" type="line"/>
      <point x="181.54" y="457.18" type="line"/>
      <point x="174.14666666666665" y="989.2133333333334" type="line"/>
      <point x="275.8266666666667" y="1000.0" type="line"/>
      <point x="302.8266666666667" y="979.6666666666666" type="line"/>
      <point x="286.64" y="451.7133333333333" type="line"/>
      <point x="287.18666666666667" y="0.0" type="line"/>
    </contour>
    <contour>
      <point x="231.82" y="170.26666666666665" type="line"/>
      <point x="231.82" y="279.2666666666667" type="line"/>
      <point x="685.9" y="858.4" type="line" smooth="yes"/>
      <point x="746.3333333333334" y="932.9466666666666"/>
      <point x="850.84" y="1004.7333333333333"/>
      <point x="927.0133333333333" y="1009.4" type="qcurve"/>
      <point x="951.8266666666666" y="987.1533333333334" type="line"/>
      <point x="937.1" y="859.7" type="line"/>
      <point x="842.62" y="857.7"/>
      <point x="753.9333333333334" y="813.28"/>
      <point x="713.7733333333334" y="765.4" type="qcurve" smooth="yes"/>
    </contour>
    <contour>
      <point x="888.12" y="-8.0" type="line"/>
      <point x="829.1933333333334" y="-7.333333333333333"/>
      <point x="773.5866666666666" y="29.653333333333332"/>
      <point x="744.8133333333334" y="86.69333333333333" type="qcurve" smooth="yes"/>
      <point x="496.3266666666667" y="557.7" type="line"/>
      <point x="561.3066666666666" y="636.4266666666666" type="line"/>
      <point x="792.98" y="226.67333333333335" type="line" smooth="yes"/>
      <point x="842.44" y="138.13333333333335"/>
      <point x="906.2333333333333" y="84.06666666666668"/>
      <point x="951.96" y="84.06666666666668" type="qcurve" smooth="yes"/>
      <point x="1010.9866666666668" y="84.06666666666668" type="line"/>
      <point x="1010.9866666666668" y="26.30666666666667" type="line"/>
    </contour>
  </outline>
</glyph>
<glyph name="lambda" format="2">
  <advance width="992"/>
  <unicode hex="03BB"/>
  <outline>
    <contour>
      <point x="863.6533333333334" y="-8.0" type="line"/>
      <point x="812.9866666666667" y="-8.0"/>
      <point x="743.1066666666667" y="35.486666666666665"/>
      <point x="723.0733333333334" y="92.36666666666667" type="qcurve" smooth="yes"/>
      <point x="435.3933333333333" y="910.3866666666667" type="line"/>
      <point x="277.26" y="1311.3933333333332" type="line" smooth="yes"/>
      <point x="245.40666666666667" y="1393.8133333333333"/>
      <point x="195.99333333333334" y="1428.3933333333332"/>
      <point x="156.62666666666667" y="1434.0" type="qcurve" smooth="yes"/>
      <point x="45.84" y="1449.06" type="line"/>
      <point x="45.84" y="1514.3933333333332" type="line"/>
      <point x="205.73333333333335" y="1537.7266666666667" type="line"/>
      <point x="265.1733333333333" y="1537.7266666666667"/>
      <point x="334.3666666666667" y="1463.4266666666667"/>
      <point x="364.4" y="1376.3933333333332" type="qcurve" smooth="yes"/>
      <point x="493.04" y="1005.2933333333334" type="line"/>
      <point x="808.7333333333333" y="184.35333333333335" type="line" smooth="yes"/>
      <point x="827.4333333333334" y="135.2"/>
      <point x="883.1333333333333" y="84.06666666666668"/>
      <point x="923.26" y="84.06666666666668" type="qcurve" smooth="yes"/>
      <point x="989.98" y="84.06666666666668" type="line"/>
      <point x="989.98" y="26.30666666666667" type="line"/>
    </contour>
    <contour>
      <point x="15.88" y="0.0" type="line"/>
      <point x="-11.12" y="20.333333333333336" type="line"/>
      <point x="179.35333333333335" y="452.9866666666667" type="line"/>
      <point x="424.1933333333333" y="1043.1133333333332" type="line"/>
      <point x="462.92" y="939.02" type="line"/>
      <point x="260.9333333333334" y="414.8733333333334" type="line"/>
      <point x="124.22666666666667" y="10.786666666666667" type="line"/>
    </contour>
  </outline>
</glyph>
<glyph name="mu" format="2">
  <advance width="1157"/>
  <unicode hex="03BC"/>
  <outline>
    <contour>
      <point x="192.01333333333335" y="-480.0" type="line"/>
      <point x="165.01333333333335" y="-459.6666666666667" type="line"/>
      <point x="177.19333333333336" y="375.7333333333333" type="line"/>
      <point x="169.13333333333335" y="989.2133333333334" type="line"/>
      <point x="270.81333333333333" y="1000.0" type="line"/>
      <point x="297.81333333333333" y="979.6666666666666" type="line"/>
      <point x="281.56666666666666" y="371.7333333333333" type="line"/>
      <point x="281.56666666666666" y="210.8"/>
      <point x="406.32" y="80.2"/>
      <point x="523.2266666666666" y="80.2" type="qcurve" smooth="yes"/>
      <point x="606.0333333333334" y="80.2"/>
      <point x="779.4133333333334" y="170.03333333333333"/>
      <point x="834.16" y="259.8" type="qcurve"/>
      <point x="832.16" y="412.6" type="line"/>
      <point x="823.92" y="989.2133333333334" type="line"/>
      <point x="925.6" y="1000.0" type="line"/>
      <point x="952.6" y="979.6666666666666" type="line"/>
      <point x="936.14" y="284.93333333333334" type="line"/>
      <point x="936.4133333333334" y="170.64"/>
      <point x="976.9533333333334" y="82.79333333333334"/>
      <point x="1053.8933333333332" y="84.12666666666667" type="qcurve" smooth="yes"/>
      <point x="1102.6066666666668" y="84.12666666666667" type="line"/>
      <point x="1102.6066666666668" y="26.366666666666667" type="line"/>
      <point x="981.7733333333334" y="-8.0" type="line"/>
      <point x="905.9133333333334" y="-5.573333333333333"/>
      <point x="845.8" y="64.22666666666667"/>
      <point x="836.34" y="156.92" type="qcurve"/>
      <point x="834.6733333333334" y="156.92" type="line"/>
      <point x="785.9666666666666" y="92.16"/>
      <point x="603.7866666666666" y="-18.4"/>
      <point x="507.5733333333334" y="-18.4" type="qcurve" smooth="yes"/>
      <point x="428.8933333333333" y="-18.4"/>
      <point x="300.02" y="48.42"/>
      <point x="276.0133333333333" y="94.51333333333334" type="qcurve"/>
      <point x="290.36" y="-469.2133333333333" type="line"/>
    </contour>
  </outline>
</glyph>
<glyph name="xi" format="2">
  <advance width="938"/>
  <unicode hex="03BE"/>
  <outline>
    <contour>
      <point x="736.0466666666666" y="-299.6666666666667" type="line"/>
      <point x="716.0066666666667" y="-133.55333333333334" type="line" smooth="yes"/>
      <point x="708.0333333333334" y="-65.85333333333332"/>
      <point x="674.24" y="-24.553333333333335"/>
      <point x="635.9066666666666" y="-21.76666666666667" type="qcurve" smooth="yes"/>
      <point x="607.36" y="-19.313333333333336" type="line" smooth="yes"/>
      <point x="338.8466666666667" y="2.746666666666666"/>
      <point x="73.89333333333333" y="194.92666666666665"/>
      <point x="73.89333333333333" y="368.0" type="qcurve" smooth="yes"/>
      <point x="73.89333333333333" y="547.6466666666666"/>
      <point x="367.98" y="796.3866666666667"/>
      <point x="692.34" y="845.2866666666666" type="qcurve" smooth="yes"/>
      <point x="765.1933333333334" y="855.4066666666666" type="line"/>
      <point x="781.1066666666667" y="817.1666666666666" type="line"/>
      <point x="749.5" y="703.9533333333334" type="line"/>
      <point x="685.6133333333333" y="709.62" type="line" smooth="yes"/>
      <point x="372.5933333333333" y="739.84"/>
      <point x="149.27333333333334" y="928.5"/>
      <point x="149.27333333333334" y="1066.52" type="qcurve" smooth="yes"/>
      <point x="149.27333333333334" y="1190.8533333333332"/>
      <point x="308.43333333333334" y="1369.3333333333333"/>
      <point x="518.78" y="1412.0933333333332" type="qcurve"/>
      <point x="519.0533333333334" y="1406.0933333333332" type="line"/>
      <point x="165.6" y="1401.58" type="line"/>
      <point x="140.78666666666666" y="1423.8266666666668" type="line"/>
      <point x="153.27333333333334" y="1527.0933333333332" type="line"/>
      <point x="868.0" y="1508.0" type="line"/>
      <point x="868.0" y="1426.7333333333333" type="line"/>
      <point x="551.12" y="1400.3066666666668"/>
      <point x="250.58" y="1228.0733333333333"/>
      <point x="250.58" y="1076.4666666666667" type="qcurve" smooth="yes"/>
      <point x="250.58" y="963.0666666666666"/>
      <point x="435.1733333333333" y="824.5933333333334"/>
      <point x="655.32" y="791.4333333333334" type="qcurve"/>
      <point x="643.2333333333333" y="749.2866666666666" type="line"/>
      <point x="411.06666666666666" y="732.5866666666666"/>
      <point x="188.6266666666667" y="536.18"/>
      <point x="188.6266666666667" y="376.0933333333333" type="qcurve"/>
      <point x="188.6266666666667" y="247.37333333333333"/>
      <point x="382.6666666666667" y="104.06"/>
      <point x="650.4333333333334" y="86.09333333333335" type="qcurve" smooth="yes"/>
      <point x="707.58" y="82.52" type="line" smooth="yes"/>
      <point x="774.1066666666667" y="77.88666666666667"/>
      <point x="823.6866666666666" y="29.96666666666667"/>
      <point x="823.6533333333334" y="-20.88" type="qcurve"/>
      <point x="802.1066666666667" y="-299.6666666666667" type="line"/>
    </contour>
  </outline>
</glyph>
<glyph name="finalsigma" format="2">
  <advance width="910"/>
  <unicode hex="03C2"/>
  <outline>
    <contour>
      <point x="719.78" y="-299.6666666666667" type="line"/>
      <point x="700.0733333333334" y="-136.06" type="line" smooth="yes"/>
      <point x="691.7666666666667" y="-66.39333333333333"/>
      <point x="658.3066666666666" y="-24.853333333333335"/>
      <point x="620.3666666666667" y="-22.12666666666667" type="qcurve" smooth="yes"/>
      <point x="591.58" y="-19.733333333333334" type="line" smooth="yes"/>
      <point x="345.0933333333333" y="-0.03333333333333394"/>
      <point x="65.82666666666667" y="244.06"/>
      <point x="65.82666666666667" y="485.4866666666667" type="qcurve" smooth="yes"/>
      <point x="65.82666666666667" y="734.5533333333334"/>
      <point x="321.7066666666667" y="1020.5466666666666"/>
      <point x="537.2733333333334" y="1020.5466666666666" type="qcurve"/>
      <point x="636.32" y="1020.5466666666666"/>
      <point x="818.24" y="966.54"/>
      <point x="863.28" y="931.4733333333334" type="qcurve"/>
      <point x="868.6133333333333" y="670.4866666666667" type="line"/>
      <point x="801.3133333333334" y="670.4866666666667" type="line"/>
      <point x="741.9" y="896.0" type="line"/>
      <point x="714.1066666666667" y="916.36"/>
      <point x="598.4533333333334" y="942.42"/>
      <point x="543.1933333333334" y="942.42" type="qcurve" smooth="yes"/>
      <point x="367.4266666666667" y="942.42"/>
      <point x="177.82666666666668" y="713.7"/>
      <point x="177.82666666666668" y="488.8" type="qcurve" smooth="yes"/>
      <point x="177.82666666666668" y="308.6666666666667"/>
      <point x="385.06" y="101.82"/>
      <point x="644.4666666666666" y="85.42666666666668" type="qcurve" smooth="yes"/>
      <point x="690.5933333333334" y="82.64" type="line" smooth="yes"/>
      <point x="756.9333333333334" y="78.18666666666667"/>
      <point x="806.8733333333333" y="30.906666666666666"/>
      <point x="807.3866666666667" y="-20.33333333333333" type="qcurve"/>
      <point x="785.84" y="-299.6666666666667" type="line"/>
    </contour>
  </outline>
</glyph>
<glyph name="sigma" format="2">
  <advance width="1144"/>
  <unicode hex="03C3"/>
  <outline>
    <contour>
      <point x="526.42" y="-21.7" type="qcurve" smooth="yes"/>
      <point x="314.3533333333333" y="-21.7"/>
      <point x="65.82666666666667" y="242.64666666666665"/>
      <point x="65.82666666666667" y="452.06666666666666" type="qcurve" smooth="yes"/>
      <point x="65.82666666666667" y="679.5866666666666"/>
      <point x="338.6933333333333" y="971.5866666666666"/>
      <point x="642.0933333333334" y="988.16" type="qcurve" smooth="yes"/>
      <point x="1082.7066666666667" y="1012.1333333333333" type="line"/>
      <point x="1107.2466666666667" y="989.8866666666667" type="line"/>
      <point x="1094.52" y="888.3066666666666" type="line"/>
      <point x="740.2866666666666" y="894.22" type="line" smooth="yes"/>
      <point x="408.6933333333333" y="899.5266666666666"/>
      <point x="180.95333333333335" y="649.8533333333334"/>
      <point x="180.95333333333335" y="452.7333333333333" type="qcurve" smooth="yes"/>
      <point x="180.95333333333335" y="273.6066666666667"/>
      <point x="369.06666666666666" y="50.45333333333333"/>
      <point x="531.12" y="50.45333333333333" type="qcurve" smooth="yes"/>
      <point x="701.7066666666666" y="50.45333333333333"/>
      <point x="883.8733333333333" y="295.84"/>
      <point x="883.8733333333333" y="476.8666666666667" type="qcurve" smooth="yes"/>
      <point x="883.8733333333333" y="626.2666666666667"/>
      <point x="775.28" y="847.5066666666667"/>
      <point x="669.9466666666666" y="918.04" type="qcurve"/>
      <point x="669.9466666666666" y="947.7066666666666" type="line"/>
      <point x="705.9466666666666" y="947.7066666666666" type="line"/>
      <point x="848.0333333333334" y="867.5"/>
      <point x="996.2733333333334" y="628.6"/>
      <point x="996.2733333333334" y="477.5333333333333" type="qcurve" smooth="yes"/>
      <point x="996.2733333333334" y="265.2866666666667"/>
      <point x="738.9466666666666" y="-21.7"/>
    </contour>
  </outline>
</glyph>
<glyph name="tau" format="2">
  <advance width="882"/>
  <unicode hex="03C4"/>
  <outline>
    <contour>
      <point x="842.12" y="885.5733333333334" type="line"/>
      <point x="28.726666666666663" y="894.6066666666667" type="line"/>
      <point x="28.726666666666663" y="958.4866666666667" type="line"/>
      <point x="150.40666666666667" y="992.0066666666667" type="line"/>
      <point x="830.0333333333334" y="1009.4" type="line"/>
      <point x="854.8466666666666" y="987.1533333333334" type="line"/>
    </contour>
    <contour>
      <point x="514.82" y="-8.0" type="line"/>
      <point x="434.0933333333333" y="-6.0"/>
      <point x="357.12666666666667" y="91.35333333333332"/>
      <point x="365.04" y="265.06666666666666" type="qcurve" smooth="yes"/>
      <point x="395.26" y="936.3" type="line"/>
      <point x="472.4133333333333" y="936.3" type="line"/>
      <point x="473.2" y="273.1333333333333" type="line" smooth="yes"/>
      <point x="473.2" y="162.31333333333333"/>
      <point x="521.4733333333334" y="79.66666666666667"/>
      <point x="608.9533333333334" y="81.0" type="qcurve" smooth="yes"/>
      <point x="749.4266666666666" y="81.0" type="line"/>
      <point x="749.4266666666666" y="25.0" type="line"/>
    </contour>
  </outline>
</glyph>
<glyph name="chi" format="2">
  <advance width="968"/>
  <unicode hex="03C7"/>
  <outline>
    <contour>
      <point x="898.54" y="-485.3333333333333" type="line"/>
      <point x="843.0866666666666" y="-485.3333333333333"/>
      <point x="788.0" y="-435.3666666666667"/>
      <point x="768.06" y="-391.9533333333333" type="qcurve" smooth="yes"/>
      <point x="476.84" y="235.65333333333334" type="line"/>
      <point x="187.01333333333335" y="813.3266666666666" type="line" smooth="yes"/>
      <point x="157.7" y="873.8066666666666"/>
      <point x="109.10666666666667" y="900.3"/>
      <point x="57.96666666666667" y="907.6666666666666" type="qcurve" smooth="yes"/>
      <point x="-12.713333333333331" y="916.6666666666666" type="line"/>
      <point x="-12.713333333333331" y="982.0" type="line"/>
      <point x="146.26666666666668" y="1005.3333333333334" type="line"/>
      <point x="197.42666666666668" y="1005.0333333333334"/>
      <point x="243.09333333333333" y="948.54"/>
      <point x="269.6466666666667" y="888.7266666666666" type="qcurve" smooth="yes"/>
      <point x="535.4466666666666" y="318.3666666666667" type="line"/>
      <point x="851.0266666666666" y="-320.24" type="line" smooth="yes"/>
      <point x="865.9666666666666" y="-351.2933333333333"/>
      <point x="919.1133333333333" y="-391.9"/>
      <point x="962.7133333333334" y="-393.2666666666667" type="qcurve"/>
      <point x="1023.5" y="-393.2666666666667" type="line"/>
      <point x="1023.5" y="-451.0266666666667" type="line"/>
    </contour>
    <contour>
      <point x="66.07333333333332" y="-480.0" type="line"/>
      <point x="39.07333333333333" y="-459.6666666666667" type="line"/>
      <point x="280.61333333333334" y="-40.67333333333333" type="line"/>
      <point x="474.62666666666667" y="309.43333333333334" type="line"/>
      <point x="514.9933333333333" y="229.04" type="line"/>
      <point x="356.7266666666667" y="-83.49333333333333" type="line"/>
      <point x="167.75333333333333" y="-469.2133333333333" type="line"/>
    </contour>
    <contour>
      <point x="539.26" y="250.52" type="line"/>
      <point x="500.2266666666667" y="332.9133333333333" type="line"/>
      <point x="636.1066666666667" y="603.4933333333333" type="line"/>
      <point x="825.08" y="989.2133333333334" type="line"/>
      <point x="926.76" y="1000.0" type="line"/>
      <point x="953.76" y="979.6666666666666" type="line"/>
      <point x="712.22" y="560.6733333333334" type="line"/>
    </contour>
  </outline>
</glyph>
<glyph name="Kaisymbol" format="2">
  <advance width="1432"/>
  <unicode hex="03CF"/>
  <outline>
    <contour>
      <point x="83.24" y="0.0" type="line"/>
      <point x="83.24" y="65.09333333333335" type="line"/>
      <point x="301.5733333333333" y="100.09333333333335" type="line"/>
      <point x="303.5733333333333" y="754.0" type="line"/>
      <point x="301.5733333333333" y="1397.0266666666666" type="line"/>
      <point x="83.24" y="1431.0266666666666" type="line"/>
      <point x="83.24" y="1500.0" type="line"/>
      <point x="635.9733333333334" y="1500.0" type="line"/>
      <point x="635.9733333333334" y="1431.0266666666666" type="line"/>
      <point x="414.3066666666667" y="1397.0266666666666" type="line"/>
      <point x="412.3066666666667" y="754.0" type="line"/>
      <point x="414.3066666666667" y="100.09333333333335" type="line"/>
      <point x="638.7066666666666" y="65.09333333333335" type="line"/>
      <point x="638.7066666666666" y="0.0" type="line"/>
    </contour>
    <contour>
      <point x="360.9133333333333" y="496.18666666666667" type="line"/>
      <point x="361.0933333333333" y="604.84" type="line"/>
      <point x="1083.5133333333333" y="1393.2" type="line"/>
      <point x="913.16" y="1431.0266666666666" type="line"/>
      <point x="913.16" y="1500.0" type="line"/>
      <point x="1385.7666666666667" y="1500.0" type="line"/>
      <point x="1385.7666666666667" y="1431.0266666666666" type="line"/>
      <point x="1198.9466666666667" y="1393.2" type="line"/>
      <point x="690.0333333333334" y="846.7733333333334" type="line"/>
      <point x="668.52" y="824.1666666666666" type="line"/>
    </contour>
    <contour>
      <point x="1201.5933333333332" y="47.04" type="line"/>
      <point x="625.84" y="830.86" type="line"/>
      <point x="715.3" y="851.54" type="line"/>
      <point x="1289.7333333333333" y="97.99333333333334" type="line"/>
      <point x="1472.6466666666668" y="59.33333333333334" type="line"/>
      <point x="1458.4866666666667" y="0.0" type="line"/>
    </contour>
    <contour>
      <point x="708.8666666666667" y="-503.3333333333333" type="qcurve"/>
      <point x="573.46" y="-503.3333333333333"/>
      <point x="320.2866666666667" y="-418.42"/>
      <point x="241.02" y="-346.6666666666667" type="qcurve"/>
      <point x="275.74" y="-286.4" type="line"/>
      <point x="354.64" y="-339.6666666666667"/>
      <point x="565.4266666666666" y="-413.6666666666667"/>
      <point x="714.4733333333334" y="-413.6666666666667" type="qcurve" smooth="yes"/>
      <point x="986.9266666666666" y="-413.6666666666667"/>
      <point x="1334.4066666666668" y="-183.66666666666666"/>
      <point x="1398.1066666666668" y="0.0" type="qcurve"/>
      <point x="1472.6466666666668" y="0.0" type="line"/>
      <point x="1420.0666666666668" y="-215.33333333333334"/>
      <point x="1013.2333333333332" y="-503.3333333333333"/>
    </contour>
  </outline>
</glyph>
<glyph name="kaisymbol" format="2">
  <advance width="1094"/>
  <unicode hex="03D7"/>
  <outline>
    <contour>
      <point x="495.61333333333334" y="-503.3333333333333" type="qcurve" smooth="yes"/>
      <point x="332.1666666666667" y="-503.3333333333333"/>
      <point x="50.02" y="-353.16"/>
      <point x="-34.89333333333334" y="-195.48" type="qcurve"/>
      <point x="18.76666666666667" y="-157.0" type="line"/>
      <point x="82.49333333333334" y="-258.2733333333333"/>
      <point x="313.5733333333333" y="-412.3333333333333"/>
      <point x="497.9866666666667" y="-412.3333333333333" type="qcurve" smooth="yes"/>
      <point x="728.6466666666666" y="-412.3333333333333"/>
      <point x="973.4066666666666" y="-133.2733333333333"/>
      <point x="971.3466666666666" y="84.06666666666668" type="qcurve"/>
      <point x="1050.5333333333333" y="84.06666666666668" type="line"/>
      <point x="1062.1133333333332" y="-170.10666666666665"/>
      <point x="743.5466666666666" y="-503.3333333333333"/>
    </contour>
    <component base="kappa"/>
  </outline>
</glyph>
<glyph name="Ieukran" format="2">
  <advance width="1416"/>
  <unicode hex="0404"/>
  <guideline x="211.0" y="787.0" angle="90.0" identifier="mFTeE97JTj"/>
  <outline>
    <contour>
      <point x="141.95333333333335" y="728.6333333333333" type="line"/>
      <point x="141.95333333333335" y="792.6333333333333" type="line"/>
      <point x="840.1733333333334" y="799.3" type="line"/>
      <point x="870.5733333333334" y="976.6333333333333" type="line"/>
      <point x="942.3933333333334" y="976.6333333333333" type="line"/>
      <point x="942.3933333333334" y="543.3" type="line"/>
      <point x="870.5733333333334" y="543.3" type="line"/>
      <point x="840.1733333333334" y="723.9666666666666" type="line"/>
    </contour>
    <contour>
      <point x="82.37333333333333" y="703.58" type="qcurve" smooth="yes"/>
      <point x="82.37333333333333" y="1068.36"/>
      <point x="493.0933333333333" y="1518.9733333333334"/>
      <point x="820.84" y="1518.9733333333334" type="qcurve" smooth="yes"/>
      <point x="951.46" y="1518.9733333333334"/>
      <point x="1156.3266666666668" y="1456.6866666666667"/>
      <point x="1221.98" y="1412.3266666666668" type="qcurve"/>
      <point x="1245.8066666666668" y="1499.94" type="line"/>
      <point x="1315.6266666666668" y="1499.94" type="line"/>
      <point x="1315.6266666666668" y="1044.2733333333333" type="line"/>
      <point x="1240.5333333333333" y="1044.2733333333333" type="line"/>
      <point x="1212.1066666666668" y="1213.8" type="line" smooth="yes"/>
      <point x="1191.6133333333332" y="1333.7"/>
      <point x="975.1133333333333" y="1433.64"/>
      <point x="830.8466666666666" y="1433.64" type="qcurve" smooth="yes"/>
      <point x="549.7576530720007" y="1433.64"/>
      <point x="197.98666644846668" y="1071.6200255305998"/>
      <point x="200.53333333333333" y="731.28" type="qcurve" smooth="yes"/>
      <point x="202.41333341573335" y="425.4133206481333"/>
      <point x="557.8464392650301" y="66.78666666666668"/>
      <point x="834.0133333333333" y="66.78666666666668" type="qcurve" smooth="yes"/>
      <point x="1029.12" y="66.78666666666668"/>
      <point x="1278.58" y="199.32"/>
      <point x="1344.5933333333332" y="296.0733333333333" type="qcurve"/>
      <point x="1404.4733333333334" y="240.15333333333334" type="line"/>
      <point x="1315.9533333333331" y="116.53333333333333"/>
      <point x="1022.3466666666667" y="-29.57333333333333"/>
      <point x="828.12" y="-29.57333333333333" type="qcurve" smooth="yes"/>
      <point x="483.8266666666667" y="-29.57333333333333"/>
      <point x="82.37333333333333" y="387.92"/>
    </contour>
  </outline>
</glyph>
<glyph name="Lje" format="2">
  <advance width="1955"/>
  <unicode hex="0409"/>
  <outline>
    <contour>
      <point x="800.04" y="0.0" type="line"/>
      <point x="800.04" y="65.09333333333335" type="line"/>
      <point x="1018.3733333333332" y="100.09333333333335" type="line"/>
      <point x="1020.3733333333332" y="749.08" type="line"/>
      <point x="1018.3733333333332" y="1396.48" type="line"/>
      <point x="988.24" y="1422.6666666666667" type="line"/>
      <point x="572.6" y="1422.6666666666667" type="line"/>
      <point x="535.8" y="1396.36" type="line"/>
      <point x="485.42" y="752.26" type="line" smooth="yes"/>
      <point x="451.25333333333333" y="322.1066666666667"/>
      <point x="317.2133333333333" y="-17.0"/>
      <point x="137.8" y="-17.0" type="qcurve" smooth="yes"/>
      <point x="113.8" y="-17.0"/>
      <point x="73.13333333333333" y="-9.333333333333334"/>
      <point x="48.8" y="0.0" type="qcurve"/>
      <point x="48.8" y="129.66666666666669" type="line"/>
      <point x="72.8" y="121.66666666666667"/>
      <point x="112.08" y="116.66666666666667"/>
      <point x="133.14" y="116.66666666666667" type="qcurve" smooth="yes"/>
      <point x="271.32" y="116.66666666666667"/>
      <point x="368.8936822320667" y="442.2736926475333"/>
      <point x="393.42" y="752.74" type="qcurve" smooth="yes"/>
      <point x="443.8" y="1397.0266666666666" type="line"/>
      <point x="225.46666666666667" y="1431.0266666666666" type="line"/>
      <point x="225.46666666666667" y="1500.0" type="line"/>
      <point x="1349.44" y="1500.0" type="line"/>
      <point x="1349.44" y="1431.0266666666666" type="line"/>
      <point x="1131.1066666666668" y="1397.0266666666666" type="line"/>
      <point x="1129.38" y="899.6666666666666" type="line"/>
      <point x="1137.5333333333333" y="887.6666666666666" type="line"/>
      <point x="1409.28" y="887.6666666666666" type="line" smooth="yes"/>
      <point x="1654.18" y="887.6666666666666"/>
      <point x="1906.1466666666668" y="667.0"/>
      <point x="1906.1466666666668" y="455.6666666666667" type="qcurve" smooth="yes"/>
      <point x="1906.1466666666668" y="244.33333333333334"/>
      <point x="1642.8133333333333" y="0.0"/>
      <point x="1411.2" y="0.0" type="qcurve" smooth="yes"/>
    </contour>
    <contour>
      <point x="1129.6533333333332" y="797.0333333333334" type="line"/>
      <point x="1130.7133333333334" y="94.72666666666667" type="line"/>
      <point x="1161.6866666666667" y="76.0" type="line"/>
      <point x="1387.98" y="75.33333333333334" type="line" smooth="yes"/>
      <point x="1577.1933333333332" y="74.66666666666667"/>
      <point x="1784.2266666666667" y="267.3333333333333"/>
      <point x="1784.2266666666667" y="455.6666666666667" type="qcurve" smooth="yes"/>
      <point x="1784.2266666666667" y="632.0"/>
      <point x="1579.1533333333332" y="809.0333333333334"/>
      <point x="1390.1666666666667" y="809.0333333333334" type="qcurve" smooth="yes"/>
      <point x="1135.8666666666668" y="809.0333333333334" type="line"/>
    </contour>
  </outline>
</glyph>
<glyph name="Be" format="2">
  <advance width="1267"/>
  <unicode hex="0411"/>
  <outline>
    <contour>
      <point x="412.3066666666667" y="860.8" type="line"/>
      <point x="420.46" y="848.8" type="line"/>
      <point x="689.68" y="848.8" type="line" smooth="yes"/>
      <point x="913.9133333333334" y="848.8"/>
      <point x="1169.88" y="654.4466666666666"/>
      <point x="1169.88" y="443.9" type="qcurve" smooth="yes"/>
      <point x="1169.88" y="243.35333333333335"/>
      <point x="918.5466666666666" y="0.0"/>
      <point x="693.6" y="0.0" type="qcurve" smooth="yes"/>
      <point x="83.24" y="0.0" type="line"/>
      <point x="83.24" y="65.09333333333335" type="line"/>
      <point x="301.5733333333333" y="100.09333333333335" type="line"/>
      <point x="303.5733333333333" y="749.08" type="line"/>
      <point x="301.5733333333333" y="1397.0266666666666" type="line"/>
      <point x="83.24" y="1431.0266666666666" type="line"/>
      <point x="83.24" y="1500.0" type="line"/>
      <point x="1071.2466666666667" y="1500.0" type="line"/>
      <point x="1071.2466666666667" y="1125.9333333333332" type="line"/>
      <point x="998.76" y="1125.9333333333332" type="line"/>
      <point x="952.36" y="1422.6666666666667" type="line"/>
      <point x="441.1" y="1422.6666666666667" type="line"/>
      <point x="414.3066666666667" y="1408.0" type="line"/>
    </contour>
    <contour>
      <point x="412.58" y="761.5" type="line"/>
      <point x="414.58" y="94.72666666666667" type="line"/>
      <point x="445.55333333333334" y="76.0" type="line"/>
      <point x="671.0466666666666" y="75.33333333333334" type="line" smooth="yes"/>
      <point x="852.26" y="74.66666666666667"/>
      <point x="1047.96" y="263.02"/>
      <point x="1047.96" y="443.9" type="qcurve" smooth="yes"/>
      <point x="1047.96" y="616.1133333333333"/>
      <point x="850.22" y="773.5"/>
      <point x="672.5666666666666" y="773.5" type="qcurve" smooth="yes"/>
      <point x="418.7933333333333" y="773.5" type="line"/>
    </contour>
  </outline>
</glyph>
<glyph name="Ghe" format="2">
  <advance width="1165"/>
  <unicode hex="0413"/>
  <outline>
    <contour>
      <point x="83.24" y="0.0" type="line"/>
      <point x="83.24" y="65.09333333333335" type="line"/>
      <point x="301.5733333333333" y="100.64" type="line"/>
      <point x="303.5733333333333" y="755.64" type="line"/>
      <point x="301.5733333333333" y="1397.0266666666666" type="line"/>
      <point x="83.24" y="1431.0266666666666" type="line"/>
      <point x="83.24" y="1500.0" type="line"/>
      <point x="1099.1133333333332" y="1500.0" type="line"/>
      <point x="1099.1133333333332" y="1147.9333333333332" type="line"/>
      <point x="1026.6266666666668" y="1147.9333333333332" type="line"/>
      <point x="993.56" y="1422.6666666666667" type="line"/>
      <point x="441.7666666666667" y="1422.6666666666667" type="line"/>
      <point x="414.3066666666667" y="1398.6666666666667" type="line"/>
      <point x="411.64" y="756.0" type="line"/>
      <point x="414.3066666666667" y="99.21333333333334" type="line"/>
      <point x="662.1666666666666" y="65.09333333333335" type="line"/>
      <point x="662.1666666666666" y="0.0" type="line"/>
    </contour>
  </outline>
</glyph>
<glyph name="De" format="2">
  <advance width="1613"/>
  <unicode hex="0414"/>
  <outline>
    <contour>
      <point x="1461.96" y="-338.0" type="line"/>
      <point x="1397.56" y="0.0" type="line"/>
      <point x="181.4" y="0.0" type="line"/>
      <point x="117.0" y="-338.0" type="line"/>
      <point x="41.233333333333334" y="-338.0" type="line"/>
      <point x="51.233333333333334" y="74.0" type="line"/>
      <point x="1527.7266666666667" y="74.0" type="line"/>
      <point x="1537.7266666666667" y="-338.0" type="line"/>
    </contour>
    <contour>
      <point x="374.6933333333333" y="790.34" type="qcurve" smooth="yes"/>
      <point x="421.98" y="1397.0266666666666" type="line"/>
      <point x="204.31333333333333" y="1431.0266666666666" type="line"/>
      <point x="204.31333333333333" y="1500.0" type="line"/>
      <point x="1527.7266666666667" y="1500.0" type="line"/>
      <point x="1527.7266666666667" y="1431.0266666666666" type="line"/>
      <point x="1309.3933333333332" y="1397.0266666666666" type="line"/>
      <point x="1307.3933333333332" y="754.0" type="line"/>
      <point x="1309.3933333333332" y="0.0" type="line"/>
      <point x="1196.66" y="0.0" type="line"/>
      <point x="1198.66" y="754.0" type="line"/>
      <point x="1196.66" y="1396.48" type="line"/>
      <point x="1166.5266666666666" y="1422.6666666666667" type="line"/>
      <point x="550.78" y="1422.6666666666667" type="line"/>
      <point x="513.98" y="1396.36" type="line"/>
      <point x="466.42" y="788.92" type="line" smooth="yes"/>
      <point x="446.44" y="536.8133333333334"/>
      <point x="377.1533333333333" y="186.26666666666665"/>
      <point x="320.6933333333333" y="58.04666666666667" type="qcurve"/>
      <point x="203.81333333333333" y="58.04666666666667" type="line"/>
      <point x="275.2733333333333" y="190.08666666666664"/>
      <point x="354.4133333333333" y="541.3933333333333"/>
    </contour>
  </outline>
</glyph>
<glyph name="Zhe" format="2">
  <advance width="2109"/>
  <unicode hex="0416"/>
  <guideline x="480.0" y="796.0" angle="90.0" identifier="vQLQteAbfW"/>
  <outline>
    <contour>
      <point x="779.5066666666667" y="0.0" type="line"/>
      <point x="779.5066666666667" y="65.09333333333335" type="line"/>
      <point x="997.24" y="100.09333333333335" type="line"/>
      <point x="999.24" y="754.0" type="line"/>
      <point x="997.24" y="1397.0266666666666" type="line"/>
      <point x="782.24" y="1431.0266666666666" type="line"/>
      <point x="782.24" y="1500.0" type="line"/>
      <point x="1324.9733333333334" y="1500.0" type="line"/>
      <point x="1324.9733333333334" y="1431.0266666666666" type="line"/>
      <point x="1109.9733333333334" y="1397.0266666666666" type="line"/>
      <point x="1107.9733333333334" y="754.0" type="line"/>
      <point x="1109.9733333333334" y="100.09333333333335" type="line"/>
      <point x="1327.7066666666667" y="65.09333333333335" type="line"/>
      <point x="1327.7066666666667" y="0.0" type="line"/>
    </contour>
    <contour>
      <point x="1053.6066666666668" y="743.4533333333334" type="line"/>
      <point x="1053.6066666666668" y="828.5466666666666" type="line"/>
      <point x="1332.44" y="824.5466666666666" type="line"/>
      <point x="1760.38" y="1393.2" type="line"/>
      <point x="1590.0266666666666" y="1431.0266666666666" type="line"/>
      <point x="1590.0266666666666" y="1500.0" type="line"/>
      <point x="2062.6333333333337" y="1500.0" type="line"/>
      <point x="2062.6333333333337" y="1431.0266666666666" type="line"/>
      <point x="1875.8133333333333" y="1393.2" type="line"/>
      <point x="1396.0666666666668" y="775.5933333333334" type="line"/>
      <point x="1366.6666666666667" y="741.4533333333334" type="line"/>
    </contour>
    <contour>
      <point x="1331.36" y="747.6133333333333" type="line"/>
      <point x="1403.9066666666668" y="821.7266666666666" type="line"/>
      <point x="1960.0" y="100.03333333333335" type="line"/>
      <point x="2149.5133333333333" y="65.09333333333335" type="line"/>
      <point x="2149.5133333333333" y="0.0" type="line"/>
      <point x="1637.4133333333332" y="0.0" type="line"/>
      <point x="1637.4133333333332" y="65.09333333333335" type="line"/>
      <point x="1830.3533333333332" y="100.03333333333335" type="line"/>
    </contour>
    <contour>
      <point x="1053.6066666666668" y="743.4533333333334" type="line"/>
      <point x="740.5466666666666" y="741.4533333333334" type="line"/>
      <point x="703.6066666666667" y="776.2533333333333" type="line"/>
      <point x="224.22" y="1393.2" type="line"/>
      <point x="37.76" y="1431.0266666666666" type="line"/>
      <point x="37.76" y="1500.0" type="line"/>
      <point x="517.1866666666666" y="1500.0" type="line"/>
      <point x="517.1866666666666" y="1431.0266666666666" type="line"/>
      <point x="346.8333333333333" y="1393.2" type="line"/>
      <point x="774.7733333333334" y="824.5466666666666" type="line"/>
      <point x="1053.6066666666668" y="828.5466666666666" type="line"/>
    </contour>
    <contour>
      <point x="775.8533333333334" y="747.6133333333333" type="line"/>
      <point x="276.86" y="100.03333333333335" type="line"/>
      <point x="469.8" y="65.09333333333335" type="line"/>
      <point x="469.8" y="0.0" type="line"/>
      <point x="-40.3" y="0.0" type="line"/>
      <point x="-40.3" y="65.09333333333335" type="line"/>
      <point x="150.45333333333335" y="100.03333333333335" type="line"/>
      <point x="706.5466666666666" y="821.7266666666666" type="line"/>
    </contour>
  </outline>
</glyph>
<glyph name="Icyr" format="2">
  <advance width="1713"/>
  <unicode hex="0418"/>
  <guideline x="739.0" y="930.0" angle="90.0" identifier="jpSOnFR6u4"/>
  <guideline x="880.0" y="783.0" angle="90.0" identifier="3fHus3tMSg"/>
  <guideline x="953.0" y="742.0" angle="0" identifier="rmoGi5h6UR"/>
  <outline>
    <contour>
      <point x="1074.3733333333332" y="0.0" type="line"/>
      <point x="1074.3733333333332" y="65.09333333333335" type="line"/>
      <point x="1298.7733333333333" y="100.09333333333335" type="line"/>
      <point x="1300.7733333333333" y="754.0" type="line"/>
      <point x="1298.7733333333333" y="1397.0266666666666" type="line"/>
      <point x="1074.3733333333332" y="1431.0266666666666" type="line"/>
      <point x="1074.3733333333332" y="1500.0" type="line"/>
      <point x="1629.84" y="1500.0" type="line"/>
      <point x="1629.84" y="1431.0266666666666" type="line"/>
      <point x="1411.5066666666667" y="1397.0266666666666" type="line"/>
      <point x="1409.5066666666667" y="754.0" type="line"/>
      <point x="1411.5066666666667" y="100.09333333333335" type="line"/>
      <point x="1629.84" y="65.09333333333335" type="line"/>
      <point x="1629.84" y="0.0" type="line"/>
    </contour>
    <contour>
      <point x="83.24" y="0.0" type="line"/>
      <point x="83.24" y="65.09333333333335" type="line"/>
      <point x="301.5733333333333" y="100.09333333333335" type="line"/>
      <point x="303.5733333333333" y="754.0" type="line"/>
      <point x="301.5733333333333" y="1397.0266666666666" type="line"/>
      <point x="83.24" y="1431.0266666666666" type="line"/>
      <point x="83.24" y="1500.0" type="line"/>
      <point x="638.7066666666666" y="1500.0" type="line"/>
      <point x="638.7066666666666" y="1431.0266666666666" type="line"/>
      <point x="414.3066666666667" y="1397.0266666666666" type="line"/>
      <point x="412.3066666666667" y="754.0" type="line"/>
      <point x="414.3066666666667" y="100.09333333333335" type="line"/>
      <point x="638.7066666666666" y="65.09333333333335" type="line"/>
      <point x="638.7066666666666" y="0.0" type="line"/>
    </contour>
    <contour>
      <point x="413.58" y="242.62666666666667" type="line"/>
      <point x="345.0133333333333" y="290.00666666666666" type="line"/>
      <point x="836.3533333333334" y="774.2666666666667" type="line"/>
      <point x="1299.5" y="1244.4933333333333" type="line"/>
      <point x="1368.0666666666668" y="1197.1133333333332" type="line"/>
      <point x="896.0" y="728.58" type="line"/>
    </contour>
  </outline>
</glyph>
<glyph name="El" format="2">
  <advance width="1585"/>
  <unicode hex="041B"/>
  <outline>
    <contour>
      <point x="393.42" y="752.74" type="qcurve" smooth="yes"/>
      <point x="443.8" y="1397.0266666666666" type="line"/>
      <point x="225.46666666666667" y="1431.0266666666666" type="line"/>
      <point x="225.46666666666667" y="1500.0" type="line"/>
      <point x="1501.3066666666668" y="1500.0" type="line"/>
      <point x="1501.3066666666668" y="1431.0266666666666" type="line"/>
      <point x="1282.9733333333334" y="1397.0266666666666" type="line"/>
      <point x="1280.9733333333334" y="754.0" type="line"/>
      <point x="1282.9733333333334" y="100.09333333333335" type="line"/>
      <point x="1501.3066666666668" y="65.09333333333335" type="line"/>
      <point x="1501.3066666666668" y="0.0" type="line"/>
      <point x="945.24" y="0.0" type="line"/>
      <point x="945.24" y="65.09333333333335" type="line"/>
      <point x="1170.24" y="100.09333333333335" type="line"/>
      <point x="1172.24" y="754.0" type="line"/>
      <point x="1170.24" y="1396.48" type="line"/>
      <point x="1140.1066666666668" y="1422.6666666666667" type="line"/>
      <point x="572.6" y="1422.6666666666667" type="line"/>
      <point x="535.8" y="1396.36" type="line"/>
      <point x="485.42" y="752.26" type="line" smooth="yes"/>
      <point x="451.8" y="327.8466666666667"/>
      <point x="317.2133333333333" y="-17.0"/>
      <point x="137.8" y="-17.0" type="qcurve" smooth="yes"/>
      <point x="113.8" y="-17.0"/>
      <point x="73.13333333333333" y="-9.333333333333334"/>
      <point x="48.8" y="0.0" type="qcurve"/>
      <point x="48.8" y="129.66666666666669" type="line"/>
      <point x="72.8" y="121.66666666666667"/>
      <point x="112.08" y="116.66666666666667"/>
      <point x="133.14" y="116.66666666666667" type="qcurve" smooth="yes"/>
      <point x="271.32" y="116.66666666666667"/>
      <point x="368.8936822320667" y="442.2736926475333"/>
    </contour>
  </outline>
</glyph>
<glyph name="Pe" format="2">
  <advance width="1681"/>
  <unicode hex="041F"/>
  <outline>
    <contour>
      <point x="1266.64" y="1396.48" type="line"/>
      <point x="1233.1733333333332" y="1422.6666666666667" type="line"/>
      <point x="447.7733333333333" y="1422.6666666666667" type="line"/>
      <point x="414.3066666666667" y="1396.48" type="line"/>
      <point x="412.3066666666667" y="754.0" type="line"/>
      <point x="414.3066666666667" y="100.09333333333335" type="line"/>
      <point x="638.7066666666666" y="65.09333333333335" type="line"/>
      <point x="638.7066666666666" y="0.0" type="line"/>
      <point x="83.24" y="0.0" type="line"/>
      <point x="83.24" y="65.09333333333335" type="line"/>
      <point x="301.5733333333333" y="100.09333333333335" type="line"/>
      <point x="303.5733333333333" y="754.0" type="line"/>
      <point x="301.5733333333333" y="1397.0266666666666" type="line"/>
      <point x="83.24" y="1431.0266666666666" type="line"/>
      <point x="83.24" y="1500.0" type="line"/>
      <point x="1597.7066666666667" y="1500.0" type="line"/>
      <point x="1597.7066666666667" y="1431.0266666666666" type="line"/>
      <point x="1379.3733333333332" y="1397.0266666666666" type="line"/>
      <point x="1376.7066666666667" y="754.0" type="line"/>
      <point x="1379.3733333333332" y="100.09333333333335" type="line"/>
      <point x="1597.7066666666667" y="65.09333333333335" type="line"/>
      <point x="1597.7066666666667" y="0.0" type="line"/>
      <point x="1042.24" y="0.0" type="line"/>
      <point x="1042.24" y="65.09333333333335" type="line"/>
      <point x="1266.64" y="100.09333333333335" type="line"/>
      <point x="1268.64" y="754.0" type="line"/>
    </contour>
  </outline>
</glyph>
